SplineFontDB: 3.0
FontName: StickNoBills-Bold
FullName: Stick No Bills
FamilyName: Stick No Bills
Weight: Bold
Copyright: Copyright (c) 2013 STICK NO BILLS, Copyright (c) 2015 mooniak\n
UComments: "2015-2-15: Created with FontForge (http://fontforge.org) The  Free Font Editor"
Version: 1.0
ItalicAngle: 0
UnderlinePosition: -102
UnderlineWidth: 51
Ascent: 819
Descent: 205
InvalidEm: 0
UFOAscent: 819
UFODescent: -205
LayerCount: 3
Layer: 0 0 "Back" 1
Layer: 1 0 "Fore" 1
Layer: 2 0 "Back 2" 1
PreferredKerning: 4
FSType: 0
OS2Version: 0
OS2_WeightWidthSlopeOnly: 0
OS2_UseTypoMetrics: 0
CreationTime: 1429518268
ModificationTime: 1441200069
PfmFamily: 16
TTFWeight: 400
TTFWidth: 5
LineGap: 94
VLineGap: 0
OS2TypoAscent: 819
OS2TypoAOffset: 0
OS2TypoDescent: -205
OS2TypoDOffset: 0
OS2TypoLinegap: 94
OS2WinAscent: 918
OS2WinAOffset: 0
OS2WinDescent: 205
OS2WinDOffset: 0
HheadAscent: 918
HheadAOffset: 0
HheadDescent: -205
HheadDOffset: 0
OS2Vendor: 'PfEd'
OS2UnicodeRanges: 00000002.00000000.00000000.00000000
Lookup: 258 0 0 "'kern' Horizontal Kerning lookup 0" { "'kern' Horizontal Kerning lookup 0-1" [153,15,0] } ['kern' ('DFLT' <'dflt' > 'hani' <'dflt' > 'latn' <'dflt' > ) ]
MarkAttachClasses: 1
DEI: 91125
KernClass2: 7 7 "'kern' Horizontal Kerning lookup 0-1"
 7 uni0041
 31 uni0054 uni0059 uni0050 uni0046
 39 uni0066 uni0072 uni0076 uni0077 uni0079
 7 uni004C
 15 uni0057 uni0056
 0 
 31 uni0057 uni0056 uni0054 uni0059
 15 uni002E uni002C
 71 uni0061 uni0065 uni0073 uni006F uni0071 uni0064 uni0063 uni0067 uni0075
 7 uni0041
 23 uni0077 uni0076 uni0074
 15 uni003B uni003A
 0 {} 0 {} 0 {} 0 {} 0 {} 0 {} 0 {} 0 {} -70 {} 61 {} -23 {} 0 {} -68 {} 45 {} 0 {} 16 {} -80 {} -30 {} -100 {} -23 {} -63 {} 0 {} 0 {} -41 {} 0 {} 0 {} 0 {} 0 {} 0 {} -82 {} 0 {} 84 {} 0 {} -77 {} 62 {} 0 {} 0 {} -109 {} -55 {} -130 {} 0 {} -75 {} 0 {} 0 {} 0 {} 0 {} 0 {} 0 {} 0 {}

StartChar: uni0143
Encoding: 485 323 1
Width: 509
VWidth: 0
HStem: 0 21<32 32 32 173 32 32 32 173 410 410 410 477 410 410 410 477> 680 20<32 147 147 147 336 477 477 477> 766 152<246 300 209 373>
VStem: 32 141<0 278 0 492> 209 164<766 918> 336 141<498 700>
LayerCount: 3
Back
SplineSet
300 766 m 257
 209 766 l 257
 246 918 l 257
 373 918 l 257
 300 766 l 257
32 0 m 257xb8
 32 492 l 257
 40 492 l 257
 173 278 l 257
 173 0 l 257
 32 0 l 257xb8
477 700 m 257
 477 284 l 257
 469 284 l 257
 336 498 l 257
 336 700 l 257
 477 700 l 257
32 700 m 257
 147 700 l 257
 477 168 l 257
 477 0 l 257
 410 0 l 257
 32 608 l 257
 32 700 l 257
EndSplineSet
EndChar

StartChar: uni0144
Encoding: 486 324 2
Width: 434
VWidth: 0
Flags: H
HStem: 0 21<30 154 30 30 30 154 30 30 280 404 280 280 280 404 280 280> 398 121<175.5 196 191 196 238 243 191 238> 580 152<208.5 262.5 171.5 335.5>
VStem: 30 124<0 372 0 377 0 401> 171.5 164<580 732> 280 124<0 372 372 373.5>
LayerCount: 3
Fore
SplineSet
262.5 580 m 257
 171.5 580 l 257
 208.5 732 l 257
 335.5 732 l 257
 262.5 580 l 257
EndSplineSet
EndChar

StartChar: uni0145
Encoding: 487 325 3
Width: 509
VWidth: 0
HStem: 0 21<32 32 32 173 32 32 32 173 410 410 410 477 410 410 410 477> 680 20<32 147 147 147 336 477 477 477>
VStem: 32 141<0 278 0 492> 336 141<498 700>
LayerCount: 3
Fore
SplineSet
299.5 -213 m 257
 172.5 -213 l 257
 209.5 -61 l 257
 336.5 -61 l 257
 299.5 -213 l 257
32 0 m 257xb8
 32 492 l 257
 40 492 l 257
 173 278 l 257
 173 0 l 257
 32 0 l 257xb8
477 700 m 257
 477 284 l 257
 469 284 l 257
 336 498 l 257
 336 700 l 257
 477 700 l 257
32 700 m 257
 147 700 l 257
 477 168 l 257
 477 0 l 257
 410 0 l 257
 32 608 l 257
 32 700 l 257
EndSplineSet
Validated: 1
EndChar

StartChar: uni0146
Encoding: 488 326 4
Width: 434
VWidth: 0
Flags: H
HStem: 0 21<30 154 30 30 30 154 30 30 280 404 280 280 280 404 280 280> 398 121<175.5 196 191 196 238 243 191 238>
VStem: 30 124<0 372 0 377 0 401> 280 124<0 372 372 373.5>
LayerCount: 3
Fore
SplineSet
262 -213 m 257
 135 -213 l 257
 172 -61 l 257
 299 -61 l 257
 262 -213 l 257
EndSplineSet
EndChar

StartChar: uni0147
Encoding: 489 327 5
Width: 509
VWidth: 0
HStem: 0 21<32 32 32 173 32 32 32 173 410 410 410 477 410 410 410 477> 680 20<32 147 147 147 336 477 477 477> 766 152<220.5 226.5 281.5 286.5 220.5 220.5>
VStem: 32 141<0 278 0 492> 145.5 218<918 918> 336 141<498 700>
LayerCount: 3
Fore
SplineSet
145.5 918 m 257
 226.5 918 l 257
 253.5 861 l 257
 281.5 918 l 257
 363.5 918 l 257
 286.5 766 l 257
 220.5 766 l 257
 145.5 918 l 257
32 0 m 257xb8
 32 492 l 257
 40 492 l 257
 173 278 l 257
 173 0 l 257
 32 0 l 257xb8
477 700 m 257
 477 284 l 257
 469 284 l 257
 336 498 l 257
 336 700 l 257
 477 700 l 257
32 700 m 257
 147 700 l 257
 477 168 l 257
 477 0 l 257
 410 0 l 257
 32 608 l 257
 32 700 l 257
EndSplineSet
Validated: 1
EndChar

StartChar: uni0148
Encoding: 490 328 6
Width: 434
VWidth: 0
Flags: H
HStem: 0 21<30 154 30 30 30 154 30 30 280 404 280 280 280 404 280 280> 398 121<175.5 196 191 196 238 243 191 238> 580 152<183 189 244 249 183 183>
VStem: 30 124<0 372 0 377 0 401> 108 218<732 732> 280 124<0 372 372 373.5>
LayerCount: 3
Fore
SplineSet
108 732 m 257
 189 732 l 257
 216 675 l 257
 244 732 l 257
 326 732 l 257
 249 580 l 257
 183 580 l 257
 108 732 l 257
EndSplineSet
EndChar

StartChar: uni014C
Encoding: 491 332 7
Width: 508
VWidth: 0
HStem: -5 142<223.5 226 223.5 226 281 283.5 223.5 311> 564 141<161 227 161 281> 766 107
VStem: 30 141<195 508> 337 141<195 508 508 510.5>
LayerCount: 3
Fore
SplineSet
479 766 m 257
 29 766 l 257
 29 873 l 257
 479 873 l 257
 479 766 l 257
226 -5 m 257
 166 -5 30 51 30 195 c 258
 30 524 l 258
 30 584 95 705 227 705 c 257
 227 564 l 257
 181 563 171 513 171 508 c 258
 171 195 l 258
 171 149 221 137 226 137 c 257
 226 -5 l 257
281 -5 m 257
 281 137 l 257
 286 137 336 149 337 195 c 258
 337 508 l 258
 337 513 327 563 281 564 c 257
 281 705 l 257
 412 705 478 583 478 524 c 258
 478 195 l 258
 478 51 341 -5 281 -5 c 257
EndSplineSet
Validated: 1
EndChar

StartChar: uni0154
Encoding: 492 340 8
Width: 495
VWidth: 0
HStem: 0 21<32 173 32 32 32 173 32 32 343 469 343 343 343 469 343 343> 286 125<227 240> 567 133<227 240 32 227> 766 152<121 175 84 248>
VStem: 32 141<0 700 0 700> 84 164<766 918> 326 127<467.5 512>
LayerCount: 3
Fore
SplineSet
175 766 m 257
 84 766 l 257
 121 918 l 257
 248 918 l 257
 175 766 l 257
227 411 m 257xbc
 240 411 l 258
 300 411 326 447 326 488 c 256
 326 536 289 567 240 567 c 258
 227 567 l 257
 227 700 l 257
 377 700 453 616 453 496 c 256
 453 428 432 381 386 352 c 257
 422 325 448 266 452 217 c 258
 469 0 l 257
 343 0 l 257
 328 178 l 258
 321 257 298 285 227 286 c 257
 227 411 l 257xbc
32 700 m 257
 173 700 l 257
 173 0 l 257
 32 0 l 257
 32 700 l 257
EndSplineSet
Validated: 1
EndChar

StartChar: uni0155
Encoding: 493 341 9
Width: 316
VWidth: 0
HStem: 0 21G<36 160> 395 121<221.776 289> 577 152<168 222 131 295>
VStem: 36 124<0 333.833 454 516> 131 164<577 729>
LayerCount: 3
Fore
SplineSet
36 516 m 257
 160 516 l 257
 160 454 l 257
 181 481 229 516 284 516 c 258
 317 516 l 257
 289 395 l 257
 222 394 160 331 160 271 c 258
 160 0 l 257
 36 0 l 257
 36 516 l 257
222 577 m 257
 131 577 l 257
 168 729 l 257
 295 729 l 257
 222 577 l 257
EndSplineSet
Validated: 1
EndChar

StartChar: uni0156
Encoding: 494 342 10
Width: 495
VWidth: 0
HStem: 0 21<32 173 32 32 32 173 32 32 343 469 343 343 343 469 343 343> 286 125<227 240> 567 133<227 240 32 227>
VStem: 32 141<0 700 0 700> 326 127<467.5 512>
LayerCount: 3
Fore
SplineSet
295.5 -213 m 257
 168.5 -213 l 257
 205.5 -61 l 257
 332.5 -61 l 257
 295.5 -213 l 257
227 411 m 257xbc
 240 411 l 258
 300 411 326 447 326 488 c 256
 326 536 289 567 240 567 c 258
 227 567 l 257
 227 700 l 257
 377 700 453 616 453 496 c 256
 453 428 432 381 386 352 c 257
 422 325 448 266 452 217 c 258
 469 0 l 257
 343 0 l 257
 328 178 l 258
 321 257 298 285 227 286 c 257
 227 411 l 257xbc
32 700 m 257
 173 700 l 257
 173 0 l 257
 32 0 l 257
 32 700 l 257
EndSplineSet
Validated: 1
EndChar

StartChar: uni0157
Encoding: 495 343 11
Width: 316
VWidth: 0
HStem: 0 21G<36 160> 395 121<221.776 289>
VStem: 36 124<0 333.833 454 516>
LayerCount: 3
Fore
SplineSet
36 516 m 257
 160 516 l 257
 160 454 l 257
 181 481 229 516 284 516 c 258
 317 516 l 257
 289 395 l 257
 222 394 160 331 160 271 c 258
 160 0 l 257
 36 0 l 257
 36 516 l 257
143 -213 m 257
 16 -213 l 257
 53 -61 l 257
 180 -61 l 257
 143 -213 l 257
EndSplineSet
Validated: 1
EndChar

StartChar: uni0158
Encoding: 496 344 12
Width: 495
VWidth: 0
HStem: 0 21<32 173 32 32 32 173 32 32 343 469 343 343 343 469 343 343> 286 125<227 240> 567 133<227 240 32 227> 766 152<95.5 101.5 156.5 161.5 95.5 95.5>
VStem: 20.5 218<918 918> 32 141<0 700 0 700> 326 127<467.5 512>
LayerCount: 3
Fore
SplineSet
20.5 918 m 257
 101.5 918 l 257
 128.5 861 l 257
 156.5 918 l 257
 238.5 918 l 257
 161.5 766 l 257
 95.5 766 l 257
 20.5 918 l 257
227 411 m 257xbc
 240 411 l 258
 300 411 326 447 326 488 c 256
 326 536 289 567 240 567 c 258
 227 567 l 257
 227 700 l 257
 377 700 453 616 453 496 c 256
 453 428 432 381 386 352 c 257
 422 325 448 266 452 217 c 258
 469 0 l 257
 343 0 l 257
 328 178 l 258
 321 257 298 285 227 286 c 257
 227 411 l 257xbc
32 700 m 257
 173 700 l 257
 173 0 l 257
 32 0 l 257
 32 700 l 257
EndSplineSet
Validated: 1
EndChar

StartChar: uni0159
Encoding: 497 345 13
Width: 316
VWidth: 0
HStem: 0 21G<36 160> 395 121<221.776 289> 577 152<142.5 148.5 203.5 208.5 142.5 142.5>
VStem: 36 124<0 333.833 454 516> 67.5 218<729 729>
LayerCount: 3
Fore
SplineSet
36 516 m 257
 160 516 l 257
 160 454 l 257
 181 481 229 516 284 516 c 258
 317 516 l 257
 289 395 l 257
 222 394 160 331 160 271 c 258
 160 0 l 257
 36 0 l 257
 36 516 l 257
67.5 729 m 257
 148.5 729 l 257
 175.5 672 l 257
 203.5 729 l 257
 285.5 729 l 257
 208.5 577 l 257
 142.5 577 l 257
 67.5 729 l 257
EndSplineSet
Validated: 1
EndChar

StartChar: uni015A
Encoding: 498 346 14
Width: 497
VWidth: 0
HStem: 680 20<216 216 271 324> 766 152<235 289 198 362>
VStem: 41 134<479.5 525 479.5 577.5> 198 164<766 918> 333 141<176.5 240.5>
LayerCount: 3
Fore
SplineSet
289 766 m 257
 198 766 l 257
 235 918 l 257
 362 918 l 257
 289 766 l 257
216 700 m 257
 216 568 l 257
 195 562 175 537 175 513 c 256
 175 446 279 434 346 394 c 256
 407 358 474 311 474 209 c 256
 474 96 379 -3 271 -3 c 257
 271 127 l 257
 295 130 333 150 333 203 c 256
 333 278 224 294 164 323 c 256
 93 357 41 403 41 508 c 256
 41 647 165 699 216 700 c 257
271 700 m 257
 377 700 440 589 446 553 c 257
 316 510 l 257
 311 557 271 568 271 568 c 257
 271 700 l 257
216 -3 m 257
 107 -3 34 103 33 158 c 257
 160 203 l 257
 162 147 216 127 216 127 c 257
 216 -3 l 257
EndSplineSet
Validated: 1
EndChar

StartChar: uni015B
Encoding: 499 347 15
Width: 418
VWidth: 0
HStem: 404 113<224 226 179 223> 578 152<194.5 248.5 157.5 321.5>
VStem: 26 112<353 369.5 353 422> 157.5 164<578 730> 280 117<136.5 175.5>
LayerCount: 3
Fore
SplineSet
22 134 m 256
 21 136 l 257
 133 157 l 257
 133 154 l 258
 135 135 157 113 181 111 c 256
 184 110 l 257
 184 -5 l 257
 181 -5 l 258
 87 -5 25 70 22 134 c 256
388 376 m 258
 388 374 l 257
 276 355 l 257
 276 358 l 256
 272 399 234 404 226 404 c 258
 223 404 l 257
 224 517 l 257
 227 517 l 258
 321 517 388 440 388 376 c 258
182 406 m 257
 180 406 l 256
 140 402 138 377 138 362 c 256
 138 344 153 323 294 296 c 256
 346 286 397 243 397 160 c 256
 397 57 321 -5 228 -5 c 258
 225 -5 l 257
 225 109 l 257
 228 109 l 258
 243 110 280 120 280 153 c 256
 280 198 168 206 111 232 c 256
 62 256 26 287 26 371 c 256
 26 473 125 517 179 517 c 258
 182 517 l 257
 182 406 l 257
248.5 578 m 257
 157.5 578 l 257
 194.5 730 l 257
 321.5 730 l 257
 248.5 578 l 257
EndSplineSet
Validated: 1
EndChar

StartChar: uni015E
Encoding: 500 350 16
Width: 497
VWidth: 0
HStem: -156.7 91<121.5 139.5 121.5 185> 680 20<216 216 271 324>
VStem: 41 134<479.5 525 479.5 577.5> 197.5 92<-25.2 2.3> 333 141<176.5 240.5>
LayerCount: 3
Fore
SplineSet
197.5 2.2998046875 m 257
 289.5 2.2998046875 l 257
 289.5 -73.7001953125 248.5 -156.700195312 121.5 -156.700195312 c 257
 121.5 -65.7001953125 l 257
 157.5 -65.7001953125 197.5 -52.7001953125 197.5 2.2998046875 c 257
216 700 m 257
 216 568 l 257
 195 562 175 537 175 513 c 256
 175 446 279 434 346 394 c 256
 407 358 474 311 474 209 c 256
 474 96 379 -3 271 -3 c 257
 271 127 l 257
 295 130 333 150 333 203 c 256
 333 278 224 294 164 323 c 256
 93 357 41 403 41 508 c 256
 41 647 165 699 216 700 c 257
271 700 m 257
 377 700 440 589 446 553 c 257
 316 510 l 257
 311 557 271 568 271 568 c 257
 271 700 l 257
216 -3 m 257
 107 -3 34 103 33 158 c 257
 160 203 l 257
 162 147 216 127 216 127 c 257
 216 -3 l 257
EndSplineSet
Validated: 5
EndChar

StartChar: uni015F
Encoding: 501 351 17
Width: 418
VWidth: 0
LayerCount: 3
Back
SplineSet
22 134 m 256
 21 136 l 257
 133 157 l 257
 133 154 l 258
 135 135 157 113 181 111 c 256
 184 110 l 257
 184 -5 l 257
 181 -5 l 258
 87 -5 25 70 22 134 c 256
388 376 m 258
 388 374 l 257
 276 355 l 257
 276 358 l 256
 272 399 234 404 226 404 c 258
 223 404 l 257
 224 517 l 257
 227 517 l 258
 321 517 388 440 388 376 c 258
182 406 m 257
 180 406 l 256
 140 402 138 377 138 362 c 256
 138 344 153 323 294 296 c 256
 346 286 397 243 397 160 c 256
 397 57 321 -5 228 -5 c 258
 225 -5 l 257
 225 109 l 257
 228 109 l 258
 243 110 280 120 280 153 c 256
 280 198 168 206 111 232 c 256
 62 256 26 287 26 371 c 256
 26 473 125 517 179 517 c 258
 182 517 l 257
 182 406 l 257
158.5 0.2998046875 m 257
 250.5 0.2998046875 l 257
 250.5 -75.7001953125 209.5 -158.700195312 82.5 -158.700195312 c 257
 82.5 -67.7001953125 l 257
 118.5 -67.7001953125 158.5 -54.7001953125 158.5 0.2998046875 c 257
EndSplineSet
EndChar

StartChar: uni014D
Encoding: 502 333 18
Width: 420
VWidth: 0
HStem: -1 118<132 192 186 192 186 233 233 239> 398 118<169.5 192 186 192 233 239 186 233> 577 107
VStem: 28 120<144.5 154 154 363> 275 117<152 363 363 371.5>
LayerCount: 3
Fore
SplineSet
28 376 m 258
 28 421 79 516 186 516 c 258
 192 516 l 257
 192 398 l 257
 186 398 l 258
 153 398 148 373 148 363 c 257
 148 154 l 257
 148 135 156 117 186 117 c 258
 192 117 l 257
 192 -1 l 257
 186 -1 l 258
 78 -1 28 97 28 141 c 258
 28 376 l 258
233 398 m 257
 233 516 l 257
 239 516 l 258
 342 516 392 421 392 376 c 258
 392 141 l 258
 392 96 343 -1 239 -1 c 258
 233 -1 l 257
 233 117 l 257
 239 117 l 258
 270 118 275 141 275 152 c 257
 275 363 l 257
 275 380 269 398 239 398 c 258
 233 398 l 257
437.5 577 m 257
 -12.5 577 l 257
 -12.5 684 l 257
 437.5 684 l 257
 437.5 577 l 257
EndSplineSet
Validated: 1
EndChar

StartChar: uni0150
Encoding: 503 336 19
Width: 508
VWidth: 0
HStem: -5 142<223.5 226 223.5 226 281 283.5 223.5 311> 564 141<161 227 161 281> 766 152<170 224 141 282 170 284 313 367>
VStem: 30 141<195 508> 141 284<766 918> 337 141<195 508 508 510.5>
LayerCount: 3
Fore
SplineSet
224 766 m 257
 141 766 l 257
 170 918 l 257
 282 918 l 257
 224 766 l 257
367 766 m 257
 284 766 l 257
 313 918 l 257
 425 918 l 257
 367 766 l 257
226 -5 m 257
 166 -5 30 51 30 195 c 258
 30 524 l 258
 30 584 95 705 227 705 c 257
 227 564 l 257
 181 563 171 513 171 508 c 258
 171 195 l 258
 171 149 221 137 226 137 c 257
 226 -5 l 257
281 -5 m 257
 281 137 l 257
 286 137 336 149 337 195 c 258
 337 508 l 258
 337 513 327 563 281 564 c 257
 281 705 l 257
 412 705 478 583 478 524 c 258
 478 195 l 258
 478 51 341 -5 281 -5 c 257
EndSplineSet
Validated: 1
EndChar

StartChar: uni0151
Encoding: 504 337 20
Width: 420
VWidth: 0
HStem: -1 118<132 192 186 192 186 233 233 239> 398 118<169.5 192 186 192 233 239 186 233> 577 152<128.5 182.5 99.5 240.5 128.5 242.5 271.5 325.5>
VStem: 28 120<144.5 154 154 363> 99.5 284<577 729> 275 117<152 363 363 371.5>
LayerCount: 3
Fore
SplineSet
28 376 m 258
 28 421 79 516 186 516 c 258
 192 516 l 257
 192 398 l 257
 186 398 l 258
 153 398 148 373 148 363 c 257
 148 154 l 257
 148 135 156 117 186 117 c 258
 192 117 l 257
 192 -1 l 257
 186 -1 l 258
 78 -1 28 97 28 141 c 258
 28 376 l 258
233 398 m 257
 233 516 l 257
 239 516 l 258
 342 516 392 421 392 376 c 258
 392 141 l 258
 392 96 343 -1 239 -1 c 258
 233 -1 l 257
 233 117 l 257
 239 117 l 258
 270 118 275 141 275 152 c 257
 275 363 l 257
 275 380 269 398 239 398 c 258
 233 398 l 257
182.5 577 m 257
 99.5 577 l 257
 128.5 729 l 257
 240.5 729 l 257
 182.5 577 l 257
325.5 577 m 257
 242.5 577 l 257
 271.5 729 l 257
 383.5 729 l 257
 325.5 577 l 257
EndSplineSet
Validated: 1
EndChar

StartChar: uni0162
Encoding: 505 354 21
Width: 485
VWidth: 0
HStem: -198.7 91<120.5 138.5 120.5 184> 0 21<172 313 172 172 172 313 172 172> 562 138<26 172 26 459 313 459 313 313>
VStem: 172 141<0 562 0 562> 196.5 92<-67.2 -39.7>
LayerCount: 3
Fore
SplineSet
196.5 -39.7001953125 m 257
 288.5 -39.7001953125 l 257
 288.5 -115.700195312 247.5 -198.700195312 120.5 -198.700195312 c 257
 120.5 -107.700195312 l 257
 156.5 -107.700195312 196.5 -94.7001953125 196.5 -39.7001953125 c 257
459 700 m 257xb0
 459 562 l 257
 313 562 l 257
 313 0 l 257
 172 0 l 257
 172 562 l 257
 26 562 l 257
 26 700 l 257
 459 700 l 257xb0
EndSplineSet
Colour: ffff00
EndChar

StartChar: uni0163
Encoding: 506 355 22
Width: 324
VWidth: 0
HStem: -198.7 91<148.5 166.5 148.5 212> 0 125<244 271 244 298 243 271> 398 118<26 89 26 89 211 271> 680 20<89 211 211 211>
VStem: 89 122<168 398 516 700> 224.5 92<-67.2 -39.7>
LayerCount: 3
Fore
SplineSet
244 125 m 258
 271 125 l 257
 298 0 l 257
 243 0 l 258
 121 1 89 66 89 168 c 258
 89 398 l 257
 26 398 l 257
 26 516 l 257
 89 516 l 257
 89 700 l 257
 211 700 l 257
 211 516 l 257
 271 516 l 257
 271 398 l 257
 211 398 l 257
 211 159 l 258
 211 145 216 126 244 125 c 258
224.5 -39.7001953125 m 257
 316.5 -39.7001953125 l 257
 316.5 -115.700195312 275.5 -198.700195312 148.5 -198.700195312 c 257
 148.5 -107.700195312 l 257
 184.5 -107.700195312 224.5 -94.7001953125 224.5 -39.7001953125 c 257
EndSplineSet
Colour: ffff00
EndChar

StartChar: uni0164
Encoding: 507 356 23
Width: 485
VWidth: 0
HStem: 0 21<172 313 172 172 172 313 172 172> 562 138<26 172 26 459 313 459 313 313> 766 152<208.5 214.5 269.5 274.5 208.5 208.5>
VStem: 133.5 218<918 918> 172 141<0 562 0 562>
LayerCount: 3
Fore
SplineSet
133.5 918 m 257
 214.5 918 l 257
 241.5 861 l 257
 269.5 918 l 257
 351.5 918 l 257
 274.5 766 l 257
 208.5 766 l 257
 133.5 918 l 257
459 700 m 257xb0
 459 562 l 257
 313 562 l 257
 313 0 l 257
 172 0 l 257
 172 562 l 257
 26 562 l 257
 26 700 l 257
 459 700 l 257xb0
EndSplineSet
Validated: 1
EndChar

StartChar: uni016A
Encoding: 509 362 24
Width: 512
VWidth: 0
HStem: -5 142<226.5 229 226.5 229 283 285.5 226.5 313.5> 680 20<32 173 173 173 339 479 479 479> 766 107
VStem: 32 141<193 700 193 700> 339 140<193 700>
LayerCount: 3
Fore
SplineSet
480.5 766 m 257
 30.5 766 l 257
 30.5 873 l 257
 480.5 873 l 257
 480.5 766 l 257
229 -5 m 257
 169 -5 32 49 32 193 c 258
 32 700 l 257
 173 700 l 257
 173 193 l 257
 174 147 224 137 229 137 c 257
 229 -5 l 257
283 -5 m 257
 283 137 l 257
 288 137 338 147 339 193 c 257
 339 700 l 257
 479 700 l 257
 479 193 l 258
 479 48 344 -5 283 -5 c 257
EndSplineSet
Validated: 1
EndChar

StartChar: uni016B
Encoding: 510 363 25
Width: 434
VWidth: 0
Flags: H
HStem: -5 121<137.5 196 191 196 238 243 191 238> 494 20<30 154 154 154 280 404 404 404> 577 107
VStem: 30 124<140.5 142 142 514> 280 124<142 514>
LayerCount: 3
Fore
SplineSet
442 577 m 257
 -8 577 l 257
 -8 684 l 257
 442 684 l 257
 442 577 l 257
EndSplineSet
EndChar

StartChar: uni016E
Encoding: 511 366 26
Width: 512
VWidth: 0
HStem: -5 142<226.5 229 226.5 229 283 285.5 226.5 313.5> 680 20<32 173 173 173 339 479 479 479> 766 64<246.5 264.5 246.5 282> 894 64<246.5 264.5>
VStem: 32 141<193 700 193 700> 159.5 64<853 871 853 888.5> 287.5 64<853 871> 339 140<193 700>
LayerCount: 3
Fore
SplineSet
223.5 862 m 256
 223.5 844 237.5 830 255.5 830 c 256
 273.5 830 287.5 844 287.5 862 c 256
 287.5 880 273.5 894 255.5 894 c 256
 237.5 894 223.5 880 223.5 862 c 256
159.5 862 m 256
 159.5 915 202.5 958 255.5 958 c 256
 308.5 958 351.5 915 351.5 862 c 256
 351.5 809 308.5 766 255.5 766 c 256
 202.5 766 159.5 809 159.5 862 c 256
229 -5 m 257
 169 -5 32 49 32 193 c 258
 32 700 l 257
 173 700 l 257
 173 193 l 257
 174 147 224 137 229 137 c 257
 229 -5 l 257
283 -5 m 257
 283 137 l 257
 288 137 338 147 339 193 c 257
 339 700 l 257
 479 700 l 257
 479 193 l 258
 479 48 344 -5 283 -5 c 257
EndSplineSet
Validated: 1
EndChar

StartChar: uni016F
Encoding: 512 367 27
Width: 434
VWidth: 0
Flags: H
HStem: -5 121<137.5 196 191 196 238 243 191 238> 494 20<30 154 154 154 280 404 404 404> 577 64<208 226 208 243.5> 705 64<208 226>
VStem: 30 124<140.5 142 142 514> 121 64<664 682 664 699.5> 249 64<664 682> 280 124<142 514>
LayerCount: 3
Fore
SplineSet
185 673 m 256
 185 655 199 641 217 641 c 256
 235 641 249 655 249 673 c 256
 249 691 235 705 217 705 c 256
 199 705 185 691 185 673 c 256
121 673 m 256
 121 726 164 769 217 769 c 256
 270 769 313 726 313 673 c 256
 313 620 270 577 217 577 c 256
 164 577 121 620 121 673 c 256
EndSplineSet
EndChar

StartChar: uni0170
Encoding: 513 368 28
Width: 512
VWidth: 0
HStem: -5 142<226.5 229 226.5 229 283 285.5 226.5 313.5> 680 20<32 173 173 173 339 479 479 479> 766 152<171.5 225.5 142.5 283.5 171.5 285.5 314.5 368.5>
VStem: 32 141<193 700 193 700> 142.5 284<766 918> 339 140<193 700>
LayerCount: 3
Fore
SplineSet
225.5 766 m 257
 142.5 766 l 257
 171.5 918 l 257
 283.5 918 l 257
 225.5 766 l 257
368.5 766 m 257
 285.5 766 l 257
 314.5 918 l 257
 426.5 918 l 257
 368.5 766 l 257
229 -5 m 257
 169 -5 32 49 32 193 c 258
 32 700 l 257
 173 700 l 257
 173 193 l 257
 174 147 224 137 229 137 c 257
 229 -5 l 257
283 -5 m 257
 283 137 l 257
 288 137 338 147 339 193 c 257
 339 700 l 257
 479 700 l 257
 479 193 l 258
 479 48 344 -5 283 -5 c 257
EndSplineSet
Validated: 1
EndChar

StartChar: uni0171
Encoding: 514 369 29
Width: 434
VWidth: 0
Flags: H
HStem: -5 121<137.5 196 191 196 238 243 191 238> 494 20<30 154 154 154 280 404 404 404> 577 152<133 187 104 245 133 247 276 330>
VStem: 30 124<140.5 142 142 514> 104 284<577 729> 280 124<142 514>
LayerCount: 3
Fore
SplineSet
187 577 m 257
 104 577 l 257
 133 729 l 257
 245 729 l 257
 187 577 l 257
330 577 m 257
 247 577 l 257
 276 729 l 257
 388 729 l 257
 330 577 l 257
EndSplineSet
EndChar

StartChar: uni017A
Encoding: 517 378 30
Width: 348
VWidth: 0
HStem: 0 118<169 169 169 322> 394 120<26 183 26 322> 577 152<165.5 219.5 128.5 292.5>
VStem: 26 296<0 116 116 116 400 514> 128.5 164<577 729>
LayerCount: 3
Fore
SplineSet
322 400 m 257
 169 118 l 257
 322 117 l 257
 322 0 l 257
 26 0 l 257
 26 116 l 257
 183 394 l 257
 26 394 l 257
 26 514 l 257
 322 514 l 257
 322 400 l 257
219.5 577 m 257
 128.5 577 l 257
 165.5 729 l 257
 292.5 729 l 257
 219.5 577 l 257
EndSplineSet
Validated: 1
EndChar

StartChar: uni017B
Encoding: 518 379 31
Width: 418
VWidth: 0
HStem: 0 144<182 392 182 392> 560 140<26 236 26 392> 766 151<188 230>
VStem: 26 366<0 141 141 141 563 700> 134 150<820 862>
LayerCount: 3
Fore
SplineSet
134 841 m 256
 134 883 167 917 209 917 c 256
 251 917 284 883 284 841 c 256
 284 799 251 766 209 766 c 256
 167 766 134 799 134 841 c 256
182 144 m 257
 392 144 l 257
 392 0 l 257
 26 0 l 257
 26 141 l 257
 236 560 l 257
 26 560 l 257
 26 700 l 257
 392 700 l 257
 392 563 l 257
 182 144 l 257
EndSplineSet
Validated: 1
EndChar

StartChar: uni017C
Encoding: 519 380 32
Width: 348
VWidth: 0
HStem: 0 118<169 169 169 322> 394 120<26 183 26 322> 577 151<153 195>
VStem: 26 296<0 116 116 116 400 514> 99 150<631 673>
LayerCount: 3
Fore
SplineSet
322 400 m 257
 169 118 l 257
 322 117 l 257
 322 0 l 257
 26 0 l 257
 26 116 l 257
 183 394 l 257
 26 394 l 257
 26 514 l 257
 322 514 l 257
 322 400 l 257
99 652 m 256
 99 694 132 728 174 728 c 256
 216 728 249 694 249 652 c 256
 249 610 216 577 174 577 c 256
 132 577 99 610 99 652 c 256
EndSplineSet
Validated: 1
EndChar

StartChar: uni0218
Encoding: 520 536 33
Width: 497
VWidth: 0
HStem: 680 20<216 216 271 324>
VStem: 41 134<479.5 525 479.5 577.5> 333 141<176.5 240.5>
LayerCount: 3
Fore
SplineSet
288.5 -216 m 257
 161.5 -216 l 257
 198.5 -64 l 257
 325.5 -64 l 257
 288.5 -216 l 257
216 700 m 257
 216 568 l 257
 195 562 175 537 175 513 c 256
 175 446 279 434 346 394 c 256
 407 358 474 311 474 209 c 256
 474 96 379 -3 271 -3 c 257
 271 127 l 257
 295 130 333 150 333 203 c 256
 333 278 224 294 164 323 c 256
 93 357 41 403 41 508 c 256
 41 647 165 699 216 700 c 257
271 700 m 257
 377 700 440 589 446 553 c 257
 316 510 l 257
 311 557 271 568 271 568 c 257
 271 700 l 257
216 -3 m 257
 107 -3 34 103 33 158 c 257
 160 203 l 257
 162 147 216 127 216 127 c 257
 216 -3 l 257
EndSplineSet
Validated: 1
EndChar

StartChar: uni0219
Encoding: 521 537 34
Width: 418
VWidth: 0
HStem: 404 113<224 226 179 223>
VStem: 26 112<353 369.5 353 422> 280 117<136.5 175.5>
LayerCount: 3
Fore
SplineSet
22 134 m 256
 21 136 l 257
 133 157 l 257
 133 154 l 258
 135 135 157 113 181 111 c 256
 184 110 l 257
 184 -5 l 257
 181 -5 l 258
 87 -5 25 70 22 134 c 256
388 376 m 258
 388 374 l 257
 276 355 l 257
 276 358 l 256
 272 399 234 404 226 404 c 258
 223 404 l 257
 224 517 l 257
 227 517 l 258
 321 517 388 440 388 376 c 258
182 406 m 257
 180 406 l 256
 140 402 138 377 138 362 c 256
 138 344 153 323 294 296 c 256
 346 286 397 243 397 160 c 256
 397 57 321 -5 228 -5 c 258
 225 -5 l 257
 225 109 l 257
 228 109 l 258
 243 110 280 120 280 153 c 256
 280 198 168 206 111 232 c 256
 62 256 26 287 26 371 c 256
 26 473 125 517 179 517 c 258
 182 517 l 257
 182 406 l 257
249.5 -218 m 257
 122.5 -218 l 257
 159.5 -66 l 257
 286.5 -66 l 257
 249.5 -218 l 257
EndSplineSet
Validated: 1
EndChar

StartChar: uni021A
Encoding: 522 538 35
Width: 485
VWidth: 0
HStem: 0 21<172 313 172 172 172 313 172 172> 562 138<26 172 26 459 313 459 313 313>
VStem: 172 141<0 562 0 562>
LayerCount: 3
Fore
SplineSet
287.5 -213 m 257
 160.5 -213 l 257
 197.5 -61 l 257
 324.5 -61 l 257
 287.5 -213 l 257
459 700 m 257xb0
 459 562 l 257
 313 562 l 257
 313 0 l 257
 172 0 l 257
 172 562 l 257
 26 562 l 257
 26 700 l 257
 459 700 l 257xb0
EndSplineSet
Validated: 1
EndChar

StartChar: uni0106
Encoding: 527 262 36
Width: 494
VWidth: 0
HStem: 685 20<157.5 229 283 329> 766 152<247.5 301.5 210.5 374.5>
VStem: 32 141<181 518> 210.5 164<766 918> 330 138<129 215 129 215>
LayerCount: 3
Fore
SplineSet
301.5 766 m 257
 210.5 766 l 257
 247.5 918 l 257
 374.5 918 l 257
 301.5 766 l 257
283 564 m 257
 283 705 l 257
 375 705 468 612 468 516 c 257
 330 480 l 257
 330 495 l 258
 330 509 330 520 325 532 c 256
 315 555 283 564 283 564 c 257
283 136 m 257
 283 136 315 143 325 166 c 256
 330 178 330 189 330 203 c 258
 330 215 l 257
 468 182 l 257
 468 76 375 -5 283 -5 c 257
 283 136 l 257
229 705 m 257
 229 564 l 257
 183 563 173 523 173 518 c 257
 173 181 l 257
 173 176 183 136 229 136 c 257
 229 -5 l 257
 86 -5 32 121 32 181 c 257
 32 518 l 257
 32 578 86 705 229 705 c 257
EndSplineSet
EndChar

StartChar: uni0107
Encoding: 528 263 37
Width: 418
VWidth: 0
HStem: -1 117<243 249 243 249 249 250> 496 20<185 191 191 191 233 239 239 275.5> 577 152<203.5 257.5 166.5 330.5>
VStem: 30 119<141 375> 166.5 164<577 729>
LayerCount: 3
Fore
SplineSet
266 383 m 257
 261 397 239 399 239 399 c 258
 238 399 237 399 236 399 c 258
 233 399 l 257
 233 516 l 257
 239 516 l 258
 312 516 381 448 381 376 c 258
 381 372 l 257
 270 330 l 257
 270 360 l 258
 270 370 270 375 266 383 c 257
243 -1 m 257
 243 116 l 257
 249 116 l 257
 251 116 272 119 277 132 c 257
 281 140 281 146 281 156 c 258
 281 186 l 257
 392 144 l 257
 392 140 l 258
 392 68 323 -1 250 -1 c 258
 243 -1 l 257
30 377 m 257
 31 421 80 516 185 516 c 258
 191 516 l 257
 191 400 l 257
 185 400 l 258
 154 400 149 377 149 375 c 258
 149 141 l 258
 149 139 154 115 194 115 c 256
 199 114 l 257
 199 0 l 257
 194 0 l 258
 79 0 30 97 30 141 c 258
 30 377 l 257
257.5 577 m 257
 166.5 577 l 257
 203.5 729 l 257
 330.5 729 l 257
 257.5 577 l 257
EndSplineSet
EndChar

StartChar: uni010C
Encoding: 529 268 38
Width: 494
VWidth: 0
Flags: M
HStem: 685 20<157.5 229 283 329> 766 152<222 228 283 288 222 222>
VStem: 32 141<181 518> 147 218<918 918> 330 138<129 215 129 215>
LayerCount: 3
Fore
SplineSet
147 918 m 257
 228 918 l 257
 255 861 l 257
 283 918 l 257
 365 918 l 257
 288 766 l 257
 222 766 l 257
 147 918 l 257
283 564 m 257
 283 705 l 257
 375 705 468 612 468 516 c 257
 330 480 l 257
 330 495 l 258
 330 509 330 520 325 532 c 256
 315 555 283 564 283 564 c 257
283 136 m 257
 283 136 315 143 325 166 c 256
 330 178 330 189 330 203 c 258
 330 215 l 257
 468 182 l 257
 468 76 375 -5 283 -5 c 257
 283 136 l 257
229 705 m 257
 229 564 l 257
 183 563 173 523 173 518 c 257
 173 181 l 257
 173 176 183 136 229 136 c 257
 229 -5 l 257
 86 -5 32 121 32 181 c 257
 32 518 l 257
 32 578 86 705 229 705 c 257
EndSplineSet
EndChar

StartChar: uni010D
Encoding: 530 269 39
Width: 418
VWidth: 0
HStem: -1 117<243 249 243 249 249 250> 496 20<185 191 191 191 233 239 239 275.5> 577 152<178 184 239 244 178 178>
VStem: 30 119<141 375> 103 218<729 729>
LayerCount: 3
Fore
SplineSet
103 729 m 257
 184 729 l 257
 211 672 l 257
 239 729 l 257
 321 729 l 257
 244 577 l 257
 178 577 l 257
 103 729 l 257
266 383 m 257
 261 397 239 399 239 399 c 258
 238 399 237 399 236 399 c 258
 233 399 l 257
 233 516 l 257
 239 516 l 258
 312 516 381 448 381 376 c 258
 381 372 l 257
 270 330 l 257
 270 360 l 258
 270 370 270 375 266 383 c 257
243 -1 m 257
 243 116 l 257
 249 116 l 257
 251 116 272 119 277 132 c 257
 281 140 281 146 281 156 c 258
 281 186 l 257
 392 144 l 257
 392 140 l 258
 392 68 323 -1 250 -1 c 258
 243 -1 l 257
30 377 m 257
 31 421 80 516 185 516 c 258
 191 516 l 257
 191 400 l 257
 185 400 l 258
 154 400 149 377 149 375 c 258
 149 141 l 258
 149 139 154 115 194 115 c 256
 199 114 l 257
 199 0 l 257
 194 0 l 258
 79 0 30 97 30 141 c 258
 30 377 l 257
EndSplineSet
EndChar

StartChar: uni010E
Encoding: 531 270 40
Width: 452
VWidth: 0
HStem: 0 21<32 32 32 173 32 32 32 173 227 257 227 257> 680 20<32 173 173 173 227 298.5> 766 152<194 200 255 260 194 194>
VStem: 32 141<0 700 0 700> 119 218<918 918> 283 141<197 503>
LayerCount: 3
Fore
SplineSet
119 918 m 257
 200 918 l 257
 227 861 l 257
 255 918 l 257
 337 918 l 257
 260 766 l 257
 194 766 l 257
 119 918 l 257
227 0 m 257xb8
 227 141 l 257
 233 141 282 149 283 197 c 258
 283 503 l 257
 283 508 275 558 227 559 c 257
 227 700 l 257
 370 700 424 566 424 503 c 257
 424 197 l 257
 424 50 287 0 227 0 c 257xb8
32 0 m 257
 32 700 l 257
 173 700 l 257
 173 0 l 257
 32 0 l 257
EndSplineSet
EndChar

StartChar: uni0112
Encoding: 533 274 41
Width: 422
VWidth: 0
HStem: 0 141<173 396 173 396> 277 141<173 302 173 302> 560 140<173 396 173 173> 766 107
VStem: 32 141<141 277 418 560> 32 364<0 141 560 700>
LayerCount: 3
Fore
SplineSet
439 766 m 257
 -11 766 l 257
 -11 873 l 257
 439 873 l 257
 439 766 l 257
396 141 m 257xf0
 396 0 l 257
 32 0 l 257
 32 700 l 257
 396 700 l 257
 396 560 l 257xf0
 173 560 l 257
 173 418 l 257
 302 418 l 257
 302 277 l 257
 173 277 l 257
 173 141 l 257xe8
 396 141 l 257xf0
EndSplineSet
EndChar

StartChar: uni0113
Encoding: 534 275 42
Width: 424
VWidth: 0
HStem: 0 111<131 242 183 242 236 242 236 242> 208 116<148 283 148 397 148 283> 402 114<236 240 182 236> 577 107
VStem: 26 122<141 208 324 369> 283 114<324 369 369 378>
LayerCount: 3
Fore
SplineSet
437 577 m 257
 -13 577 l 257
 -13 684 l 257
 437 684 l 257
 437 577 l 257
240 402 m 258
 236 402 l 257
 236 516 l 257
 242 516 l 258
 312 516 397 450 397 378 c 258
 397 208 l 257
 148 208 l 257
 148 141 l 258
 148 138 155 109 183 108 c 258
 188 108 l 257
 188 0 l 257
 183 0 l 258
 79 0 26 96 26 141 c 258
 26 377 l 257
 27 422 80 516 182 516 c 258
 187 516 l 257
 187 400 l 257
 184 400 l 258
 155 400 148 380 148 369 c 258
 148 324 l 257
 283 324 l 257
 283 369 l 258
 283 396 260 402 240 402 c 258
236 0 m 257
 236 111 l 257
 242 111 l 258
 273 113 294 132 298 153 c 258
 299 157 l 257
 398 120 l 257
 397 118 l 256
 382 54 312 0 242 0 c 258
 236 0 l 257
EndSplineSet
EndChar

StartChar: uni0116
Encoding: 535 278 43
Width: 422
VWidth: 0
HStem: 0 141<173 396 173 396> 277 141<173 302 173 302> 560 140<173 396 173 173> 766 151<193 235>
VStem: 32 141<141 277 418 560> 32 364<0 141 560 700> 139 150<820 862>
LayerCount: 3
Fore
SplineSet
139 841 m 256
 139 883 172 917 214 917 c 256
 256 917 289 883 289 841 c 256
 289 799 256 766 214 766 c 256
 172 766 139 799 139 841 c 256
396 141 m 257xf0
 396 0 l 257
 32 0 l 257
 32 700 l 257
 396 700 l 257
 396 560 l 257xf0
 173 560 l 257
 173 418 l 257
 302 418 l 257
 302 277 l 257
 173 277 l 257
 173 141 l 257xe8
 396 141 l 257xf0
EndSplineSet
EndChar

StartChar: uni0117
Encoding: 536 279 44
Width: 424
VWidth: 0
HStem: 0 111<131 242 183 242 236 242 236 242> 208 116<148 283 148 397 148 283> 402 114<236 240 182 236> 577 151<191 233>
VStem: 26 122<141 208 324 369> 137 150<631 673> 283 114<324 369 369 378>
LayerCount: 3
Fore
SplineSet
240 402 m 258
 236 402 l 257
 236 516 l 257
 242 516 l 258
 312 516 397 450 397 378 c 258
 397 208 l 257
 148 208 l 257
 148 141 l 258
 148 138 155 109 183 108 c 258
 188 108 l 257
 188 0 l 257
 183 0 l 258
 79 0 26 96 26 141 c 258
 26 377 l 257
 27 422 80 516 182 516 c 258
 187 516 l 257
 187 400 l 257
 184 400 l 258
 155 400 148 380 148 369 c 258
 148 324 l 257
 283 324 l 257
 283 369 l 258
 283 396 260 402 240 402 c 258
236 0 m 257
 236 111 l 257
 242 111 l 258
 273 113 294 132 298 153 c 258
 299 157 l 257
 398 120 l 257
 397 118 l 256
 382 54 312 0 242 0 c 258
 236 0 l 257
137 652 m 256
 137 694 170 728 212 728 c 256
 254 728 287 694 287 652 c 256
 287 610 254 577 212 577 c 256
 170 577 137 610 137 652 c 256
EndSplineSet
EndChar

StartChar: uni011A
Encoding: 537 282 45
Width: 422
VWidth: 0
HStem: 0 141<173 396 173 396> 277 141<173 302 173 302> 560 140<173 396 173 173> 766 152<180 186 241 246 180 180>
VStem: 32 141<141 277 418 560> 32 364<0 141 560 700> 105 218<918 918>
LayerCount: 3
Fore
SplineSet
105 918 m 257
 186 918 l 257
 213 861 l 257
 241 918 l 257
 323 918 l 257
 246 766 l 257
 180 766 l 257
 105 918 l 257
396 141 m 257xf0
 396 0 l 257
 32 0 l 257
 32 700 l 257
 396 700 l 257
 396 560 l 257xf0
 173 560 l 257
 173 418 l 257
 302 418 l 257
 302 277 l 257
 173 277 l 257
 173 141 l 257xe8
 396 141 l 257xf0
EndSplineSet
EndChar

StartChar: uni011B
Encoding: 538 283 46
Width: 424
VWidth: 0
HStem: 0 111<131 242 183 242 236 242 236 242> 208 116<148 283 148 397 148 283> 402 114<236 240 182 236> 577 152<178 184 239 244 178 178>
VStem: 26 122<141 208 324 369> 103 218<729 729> 283 114<324 369 369 378>
LayerCount: 3
Fore
SplineSet
240 402 m 258
 236 402 l 257
 236 516 l 257
 242 516 l 258
 312 516 397 450 397 378 c 258
 397 208 l 257
 148 208 l 257
 148 141 l 258
 148 138 155 109 183 108 c 258
 188 108 l 257
 188 0 l 257
 183 0 l 258
 79 0 26 96 26 141 c 258
 26 377 l 257
 27 422 80 516 182 516 c 258
 187 516 l 257
 187 400 l 257
 184 400 l 258
 155 400 148 380 148 369 c 258
 148 324 l 257
 283 324 l 257
 283 369 l 258
 283 396 260 402 240 402 c 258
236 0 m 257
 236 111 l 257
 242 111 l 258
 273 113 294 132 298 153 c 258
 299 157 l 257
 398 120 l 257
 397 118 l 256
 382 54 312 0 242 0 c 258
 236 0 l 257
103 729 m 257
 184 729 l 257
 211 672 l 257
 239 729 l 257
 321 729 l 257
 244 577 l 257
 178 577 l 257
 103 729 l 257
EndSplineSet
EndChar

StartChar: uni011E
Encoding: 539 286 47
Width: 493
VWidth: 0
HStem: -5 141<219.5 222 219.5 222 219.5 276> 685 20<156 222 276 322.5> 766 64<240 258 240 275.5>
VStem: 26 141<192 508 192 524 192 524> 153 64<853 862 853 862> 276 185<135.5 136 136 136 223 353 135.5 353> 281 64<853 862> 319 142<190 223 223 223>
LayerCount: 3
Fore
SplineSet
345 862 m 257
 345 809 302 766 249 766 c 256
 196 766 153 809 153 862 c 257
 217 862 l 257
 217 844 231 830 249 830 c 256
 267 830 281 844 281 862 c 257
 345 862 l 257
276 564 m 257xf0
 276 705 l 257xf0
 369 705 461 612 461 516 c 257xe8
 323 465 l 257
 323 495 l 258
 323 509 323 520 318 532 c 256
 308 555 276 564 276 564 c 257xf0
461 353 m 257
 461 176 l 258
 461 95 358 -4 276 -5 c 257
 276 136 l 257xf0
 282 136 319 155 319 190 c 258
 319 223 l 257xe8
 276 223 l 257
 276 353 l 257
 461 353 l 257
222 -5 m 257
 162 -5 26 48 26 192 c 257
 26 524 l 257
 34 589 90 705 222 705 c 257
 222 564 l 257
 176 563 167 513 167 508 c 257
 167 192 l 258
 168 146 217 136 222 136 c 257
 222 -5 l 257
EndSplineSet
EndChar

StartChar: uni011F
Encoding: 540 287 48
Width: 415
VWidth: 0
HStem: -181 112<54 234 54 236 26 234> -1 113<136.5 192 189 192 189 234 189 231> 403 113<173 192 189 192 231 234 189 231> 577 64<280 298 280 315.5>
VStem: 35 115<139 140 140 375> 193 64<664 673 664 673> 231 158<-1 109 109 109 403 516> 272 117<-40 3 3 3 139 374 374 375.5 511 516> 321 64<664 673>
LayerCount: 3
Fore
SplineSet
236 -181 m 257xf4
 26 -181 l 257
 54 -69 l 257
 234 -69 l 257
 265 -68 272 -43 272 -40 c 258
 272 3 l 257xf4
 260 0 248 -1 234 -1 c 258
 231 -1 l 257
 231 109 l 257xf8
 234 109 l 258
 265 110 272 136 272 139 c 258
 272 374 l 258xf4
 272 377 265 403 234 403 c 258
 231 403 l 257
 231 516 l 257xf8
 234 516 l 258
 247 516 261 514 272 511 c 257
 272 516 l 257xf4
 389 516 l 257xf8
 389 -40 l 258
 389 -83 339 -180 236 -181 c 257xf4
189 516 m 258
 192 516 l 257
 192 403 l 257
 189 403 l 258
 157 403 150 378 150 375 c 258
 150 140 l 258
 150 137 158 112 189 112 c 258
 192 112 l 257
 192 -1 l 257
 189 -1 l 258
 84 -1 35 96 35 139 c 258
 35 378 l 257
 36 422 85 516 189 516 c 258
385 673 m 257
 385 620 342 577 289 577 c 256
 236 577 193 620 193 673 c 257
 257 673 l 257
 257 655 271 641 289 641 c 256
 307 641 321 655 321 673 c 257
 385 673 l 257
EndSplineSet
EndChar

StartChar: uni0122
Encoding: 541 290 49
Width: 493
VWidth: 0
HStem: -5 141<219.5 222 219.5 222 219.5 276> 685 20<156 222 276 322.5>
VStem: 26 141<192 508 192 524 192 524> 276 185<135.5 136 136 136 223 353 135.5 353> 319 142<190 223 223 223>
LayerCount: 3
Fore
SplineSet
294 -218 m 257
 167 -218 l 257
 204 -66 l 257
 331 -66 l 257
 294 -218 l 257
276 564 m 257xf0
 276 705 l 257xf0
 369 705 461 612 461 516 c 257xe8
 323 465 l 257
 323 495 l 258
 323 509 323 520 318 532 c 256
 308 555 276 564 276 564 c 257xf0
461 353 m 257
 461 176 l 258
 461 95 358 -4 276 -5 c 257
 276 136 l 257xf0
 282 136 319 155 319 190 c 258
 319 223 l 257xe8
 276 223 l 257
 276 353 l 257
 461 353 l 257
222 -5 m 257
 162 -5 26 48 26 192 c 257
 26 524 l 257
 34 589 90 705 222 705 c 257
 222 564 l 257
 176 563 167 513 167 508 c 257
 167 192 l 258
 168 146 217 136 222 136 c 257
 222 -5 l 257
EndSplineSet
EndChar

StartChar: uni012A
Encoding: 542 298 50
Width: 209
VWidth: 0
HStem: 0 21<34 175 34 34 34 175 34 34> 680 20<34 175 175 175> 766 107
VStem: 34 141<0 700 0 700>
LayerCount: 3
Fore
SplineSet
329.5 766 m 257
 -120.5 766 l 257
 -120.5 873 l 257
 329.5 873 l 257
 329.5 766 l 257
34 700 m 257xb0
 175 700 l 257
 175 0 l 257
 34 0 l 257
 34 700 l 257xb0
EndSplineSet
EndChar

StartChar: uni012B
Encoding: 543 299 51
Width: 174
VWidth: 0
HStem: 577 107
LayerCount: 3
Back
SplineSet
312 577 m 257
 -138 577 l 257
 -138 684 l 257
 312 684 l 257
 312 577 l 257
148 0 m 257
 26 0 l 257
 26 516 l 257
 148 516 l 257
 148 0 l 257
EndSplineSet
Fore
SplineSet
312 577 m 257
 -138 577 l 257
 -138 684 l 257
 312 684 l 257
 312 577 l 257
148 0 m 257
 26 0 l 257
 26 516 l 257
 148 516 l 257
 148 0 l 257
EndSplineSet
Colour: ffff00
EndChar

StartChar: uni0136
Encoding: 544 310 52
Width: 475
VWidth: 0
HStem: 0 21<26 167 26 26 26 167 26 26 319 457 319 319 319 457 319 319> 680 20<26 167 167 167 314 453 453 453>
VStem: 26 141<0 700 0 700>
LayerCount: 3
Fore
SplineSet
286.5 -213 m 257
 159.5 -213 l 257
 196.5 -61 l 257
 323.5 -61 l 257
 286.5 -213 l 257
314 700 m 257xb0
 453 700 l 257
 347 341 l 257
 457 0 l 257
 319 0 l 257
 207 341 l 257
 314 700 l 257xb0
26 700 m 257
 167 700 l 257
 167 0 l 257
 26 0 l 257
 26 700 l 257
EndSplineSet
EndChar

StartChar: uni0137
Encoding: 545 311 53
Width: 452
VWidth: 0
HStem: 0 21<30 155 30 30 30 155 30 30 296 428 296 296 296 428 296 296> 494 20<295 428 428 428> 678 20<30 155 155 155>
VStem: 30 125<0 698>
LayerCount: 3
Fore
SplineSet
155 0 m 257xb8
 30 0 l 257
 30 698 l 257
 155 698 l 257
 155 0 l 257xb8
296 0 m 257
 183 257 l 257
 295 514 l 257
 428 514 l 257
 313 257 l 257
 428 0 l 257
 296 0 l 257
274 -213 m 257
 147 -213 l 257
 184 -61 l 257
 311 -61 l 257
 274 -213 l 257
EndSplineSet
EndChar

StartChar: uni0139
Encoding: 546 313 54
Width: 428
VWidth: 0
HStem: 0 139<167 402 167 402> 680 20<26 167 167 167> 766 152<87.5 141.5 50.5 214.5>
VStem: 26 141<139 700 139 700 139 700> 50.5 164<766 918>
LayerCount: 3
Fore
SplineSet
141.5 766 m 257
 50.5 766 l 257
 87.5 918 l 257
 214.5 918 l 257
 141.5 766 l 257
402 139 m 257
 402 0 l 257
 26 0 l 257
 26 700 l 257
 167 700 l 257
 167 139 l 257
 402 139 l 257
EndSplineSet
EndChar

StartChar: uni013A
Encoding: 547 314 55
Width: 184
VWidth: 0
HStem: 0 21<30 161 30 30 30 161 30 30> 678 20<30 161 161 161> 759 152<86.5 140.5 49.5 213.5>
VStem: 30 131<0 698> 49.5 164<759 911>
LayerCount: 3
Fore
SplineSet
161 0 m 257xb0
 30 0 l 257
 30 698 l 257
 161 698 l 257
 161 0 l 257xb0
140.5 759 m 257
 49.5 759 l 257
 86.5 911 l 257
 213.5 911 l 257
 140.5 759 l 257
EndSplineSet
EndChar

StartChar: uni013B
Encoding: 548 315 56
Width: 428
VWidth: 0
HStem: 0 139<167 402 167 402> 680 20<26 167 167 167>
VStem: 26 141<139 700 139 700 139 700>
LayerCount: 3
Fore
SplineSet
259 -213 m 257
 132 -213 l 257
 169 -61 l 257
 296 -61 l 257
 259 -213 l 257
402 139 m 257
 402 0 l 257
 26 0 l 257
 26 700 l 257
 167 700 l 257
 167 139 l 257
 402 139 l 257
EndSplineSet
EndChar

StartChar: uni013C
Encoding: 549 316 57
Width: 184
VWidth: 0
HStem: 0 21<30 161 30 30 30 161 30 30> 678 20<30 161 161 161>
VStem: 30 131<0 698>
LayerCount: 3
Fore
SplineSet
161 0 m 257xb0
 30 0 l 257
 30 698 l 257
 161 698 l 257
 161 0 l 257xb0
140.5 -213 m 257
 13.5 -213 l 257
 50.5 -61 l 257
 177.5 -61 l 257
 140.5 -213 l 257
EndSplineSet
EndChar

StartChar: uni0130
Encoding: 557 304 58
Width: 209
VWidth: 0
HStem: 0 21<34 175 34 34 34 175 34 34> 680 20<34 175 175 175> 766 151<83.5 125.5>
VStem: 29.5 150<820 862> 34 141<0 700 0 700>
LayerCount: 3
Fore
SplineSet
29.5 841 m 256
 29.5 883 62.5 917 104.5 917 c 256
 146.5 917 179.5 883 179.5 841 c 256
 179.5 799 146.5 766 104.5 766 c 256
 62.5 766 29.5 799 29.5 841 c 256
34 700 m 257xb0
 175 700 l 257
 175 0 l 257
 34 0 l 257
 34 700 l 257xb0
EndSplineSet
Colour: ffff00
EndChar

StartChar: uni021B
Encoding: 561 539 59
Width: 324
VWidth: 0
HStem: 0 125<244 271 244 298 243 271> 398 118<26 89 26 89 211 271> 680 20<89 211 211 211>
VStem: 89 122<168 398 516 700>
LayerCount: 3
Fore
SplineSet
244 125 m 258
 271 125 l 257
 298 0 l 257
 243 0 l 258
 121 1 89 66 89 168 c 258
 89 398 l 257
 26 398 l 257
 26 516 l 257
 89 516 l 257
 89 700 l 257
 211 700 l 257
 211 516 l 257
 271 516 l 257
 271 398 l 257
 211 398 l 257
 211 159 l 258
 211 145 216 126 244 125 c 258
315.5 -213 m 257
 188.5 -213 l 257
 225.5 -61 l 257
 352.5 -61 l 257
 315.5 -213 l 257
EndSplineSet
Colour: ffff00
EndChar

StartChar: uni2260
Encoding: 563 8800 60
Width: 418
VWidth: 0
Flags: H
HStem: 131 127<50 368 50 368> 325 127<50 368 50 368>
VStem: 50 318<131 258 131 258 325 452 131 452>
LayerCount: 3
Fore
SplineSet
368 258 m 257
 368 131 l 257
 50 131 l 257
 50 258 l 257
 368 258 l 257
368 452 m 257
 368 325 l 257
 50 325 l 257
 50 452 l 257
 368 452 l 257
EndSplineSet
Colour: ffff00
EndChar

StartChar: tml_Oo
Encoding: 13 2963 61
Width: 917
VWidth: 0
Flags: HW
LayerCount: 3
Back
SplineSet
271.00390625 1 m 1
 271.00390625 126.399414062 l 0
 305.403320312 126.399414062 325.064453125 149.603515625 324.48828125 186 c 0
 323.940429688 220.572265625 311.611328125 243.403320312 271.00390625 243.399414062 c 1
 271.00390625 369 l 0
 372.3125 369.303710938 449.84765625 287.500976562 450.0078125 224.901367188 c 0
 450.0078125 151.903320312 l 0
 449.908203125 87.91015625 372.4375 0.8720703125 271.00390625 1 c 1
215.211914062 369 m 1
 215.211914062 243.399414062 l 0
 185.611328125 243.399414062 166.8125 222.377929688 166.8125 186 c 0
 166.8125 148.600585938 184.611328125 126.399414062 215.211914062 126.399414062 c 1
 215.211914062 1 l 0
 110.90234375 1 39.572265625 98.0029296875 40.00390625 152.599609375 c 0
 40.00390625 226.599609375 l 0
 39.2041015625 333 164.211914062 369 215.211914062 369 c 1
436.0078125 641 m 1
 436.0078125 516 l 1
 249.10546875 516 183.211914062 405.120117188 183.211914062 337 c 0
 183.211914062 278.819335938 45.7626953125 263.567382812 40.00390625 233 c 1
 40.00390625 288 l 1
 40.00390625 405 124.0078125 641 436.0078125 641 c 0
 436.0078125 641 l 1
495.0078125 253.220703125 m 1
 619.0078125 146 l 0
 619.0078125 24.220703125 l 0
 619.0078125 -25.779296875 693.427734375 -38.3193359375 769.59765625 -38.3193359375 c 0
 769.59765625 -163.790039062 l 1
 603.0078125 -163.790039062 495.059570312 -96.7001953125 495.0078125 -3.58984375 c 0
 495.0078125 253.220703125 l 1
491.0078125 641 m 1
 763.317382812 640.84765625 877.157226562 434.399414062 877.157226562 336.580078125 c 0
 877.157226562 140.169921875 l 2
 877.157226562 -46 495.0078125 -45 495.0078125 141 c 2
 495.0078125 329 l 0
 621.0078125 329 l 1
 621.0078125 172 l 1
 621.0078125 112 750.0078125 111 750.77734375 172 c 0
 750.436523438 336.330078125 l 0
 750.360351562 398.225585938 656.427734375 516.255859375 491.0078125 516 c 1
 491.0078125 641 l 1
594.00390625 -193 m 1
 492.00390625 -280 463.388671875 -304.25 377.00390625 -304.25 c 0
 266.00390625 -304.25 222.00390625 -220 222.00390625 -153 c 0
 222.00390625 -100.239257812 254.545898438 -27.240234375 331.00390625 -7 c 0
 400.639648438 11.43359375 471.00390625 -22 489.00390625 -37 c 1
 405.00390625 -130 l 1
 405.00390625 -105 347.00390625 -101.944335938 347.00390625 -145 c 0
 347.00390625 -189 434.00390625 -202 488.00390625 -113 c 1
 594.00390625 -193 l 1
EndSplineSet
Fore
SplineSet
271.00390625 1 m 1
 271.00390625 126.399414062 l 0
 305.403320312 126.399414062 325.064453125 149.603515625 324.48828125 186 c 0
 323.940429688 220.572265625 311.611328125 243.403320312 271.00390625 243.399414062 c 1
 271.00390625 369 l 0
 372.3125 369.303710938 449.84765625 287.500976562 450.0078125 224.901367188 c 0
 450.0078125 151.903320312 l 0
 449.908203125 87.91015625 372.4375 0.8720703125 271.00390625 1 c 1
215.211914062 369 m 1
 215.211914062 243.399414062 l 0
 185.611328125 243.399414062 166.8125 222.377929688 166.8125 186 c 0
 166.8125 148.600585938 184.611328125 126.399414062 215.211914062 126.399414062 c 1
 215.211914062 1 l 0
 110.90234375 1 39.572265625 98.0029296875 40.00390625 152.599609375 c 0
 40.00390625 226.599609375 l 0
 39.2041015625 333 164.211914062 369 215.211914062 369 c 1
436.0078125 641 m 1
 436.0078125 516 l 1
 249.10546875 516 183.211914062 405.120117188 183.211914062 337 c 0
 183.211914062 278.819335938 45.7626953125 263.567382812 40.00390625 233 c 1
 40.00390625 288 l 1
 40.00390625 405 124.0078125 641 436.0078125 641 c 0
 436.0078125 641 l 1
495.0078125 253.220703125 m 1
 619.0078125 146 l 0
 619.0078125 24.220703125 l 0
 619.0078125 -25.779296875 693.427734375 -38.3193359375 769.59765625 -38.3193359375 c 0
 769.59765625 -163.790039062 l 1
 603.0078125 -163.790039062 495.059570312 -96.7001953125 495.0078125 -3.58984375 c 0
 495.0078125 253.220703125 l 1
491.0078125 641 m 1
 763.317382812 640.84765625 877.157226562 434.399414062 877.157226562 336.580078125 c 0
 877.157226562 140.169921875 l 2
 877.157226562 -46 495.0078125 -45 495.0078125 141 c 2
 495.0078125 329 l 0
 621.0078125 329 l 1
 621.0078125 172 l 1
 621.0078125 112 750.0078125 111 750.77734375 172 c 0
 750.436523438 336.330078125 l 0
 750.360351562 398.225585938 656.427734375 516.255859375 491.0078125 516 c 1
 491.0078125 641 l 1
594.00390625 -193 m 1
 492.00390625 -280 463.388671875 -304.25 377.00390625 -304.25 c 0
 266.00390625 -304.25 222.00390625 -220 222.00390625 -153 c 0
 222.00390625 -100.239257812 254.545898438 -27.240234375 331.00390625 -7 c 0
 400.639648438 11.43359375 471.00390625 -22 489.00390625 -37 c 1
 405.00390625 -130 l 1
 405.00390625 -105 347.00390625 -101.944335938 347.00390625 -145 c 0
 347.00390625 -189 434.00390625 -202 488.00390625 -113 c 1
 594.00390625 -193 l 1
EndSplineSet
EndChar

StartChar: tml_Ya
Encoding: 27 2991 62
Width: 742
VWidth: 0
Flags: HW
HStem: 0 121<168.088 207 248 309.759 452.372 494 536 576.213>
VStem: 41 124<123.142 519> 327 124<134.603 519> 536 165<4 121> 577 124<122.893 519>
LayerCount: 3
Back
SplineSet
577 148 m 257xe8
 577 610 l 257
 702 610 l 257
 702 1 l 1
 542 1 l 257
 542 122 l 257xf0
 548 122 l 258
 570 122 577 135 577 148 c 257xe8
165 148 m 257
 165 137 170 122 194 122 c 258
 200 122 l 257
 200 1 l 257
 194 1 l 258
 95 1 40 98 40 143 c 258
 40 610 l 257
 165 610 l 257
 165 148 l 257
452 610 m 257
 452 148 l 258
 452 137 458 122 481 122 c 258
 487 122 l 257
 487 1 l 257
 327 1 l 1
 322 34 l 257
 317 12 295 1 261 1 c 258
 255 1 l 257
 255 122 l 257
 261 122 l 258
 284 122 327 123 327 148 c 257
 327 610 l 257
 452 610 l 257
EndSplineSet
Fore
SplineSet
663 69 m 257xe8
 663 610 l 257
 702 610 l 257
 702 1 l 1
 542 1 l 257
 542 41 l 257xf0
 634 41 l 258
 660 41 663 48 663 69 c 257xe8
80 152 m 257
 80 88 150 41 194 41 c 258
 200 41 l 257
 200 1 l 257
 194 1 l 258
 95 1 40 98 40 143 c 258
 40 610 l 257
 80 610 l 257
 80 152 l 257
406 610 m 257
 406 82 l 258
 406 51 414 41 437 41 c 258
 487 41 l 257
 487 1 l 257
 392 1 l 1
 382 19 l 257
 362 -1 357 1 323 1 c 258
 255 1 l 257
 255 41 l 257
 327 41 l 258
 353 41 369 55 369 80 c 257
 369 610 l 257
 406 610 l 257
EndSplineSet
EndChar

StartChar: tml_O
Encoding: 12 2962 63
Width: 917
VWidth: 0
Flags: HMW
LayerCount: 3
Back
SplineSet
271 1 m 1
 271 126.399414062 l 0
 305.399414062 126.399414062 325.060546875 149.603515625 324.484375 186 c 0
 323.936523438 220.572265625 311.607421875 243.403320312 271 243.399414062 c 1
 271 369 l 0
 372.30859375 369.303710938 449.84375 287.500976562 450.00390625 224.901367188 c 0
 450.00390625 151.903320312 l 0
 449.904296875 87.91015625 372.43359375 0.8720703125 271 1 c 1
215.208007812 369 m 1
 215.208007812 243.399414062 l 0
 185.607421875 243.399414062 166.80859375 222.377929688 166.80859375 186 c 0
 166.80859375 148.600585938 184.607421875 126.399414062 215.208007812 126.399414062 c 1
 215.208007812 1 l 0
 110.8984375 1 39.568359375 98.0029296875 40 152.599609375 c 0
 40 226.599609375 l 0
 39.2001953125 333 164.208007812 369 215.208007812 369 c 1
436.00390625 641 m 1
 436.00390625 516 l 1
 249.1015625 516 183.208007812 405.120117188 183.208007812 337 c 0
 183.208007812 278.819335938 45.7587890625 263.567382812 40 233 c 1
 40 288 l 1
 40 405 124.00390625 641 436.00390625 641 c 0
 436.00390625 641 l 1
495.00390625 253.220703125 m 1
 619.00390625 146 l 0
 619.00390625 24.220703125 l 0
 619.00390625 -25.779296875 693.423828125 -38.3193359375 769.59375 -38.3193359375 c 0
 769.59375 -163.790039062 l 1
 603.00390625 -163.790039062 495.055664062 -96.7001953125 495.00390625 -3.58984375 c 0
 495.00390625 253.220703125 l 1
491.00390625 641 m 1
 763.313476562 640.84765625 877.153320312 434.399414062 877.153320312 336.580078125 c 0
 877.153320312 140.169921875 l 2
 877.153320312 -46 495.00390625 -45 495.00390625 141 c 2
 495.00390625 329 l 0
 621.00390625 329 l 1
 621.00390625 172 l 1
 621.00390625 112 750.00390625 111 750.7734375 172 c 0
 750.432617188 336.330078125 l 0
 750.356445312 398.225585938 656.423828125 516.255859375 491.00390625 516 c 1
 491.00390625 641 l 1
271 1 m 1
 271 126.399414062 l 0
 305.399414062 126.399414062 325.060546875 149.603515625 324.484375 186 c 0
 323.936523438 220.572265625 311.607421875 243.403320312 271 243.399414062 c 1
 271 369 l 0
 372.30859375 369.303710938 449.84375 287.500976562 450.00390625 224.901367188 c 0
 450.00390625 151.903320312 l 0
 449.904296875 87.91015625 372.43359375 0.8720703125 271 1 c 1
215.208007812 369 m 1
 215.208007812 243.399414062 l 0
 185.607421875 243.399414062 166.80859375 222.377929688 166.80859375 186 c 0
 166.80859375 148.600585938 184.607421875 126.399414062 215.208007812 126.399414062 c 1
 215.208007812 1 l 0
 110.8984375 1 39.568359375 98.0029296875 40 152.599609375 c 0
 40 226.599609375 l 0
 39.2001953125 333 164.208007812 369 215.208007812 369 c 1
436.00390625 641 m 1
 436.00390625 516 l 1
 249.1015625 516 183.208007812 405.120117188 183.208007812 337 c 0
 183.208007812 278.819335938 45.7587890625 263.567382812 40 233 c 1
 40 288 l 1
 40 405 124.00390625 641 436.00390625 641 c 0
 436.00390625 641 l 1
581.00390625 -188 m 1
 513.00390625 -333 249.84375 -334.58984375 193.9140625 -156.26953125 c 1
 314.993164062 -124.809570312 l 1
 343.243164062 -183.5703125 440.423828125 -188.08984375 473.193359375 -124.809570312 c 0
 581.00390625 -188 l 1
495.00390625 253.220703125 m 1
 619.00390625 146 l 0
 619.00390625 24.220703125 l 0
 619.00390625 -25.779296875 693.423828125 -38.3193359375 769.59375 -38.3193359375 c 0
 769.59375 -163.790039062 l 1
 603.00390625 -163.790039062 495.055664062 -96.7001953125 495.00390625 -3.58984375 c 0
 495.00390625 253.220703125 l 1
491.00390625 641 m 1
 763.313476562 640.84765625 877.153320312 434.399414062 877.153320312 336.580078125 c 0
 877.153320312 140.169921875 l 2
 877.153320312 -46 495.00390625 -45 495.00390625 141 c 2
 495.00390625 329 l 0
 621.00390625 329 l 1
 621.00390625 172 l 1
 621.00390625 112 750.00390625 111 750.7734375 172 c 0
 750.432617188 336.330078125 l 0
 750.356445312 398.225585938 656.423828125 516.255859375 491.00390625 516 c 1
 491.00390625 641 l 1
EndSplineSet
Fore
SplineSet
271 1 m 1
 271 126.399414062 l 0
 305.399414062 126.399414062 325.060546875 149.603515625 324.484375 186 c 0
 323.936523438 220.572265625 311.607421875 243.403320312 271 243.399414062 c 1
 271 369 l 0
 372.30859375 369.303710938 449.84375 287.500976562 450.00390625 224.901367188 c 0
 450.00390625 151.903320312 l 0
 449.904296875 87.91015625 372.43359375 0.8720703125 271 1 c 1
215.208007812 369 m 1
 215.208007812 243.399414062 l 0
 185.607421875 243.399414062 166.80859375 222.377929688 166.80859375 186 c 0
 166.80859375 148.600585938 184.607421875 126.399414062 215.208007812 126.399414062 c 1
 215.208007812 1 l 0
 110.8984375 1 39.568359375 98.0029296875 40 152.599609375 c 0
 40 226.599609375 l 0
 39.2001953125 333 164.208007812 369 215.208007812 369 c 1
436.00390625 641 m 1
 436.00390625 516 l 1
 249.1015625 516 183.208007812 405.120117188 183.208007812 337 c 0
 183.208007812 278.819335938 45.7587890625 263.567382812 40 233 c 1
 40 288 l 1
 40 405 124.00390625 641 436.00390625 641 c 0
 436.00390625 641 l 1
495.00390625 253.220703125 m 1
 619.00390625 146 l 0
 619.00390625 24.220703125 l 0
 619.00390625 -25.779296875 693.423828125 -38.3193359375 769.59375 -38.3193359375 c 0
 769.59375 -163.790039062 l 1
 603.00390625 -163.790039062 495.055664062 -96.7001953125 495.00390625 -3.58984375 c 0
 495.00390625 253.220703125 l 1
491.00390625 641 m 1
 763.313476562 640.84765625 877.153320312 434.399414062 877.153320312 336.580078125 c 0
 877.153320312 140.169921875 l 2
 877.153320312 -46 495.00390625 -45 495.00390625 141 c 2
 495.00390625 329 l 0
 621.00390625 329 l 1
 621.00390625 172 l 1
 621.00390625 112 750.00390625 111 750.7734375 172 c 0
 750.432617188 336.330078125 l 0
 750.356445312 398.225585938 656.423828125 516.255859375 491.00390625 516 c 1
 491.00390625 641 l 1
271 1 m 1
 271 126.399414062 l 0
 305.399414062 126.399414062 325.060546875 149.603515625 324.484375 186 c 0
 323.936523438 220.572265625 311.607421875 243.403320312 271 243.399414062 c 1
 271 369 l 0
 372.30859375 369.303710938 449.84375 287.500976562 450.00390625 224.901367188 c 0
 450.00390625 151.903320312 l 0
 449.904296875 87.91015625 372.43359375 0.8720703125 271 1 c 1
215.208007812 369 m 1
 215.208007812 243.399414062 l 0
 185.607421875 243.399414062 166.80859375 222.377929688 166.80859375 186 c 0
 166.80859375 148.600585938 184.607421875 126.399414062 215.208007812 126.399414062 c 1
 215.208007812 1 l 0
 110.8984375 1 39.568359375 98.0029296875 40 152.599609375 c 0
 40 226.599609375 l 0
 39.2001953125 333 164.208007812 369 215.208007812 369 c 1
436.00390625 641 m 1
 436.00390625 516 l 1
 249.1015625 516 183.208007812 405.120117188 183.208007812 337 c 0
 183.208007812 278.819335938 45.7587890625 263.567382812 40 233 c 1
 40 288 l 1
 40 405 124.00390625 641 436.00390625 641 c 0
 436.00390625 641 l 1
581.00390625 -188 m 1
 513.00390625 -333 249.84375 -334.58984375 193.9140625 -156.26953125 c 1
 314.993164062 -124.809570312 l 1
 343.243164062 -183.5703125 440.423828125 -188.08984375 473.193359375 -124.809570312 c 0
 581.00390625 -188 l 1
495.00390625 253.220703125 m 1
 619.00390625 146 l 0
 619.00390625 24.220703125 l 0
 619.00390625 -25.779296875 693.423828125 -38.3193359375 769.59375 -38.3193359375 c 0
 769.59375 -163.790039062 l 1
 603.00390625 -163.790039062 495.055664062 -96.7001953125 495.00390625 -3.58984375 c 0
 495.00390625 253.220703125 l 1
491.00390625 641 m 1
 763.313476562 640.84765625 877.153320312 434.399414062 877.153320312 336.580078125 c 0
 877.153320312 140.169921875 l 2
 877.153320312 -46 495.00390625 -45 495.00390625 141 c 2
 495.00390625 329 l 0
 621.00390625 329 l 1
 621.00390625 172 l 1
 621.00390625 112 750.00390625 111 750.7734375 172 c 0
 750.432617188 336.330078125 l 0
 750.356445312 398.225585938 656.423828125 516.255859375 491.00390625 516 c 1
 491.00390625 641 l 1
EndSplineSet
EndChar

StartChar: tml_Va
Encoding: 33 2997 64
Width: 894
VWidth: 0
Flags: HMW
LayerCount: 3
Back
SplineSet
273 0 m 1
 273 125.399414062 l 0
 315.399414062 125.399414062 320.999023438 153.606445312 320.276367188 185 c 0
 319.641601562 212.5703125 315.607421875 242.403320312 273 242.399414062 c 1
 273 368 l 0
 371.30859375 368.303710938 445.83984375 282.500976562 446 228.901367188 c 0
 446 155.903320312 l 0
 446.900390625 90.91015625 384.43359375 -0.1279296875 273 0 c 1
217 368 m 1
 217 242.399414062 l 0
 187.399414062 242.399414062 168.600585938 214.377929688 168.600585938 185 c 0
 168.600585938 152.600585938 183.399414062 125.399414062 217 125.399414062 c 1
 217 0 l 0
 112.690429688 0 40.568359375 93.0029296875 41 154.599609375 c 0
 41.3041350452 198.000781259 41.61328125 143.993164062 41 225.599609375 c 0
 40.2001953125 332 166 368 217 368 c 1
305.604492188 610 m 1
 305.204101562 485 l 0
 301.404296875 485 l 0
 238.204101562 485 187.204101562 441 180.204101562 365 c 0
 174.868164062 307.064453125 46.7587890625 261.567382812 41 231 c 1
 41 289 l 1
 41 381 96.2041015625 609.923828125 311.204101562 610 c 0
 305.604492188 610 l 1
360.604492188 485 m 1
 363.204101562 485 l 2
 440.204101562 485 497.803710938 432.600585938 499.204101562 363 c 1
 499.204101562 149 l 0
 499.204101562 130 473.5 127.889648438 466.00390625 126.399414062 c 1
 466.00390625 0.3994140625 l 1
 672 0.3994140625 l 1
 672 126 l 1
 623.204101562 126 l 1
 623.204101562 363.400390625 l 1
 622.204101562 472.600585938 536.204101562 610 368.204101562 610 c 2
 360.604492188 610 l 1
 360.604492188 485 l 1
728.204101562 610 m 1
 853.8046875 610 l 1
 853.8046875 0.3994140625 l 1
 728.204101562 0.3994140625 l 1
 728.204101562 610 l 1
EndSplineSet
Fore
SplineSet
728 41 m 1
 838 41 l 1
 838 0 l 1
 728 0 l 1
 728 41 l 1
582 41 m 6
 672 41 l 5
 672 0 l 5
 507.00390625 0 l 5
 507.00390625 41.3994140625 l 5
 514.5 42.8896484375 541 45 541 64 c 4
 541 388.400390625 l 4
 539.599609375 524.000976562 419.00390625 570 364.00390625 570 c 6
 361.404296875 570 l 5
 361.404296875 608 l 5
 368.00390625 608 l 6
 441.00390625 608 581 546.000976562 582 386.80078125 c 4
 582 41 l 6
271 1 m 1
 271 40 l 0
 314.399414062 40 409.652426719 73.5995532248 409.484375 186 c 0
 409.307094221 304.573251929 317.607421875 328.00390625 271 328 c 1
 271 369 l 0
 372.30859375 369.303710938 449.84375 290.500976562 450.00390625 201.901367188 c 0
 450.00390625 173.903320312 l 0
 449.904296875 79.91015625 369.43359375 0.8720703125 271 1 c 1
311.608398438 609 m 1
 311.208007812 569 l 0
 307.408203125 569 l 0
 194.208007812 569 83.2080078125 465 83.2080078125 302 c 0
 83.2080078125 243.819335938 45.7587890625 238.567382812 40 208 c 1
 40 265 l 1
 40 456 134.208007812 609 310.208007812 609 c 0
 311.608398438 609 l 1
215.208007812 369 m 1
 215.208007812 328 l 0
 165.607421875 328 79.80859375 308.377929688 79.80859375 186 c 0
 79.80859375 75.6005859375 172.607421875 40 215.208007812 40 c 1
 215.208007812 1 l 0
 110.8984375 1 39.568359375 92.0029296875 40 175.599609375 c 0
 40 201.599609375 l 0
 39.2001953125 335 156.208007812 369 215.208007812 369 c 1
368.204101562 610 m 1026
816.204101562 610 m 1
 852.8046875 610 l 1
 852.8046875 0 l 1
 816.204101562 0 l 1
 816.204101562 610 l 1
EndSplineSet
EndChar

StartChar: tml_E
Encoding: 9 2958 65
Width: 764
VWidth: 0
Flags: HW
LayerCount: 3
Back
SplineSet
271 1 m 1
 271 126.399414062 l 0
 305.399414062 126.399414062 325.060546875 149.603515625 324.484375 186 c 0
 323.936523438 220.572265625 311.607421875 243.403320312 271 243.399414062 c 1
 271 369 l 0
 372.30859375 369.303710938 449.84375 287.500976562 450.00390625 224.901367188 c 0
 450.00390625 151.903320312 l 0
 449.904296875 87.91015625 372.43359375 0.8720703125 271 1 c 1
215.208007812 369 m 1
 215.208007812 243.399414062 l 0
 185.607421875 243.399414062 166.80859375 222.377929688 166.80859375 186 c 0
 166.80859375 148.600585938 184.607421875 126.399414062 215.208007812 126.399414062 c 1
 215.208007812 1 l 0
 110.8984375 1 39.572265625 98.0029296875 40.00390625 152.599609375 c 0
 40.00390625 226.599609375 l 0
 39.2041015625 333 164.208007812 369 215.208007812 369 c 1
724.208007812 608 m 1
 724.208007812 483 l 1
 367.208007812 483 l 1
 367.208007812 608 l 1
 724.208007812 608 l 1
495.208007812 602 m 1
 620.80859375 602 l 1
 620.80859375 0 l 1
 495.208007812 0 l 1
 495.208007812 602 l 1
271 1 m 1
 271 126.399414062 l 0
 305.399414062 126.399414062 325.060546875 149.603515625 324.484375 186 c 0
 323.936523438 220.572265625 311.607421875 243.403320312 271 243.399414062 c 1
 271 369 l 0
 372.30859375 369.303710938 449.84375 287.500976562 450.00390625 224.901367188 c 0
 450.00390625 151.903320312 l 0
 449.904296875 87.91015625 372.43359375 0.8720703125 271 1 c 1
311.608398438 608 m 1
 311.208007812 483 l 0
 307.408203125 483 l 0
 221.208007812 483 181.208007812 413 174.208007812 337 c 0
 168.872070312 279.064453125 45.7626953125 263.567382812 40.00390625 233 c 1
 40.00390625 288 l 1
 40.00390625 405 103.208007812 608 310.208007812 608 c 0
 311.608398438 608 l 1
215.208007812 369 m 1
 215.208007812 243.399414062 l 0
 185.607421875 243.399414062 166.80859375 222.377929688 166.80859375 186 c 0
 166.80859375 148.600585938 184.607421875 126.399414062 215.208007812 126.399414062 c 1
 215.208007812 1 l 0
 110.8984375 1 39.572265625 98.0029296875 40.00390625 152.599609375 c 0
 40.00390625 226.599609375 l 0
 39.2041015625 333 164.208007812 369 215.208007812 369 c 1
EndSplineSet
Fore
SplineSet
724.208007812 610 m 1
 724.208007812 569 l 1
 367.208007812 569 l 1
 367.208007812 609 l 1
 724.208007812 610 l 1
580.208007812 604 m 1
 620.80859375 604 l 1
 620.80859375 0 l 1
 580.208007812 0 l 1
 580.208007812 604 l 1
271 1 m 1
 271 40 l 0
 314.399414062 40 409.652426719 73.5995532248 409.484375 186 c 0
 409.307094221 304.573251929 317.607421875 328.00390625 271 328 c 1
 271 369 l 0
 372.30859375 369.303710938 449.84375 290.500976562 450.00390625 201.901367188 c 0
 450.00390625 173.903320312 l 0
 449.904296875 79.91015625 369.43359375 0.8720703125 271 1 c 1
311.608398438 609 m 1
 311.208007812 569 l 0
 307.408203125 569 l 0
 194.208007812 569 83.2080078125 465 83.2080078125 302 c 0
 83.2080078125 243.819335938 45.7587890625 238.567382812 40 208 c 1
 40 265 l 1
 40 456 134.208007812 609 310.208007812 609 c 0
 311.608398438 609 l 1
215.208007812 369 m 1
 215.208007812 328 l 0
 165.607421875 328 79.80859375 308.377929688 79.80859375 186 c 0
 79.80859375 75.6005859375 172.607421875 40 215.208007812 40 c 1
 215.208007812 1 l 0
 110.8984375 1 39.568359375 92.0029296875 40 175.599609375 c 0
 40 201.599609375 l 0
 39.2001953125 335 156.208007812 369 215.208007812 369 c 1
EndSplineSet
EndChar

StartChar: tml_A
Encoding: 3 2949 66
Width: 1038
VWidth: 0
Flags: HW
LayerCount: 3
Back
SplineSet
822 393 m 9
 822 387 l 1
 697 387 l 1
 697 393 l 0
 697 501.397460938 653.118164062 575 528 575 c 0
 393 575 355 477 355 331 c 1
 230 312 l 1
 230 320.543945312 230.025390625 386.865234375 230 395 c 0
 229.391601562 591 365.547851562 700.134765625 528 700 c 1
 712.377929688 700 822 577.788085938 822 393 c 9
454.5 113 m 1
 454.5 241 l 1
 476.615234375 249.5703125 497.892578125 276.977539062 497.892578125 310.106445312 c 0
 497.892578125 350.25390625 466.1484375 382 426 382 c 0
 385.852539062 382 354.106445312 350.25390625 354.106445312 310.106445312 c 0
 354.106445312 276.735351562 376.040039062 249.169921875 399.5 240.815429688 c 1
 399.5 113 l 1
 313.5 113 230 210 230 281 c 0
 230 328 l 2
 230 409.506835938 329.282385601 506.96321849 423 507 c 0
 532.482421875 507.04296875 623 418.078125 623 334 c 2
 623 281 l 2
 623 222 538.5 113 454.5 113 c 1
510 332 m 1
 594.333007812 332 737.666992188 332 822 332 c 1
 823 69 l 1
 823 -35.3046875 751 -130 622 -130 c 0
 456 -130 l 0
 456 -5 l 17
 610 -5 l 0
 678 -4.4453125 697 33.9345703125 697 69 c 1
 697 210 l 1
 655 210 552 210 510 210 c 1
 510 332 l 1
399 -5 m 1
 399 -130 l 1
 248 -130 l 0
 133 -130 40 -14.3388671875 40 108 c 0
 40 226.737304688 126 334 259 334 c 2
 349 334 l 1
 349 209 l 1
 241 209 l 0
 216 209 165 166 165 107.537109375 c 0
 165 49.5625 212 -5 259 -5 c 0
 399 -5 l 1
780 332 m 1
 876 332 l 1
 876 210 l 1
 780 210 l 1
 780 332 l 1
873 592 m 1
 998 592 l 1
 998 -110 l 1
 873 -110 l 1
 873 592 l 1
EndSplineSet
Fore
SplineSet
822 393 m 9
 822 387 l 1
 697 387 l 1
 697 393 l 0
 697 501.397460938 653.118164062 575 528 575 c 0
 393 575 355 477 355 331 c 1
 230 312 l 1
 230 320.543945312 230.025390625 386.865234375 230 395 c 0
 229.391601562 591 365.547851562 700.134765625 528 700 c 1
 712.377929688 700 822 577.788085938 822 393 c 9
454.5 113 m 1
 454.5 241 l 1
 476.615234375 249.5703125 497.892578125 276.977539062 497.892578125 310.106445312 c 0
 497.892578125 350.25390625 466.1484375 382 426 382 c 0
 385.852539062 382 354.106445312 350.25390625 354.106445312 310.106445312 c 0
 354.106445312 276.735351562 376.040039062 249.169921875 399.5 240.815429688 c 1
 399.5 113 l 1
 313.5 113 230 210 230 281 c 0
 230 328 l 2
 230 409.506835938 329.282385601 506.96321849 423 507 c 0
 532.482421875 507.04296875 623 418.078125 623 334 c 2
 623 281 l 2
 623 222 538.5 113 454.5 113 c 1
510 332 m 1
 594.333007812 332 737.666992188 332 822 332 c 1
 823 69 l 1
 823 -35.3046875 751 -130 622 -130 c 0
 456 -130 l 0
 456 -5 l 17
 610 -5 l 0
 678 -4.4453125 697 33.9345703125 697 69 c 1
 697 210 l 1
 655 210 552 210 510 210 c 1
 510 332 l 1
399 -5 m 1
 399 -130 l 1
 248 -130 l 0
 133 -130 40 -14.3388671875 40 108 c 0
 40 226.737304688 126 334 259 334 c 2
 349 334 l 1
 349 209 l 1
 241 209 l 0
 216 209 165 166 165 107.537109375 c 0
 165 49.5625 212 -5 259 -5 c 0
 399 -5 l 1
780 332 m 1
 876 332 l 1
 876 210 l 1
 780 210 l 1
 780 332 l 1
873 592 m 1
 998 592 l 1
 998 -110 l 1
 873 -110 l 1
 873 592 l 1
EndSplineSet
EndChar

StartChar: tml_Pa
Encoding: 25 2986 67
Width: 550
VWidth: 0
Flags: HW
LayerCount: 3
Back
SplineSet
40 109.065429688 m 1
 40 611.065429688 l 1
 165 611.065429688 l 1
 165 109.065429688 l 1
 40 109.065429688 l 1
510 106.065429688 m 17
 510 610.565429688 l 1
 385 610.565429688 l 1
 385 106.065429688 l 1
 510 106.065429688 l 17
304 126.065429688 m 1
 304 1.0654296875 l 1
 510 1.0654296875 l 1
 510 126.065429688 l 1
 304 126.065429688 l 1
40 126.065429688 m 1
 247 126.065429688 l 1
 247 1.0654296875 l 1
 40 1.0654296875 l 1
 40 126.065429688 l 1
EndSplineSet
Fore
SplineSet
40 25.0654296875 m 1
 40 611.065429688 l 1
 80 611.065429688 l 1
 80 25.0654296875 l 1
 40 25.0654296875 l 1
510 22.0654296875 m 17
 510 610.565429688 l 1
 470 610.565429688 l 1
 470 22.0654296875 l 1
 510 22.0654296875 l 17
304 42.0654296875 m 1
 304 1.0654296875 l 1
 510 1.0654296875 l 1
 510 42.0654296875 l 1
 304 42.0654296875 l 1
40 42.0654296875 m 1
 247 42.0654296875 l 1
 247 1.0654296875 l 1
 40 1.0654296875 l 1
 40 42.0654296875 l 1
EndSplineSet
EndChar

StartChar: tml_Tta
Encoding: 20 2975 68
Width: 641
VWidth: 0
Flags: HW
LayerCount: 3
Back
SplineSet
28 125 m 1
 601 125 l 1
 601 0 l 1
 28 0 l 1
 28 125 l 1
28 610 m 1
 153 610 l 1
 153 180 l 1
 28 180 l 1
 28 610 l 1
EndSplineSet
Fore
SplineSet
28 40 m 1
 601 40 l 1
 601 0 l 1
 28 0 l 1
 28 40 l 1
28 610 m 1
 68 610 l 1
 68 95 l 1
 28 95 l 1
 28 610 l 1
EndSplineSet
EndChar

StartChar: tml_Ra
Encoding: 28 2992 69
Width: 610
VWidth: 0
Flags: HW
LayerCount: 3
Back
SplineSet
456 605 m 1
 328 605 l 1
 328 33.865234375 l 1
 155 -181 l 1
 301 -181 l 1
 454 0 l 2
 456 605 l 1
40 1 m 17
 40 609 l 1
 165 609 l 1
 165 1 l 1
 40 1 l 17
277 609 m 1
 277 484 l 1
 570 484 l 1
 570 609 l 1
 277 609 l 1
42 609 m 1
 222 609 l 1
 222 484 l 1
 42 484 l 1
 42 609 l 1
EndSplineSet
Fore
SplineSet
456 605 m 1
 414 605 l 1
 414 17.865234375 l 1
 247 -181 l 1
 301 -181 l 1
 454 0 l 2
 456 605 l 1
40 1 m 17
 40 609 l 1
 80 609 l 1
 80 1 l 1
 40 1 l 17
277 609 m 1
 277 569 l 1
 570 569 l 1
 570 609 l 1
 277 609 l 1
42 609 m 1
 222 609 l 1
 222 569 l 1
 42 569 l 1
 42 609 l 1
EndSplineSet
EndChar

StartChar: tml_MatraAa
Encoding: 38 3006 70
Width: 582
VWidth: 0
Flags: HW
LayerCount: 3
Back
SplineSet
331 0 m 1
 456 0 l 1
 456 607 l 1
 331 607 l 1
 331 0 l 1
40 0 m 17
 40 606 l 1
 165 607 l 1
 165 0 l 1
 40 0 l 17
278 609 m 1
 278 484 l 1
 542 484 l 1
 542 609 l 1
 278 609 l 1
40 609 m 1
 223 609 l 1
 223 484 l 1
 40 484 l 1
 40 609 l 1
EndSplineSet
Fore
SplineSet
417 0 m 1
 456 0 l 1
 456 607 l 1
 417 607 l 1
 417 0 l 1
40 0 m 17
 40 606 l 1
 80 607 l 1
 80 0 l 1
 40 0 l 17
278 609 m 1
 278 569 l 5
 542 569 l 5
 542 609 l 1
 278 609 l 1
40 609 m 1
 223 609 l 1
 223 569 l 5
 40 569 l 5
 40 609 l 1
EndSplineSet
EndChar

StartChar: tml_Na
Encoding: 23 2984 71
Width: 698
VWidth: 0
Flags: HW
LayerCount: 3
Back
SplineSet
501 384 m 1
 579 384 658 362 658 211 c 0
 658 26 l 0
 658 -42 637 -161 480 -161 c 0
 231 -161 l 2
 209.037188113 -161 171 -160 171 -225 c 0
 171 -262 l 1
 40 -262 l 1
 40 -231 l 1
 40 -98.1923828125 130 -36 251 -36 c 0
 479 -36 l 0
 529 -36 532 -5 532 26 c 0
 533 211 l 2
 533.470703125 258.025390625 529 259 501 259 c 0
 501 384 l 1
319 1 m 1
 447 1 l 1
 446 603 l 1
 321 603 l 1
 319 1 l 1
73 1 m 9
 198 1 l 1
 198 605 l 1
 73 605 l 1
 73 1 l 9
594 485 m 1
 594 610 l 1
 73 610 l 1
 74 485 l 1
 594 485 l 1
EndSplineSet
Fore
SplineSet
501 384 m 1
 579 384 658 362 658 211 c 0
 658 26 l 0
 658 -42 637 -161 480 -161 c 0
 148 -161 l 2
 104.037109375 -161 80 -179 80 -225 c 0
 80 -262 l 1
 40 -262 l 1
 40 -231 l 1
 40 -108.192382812 146 -121 190 -121 c 0
 479 -121 l 0
 553 -121 617 -89 617 26 c 0
 618 202 l 2
 618.6484375 322.024414062 566 344 501 344 c 0
 501 384 l 1
404 1 m 1
 447 1 l 1
 446 603 l 1
 406 603 l 1
 404 1 l 1
73 1 m 9
 113 1 l 1
 113 605 l 1
 73 605 l 1
 73 1 l 9
594 569 m 1
 594 610 l 1
 73 610 l 1
 74 569 l 1
 594 569 l 1
EndSplineSet
EndChar

StartChar: tml_Three
Encoding: 55 3049 72
Width: 752
VWidth: 0
Flags: HW
LayerCount: 3
Back
SplineSet
341 125 m 1
 697 125.065429688 l 1
 697 0.0654296875 l 1
 341 0 l 1
 341 125 l 1
261 125 m 1
 294.639648438 125 390.05859375 125 459 125 c 0
 518 125 515 128.418945312 515 148 c 0
 515 216 l 2
 515 237.028320312 519 237 468 237 c 0
 468 362 l 1
 556 362 641 330 641 235 c 0
 641 114 l 0
 641 44.044921875 578.067382812 0 482 0 c 0
 403 0 344.600585938 0 261 0 c 1
 261 125 l 1
288 181 m 1
 413 181 l 1
 413 603 l 1
 288 603 l 1
 288 181 l 1
40 0 m 9
 165 0 l 1
 165 605 l 1
 40 605 l 1
 40 0 l 9
524 484 m 1
 524 609 l 1
 40 609 l 1
 41 484 l 1
 524 484 l 1
EndSplineSet
Fore
SplineSet
341 125 m 1
 697 125.065429688 l 1
 697 0.0654296875 l 1
 341 0 l 1
 341 125 l 1
261 125 m 1
 294.639648438 125 390.05859375 125 459 125 c 0
 518 125 515 128.418945312 515 148 c 0
 515 216 l 2
 515 237.028320312 519 237 468 237 c 0
 468 362 l 1
 556 362 641 330 641 235 c 0
 641 114 l 0
 641 44.044921875 578.067382812 0 482 0 c 0
 403 0 344.600585938 0 261 0 c 1
 261 125 l 1
288 181 m 1
 413 181 l 1
 413 603 l 1
 288 603 l 1
 288 181 l 1
40 0 m 9
 165 0 l 1
 165 605 l 1
 40 605 l 1
 40 0 l 9
524 484 m 1
 524 609 l 1
 40 609 l 1
 41 484 l 1
 524 484 l 1
EndSplineSet
EndChar

StartChar: tml_Nga
Encoding: 16 2969 73
Width: 917
VWidth: 0
Flags: HW
LayerCount: 3
Back
SplineSet
752 609 m 1
 877 609 l 1
 877 0 l 1
 752 0 l 1
 752 609 l 1
341 125 m 1
 697 125.065429688 l 1
 697 0.0654296875 l 1
 341 0 l 1
 341 125 l 1
282 125 m 1
 315.639648438 125 390.05859375 125 459 125 c 0
 518 125 515 128.418945312 515 148 c 0
 515 216 l 2
 515 237.028320312 519 237 468 237 c 0
 468 362 l 1
 556 362 641 330 641 235 c 0
 641 114 l 0
 641 44.044921875 578.067382812 0 482 0 c 0
 403 0 365.600585938 0 282 0 c 1
 282 125 l 1
288 166 m 1
 413 166 l 1
 413 603 l 1
 288 603 l 1
 288 166 l 1
40 0 m 9
 165 0 l 1
 165 605 l 1
 40 605 l 1
 40 0 l 9
524 484 m 1
 524 609 l 1
 40 609 l 1
 41 484 l 1
 524 484 l 1
EndSplineSet
Fore
SplineSet
752 609 m 1
 792 609 l 1
 792 0 l 1
 752 0 l 1
 752 609 l 1
341 40 m 1
 697 40 l 1
 697 0.0654296875 l 1
 341 0 l 1
 341 40 l 1
282 40 m 1
 315.639648438 40 426.05859375 40 495 40 c 0
 564 40 601 70.4189453125 601 126 c 0
 601 216 l 2
 601 315.028320312 529 322 468 322 c 0
 468 362 l 1
 556 362 641 330 641 235 c 0
 641 110 l 0
 641 40.044921875 568.067382812 0 491 0 c 0
 412 0 365.600585938 0 282 0 c 1
 282 40 l 1
373 166 m 1
 413 166 l 1
 413 603 l 1
 373 603 l 1
 373 166 l 1
40 0 m 9
 80 0 l 1
 80 605 l 1
 40 605 l 1
 40 0 l 9
524 569 m 1
 524 609 l 1
 40 609 l 1
 41 569 l 1
 524 569 l 1
EndSplineSet
EndChar

StartChar: tml_Ii
Encoding: 6 2952 74
Width: 645
VWidth: 0
Flags: HW
LayerCount: 3
Back
SplineSet
477 254.333007812 m 0
 477 289.333007812 506 318.333007812 541 318.333007812 c 0
 576 318.333007812 605 289.333007812 605 254.333007812 c 0
 605 219.333007812 576 190.333007812 541 190.333007812 c 0
 506 190.333007812 477 219.333007812 477 254.333007812 c 0
182 255 m 0
 182 290 211 319 246 319 c 0
 281 319 310 290 310 255 c 0
 310 220 281 191 246 191 c 0
 211 191 182 220 182 255 c 0
331 0 m 1
 456 0 l 1
 456 608 l 1
 331 608 l 1
 331 0 l 1
40 1 m 17
 40 607 l 1
 165 608 l 1
 165 1 l 1
 40 1 l 17
277 610 m 1
 277 484.5 l 1
 601 484.5 l 1
 601 610 l 1
 277 610 l 1
40 610 m 1
 222 610 l 1
 222 484.5 l 1
 40 484.5 l 1
 40 610 l 1
EndSplineSet
Fore
SplineSet
501.291015625 262.352539062 m 4
 501.291015625 287.864257812 522.455078125 309 548 309 c 4
 573.54296875 309 594.70703125 287.864257812 594.70703125 262.352539062 c 4
 594.70703125 236.842773438 573.54296875 215.704101562 548 215.704101562 c 4
 522.455078125 215.704101562 501.291015625 236.842773438 501.291015625 262.352539062 c 4
206.8125 263.298828125 m 0
 206.8125 288.810546875 227.9765625 309.946289062 253.521484375 309.946289062 c 0
 279.064453125 309.946289062 300.228515625 288.810546875 300.228515625 263.298828125 c 0
 300.228515625 237.7890625 279.064453125 216.650390625 253.521484375 216.650390625 c 0
 227.9765625 216.650390625 206.8125 237.7890625 206.8125 263.298828125 c 0
417 0 m 1
 456 0 l 1
 456 608 l 1
 417 608 l 1
 417 0 l 1
40 1 m 17
 40 607 l 1
 80 609 l 1
 80 2 l 1
 40 1 l 17
277 610 m 1
 277 568.5 l 1
 601 568.5 l 1
 601 610 l 1
 277 610 l 1
40 610 m 1
 222 610 l 1
 222 568.5 l 1
 40 568.5 l 1
 40 610 l 1
EndSplineSet
EndChar

StartChar: tml_Lla
Encoding: 31 2995 75
Width: 1000
VWidth: 0
Flags: HW
LayerCount: 3
Back
SplineSet
306.400390625 608 m 1
 306 484 l 0
 302.200195312 484 l 0
 239 484 176 435 176 335 c 0
 176 276.819335938 47.7587890625 261.567382812 42 231 c 1
 42 334 l 1
 42 437 123 607.923828125 305 608 c 0
 306.400390625 608 l 1
273 0 m 1
 273 125.399414062 l 0
 315.399414062 125.399414062 320.999023438 153.606445312 320.276367188 185 c 0
 319.641601562 212.5703125 315.607421875 242.403320312 273 242.399414062 c 1
 273 368 l 0
 371.30859375 368.303710938 445.83984375 282.500976562 446 228.901367188 c 0
 446 155.903320312 l 0
 446.900390625 90.91015625 384.43359375 -0.1279296875 273 0 c 1
361.400390625 485 m 1
 363 485 l 2
 420 485 483.599609375 426.600585938 485 363 c 1
 486 0 l 1
 615 0 l 1
 611 363.400390625 l 1
 611 464.600585938 532 609 361 609 c 2
 361.400390625 609 l 1
 361.400390625 485 l 1
217 368 m 1
 217 242.399414062 l 0
 187.399414062 242.399414062 168.600585938 214.377929688 168.600585938 185 c 0
 168.600585938 152.600585938 183.399414062 125.399414062 217 125.399414062 c 1
 217 0 l 0
 112.690429688 0 41.568359375 93.0029296875 42 154.599609375 c 0
 42.3041350452 198.000781259 42.61328125 143.993164062 42 225.599609375 c 0
 41.2001953125 332 166 368 217 368 c 1
760 0 m 1
 885 0 l 1
 885 587.852539062 l 1
 760 587.852539062 l 1
 760 0 l 1
731 609 m 1
 731 483 l 1
 960 483 l 1
 960 609 l 1
 731 609 l 1
676 609 m 1
 661 609 676.999999999 608.999742528 654 609 c 0
 479.52734375 609.001953125 485 419.07421875 485 333 c 1
 611 333.400390625 l 1
 611 464 634 483 676 483 c 1
 676 609 l 1
306.400390625 608 m 1
 306 484 l 0
 302.200195312 484 l 0
 239 484 176 435 176 335 c 0
 176 276.819335938 47.7587890625 261.567382812 42 231 c 1
 42 334 l 1
 42 437 123 607.923828125 305 608 c 0
 306.400390625 608 l 1
273 0 m 1
 273 125.399414062 l 0
 315.399414062 125.399414062 320.999023438 153.606445312 320.276367188 185 c 0
 319.641601562 212.5703125 315.607421875 242.403320312 273 242.399414062 c 1
 273 368 l 0
 371.30859375 368.303710938 445.83984375 282.500976562 446 228.901367188 c 0
 446 155.903320312 l 0
 446.900390625 90.91015625 384.43359375 -0.1279296875 273 0 c 1
361.400390625 485 m 1
 363 485 l 2
 420 485 483.599609375 426.600585938 485 363 c 1
 486 0 l 1
 615 0 l 1
 611 363.400390625 l 1
 611 464.600585938 532 609 361 609 c 2
 361.400390625 609 l 1
 361.400390625 485 l 1
217 368 m 1
 217 242.399414062 l 0
 187.399414062 242.399414062 168.600585938 214.377929688 168.600585938 185 c 0
 168.600585938 152.600585938 183.399414062 125.399414062 217 125.399414062 c 1
 217 0 l 0
 112.690429688 0 41.568359375 93.0029296875 42 154.599609375 c 0
 42.3041350452 198.000781259 42.61328125 143.993164062 42 225.599609375 c 0
 41.2001953125 332 166 368 217 368 c 1
760 0 m 1
 885 0 l 1
 885 587.852539062 l 1
 760 587.852539062 l 1
 760 0 l 1
731 609 m 1
 731 483 l 1
 960 483 l 1
 960 609 l 1
 731 609 l 1
676 609 m 1
 661 609 676.999999999 608.999742528 654 609 c 0
 479.52734375 609.001953125 485 419.07421875 485 333 c 1
 611 333.400390625 l 1
 611 464 634 483 676 483 c 1
 676 609 l 1
EndSplineSet
Fore
SplineSet
526 0 m 21
 526 388.400390625 l 4
 524.599609375 524.000976562 419.00390625 570 364.00390625 570 c 6
 361.404296875 570 l 5
 361.404296875 608 l 5
 368.00390625 608 l 6
 441.00390625 608 565 546.000976562 566 386.80078125 c 4
 566 0 l 13
 526 0 l 21
271 1 m 5
 271 40 l 4
 314.399414062 40 409.652426719 73.5995532248 409.484375 186 c 4
 409.307094221 304.573251929 317.607421875 328.00390625 271 328 c 5
 271 369 l 4
 372.30859375 369.303710938 449.84375 290.500976562 450.00390625 201.901367188 c 4
 450.00390625 173.903320312 l 4
 449.904296875 79.91015625 369.43359375 0.8720703125 271 1 c 5
311.608398438 609 m 5
 311.208007812 569 l 4
 307.408203125 569 l 4
 194.208007812 569 83.2080078125 465 83.2080078125 302 c 4
 83.2080078125 243.819335938 45.7587890625 238.567382812 40 208 c 5
 40 265 l 5
 40 456 134.208007812 609 310.208007812 609 c 4
 311.608398438 609 l 5
215.208007812 369 m 5
 215.208007812 328 l 4
 165.607421875 328 79.80859375 308.377929688 79.80859375 186 c 4
 79.80859375 75.6005859375 172.607421875 40 215.208007812 40 c 5
 215.208007812 1 l 4
 110.8984375 1 39.568359375 92.0029296875 40 175.599609375 c 4
 40 201.599609375 l 4
 39.2001953125 335 156.208007812 369 215.208007812 369 c 5
843 0 m 1
 885 0 l 1
 885 587.852539062 l 1
 843 587.852539062 l 1
 843 0 l 1
731 609 m 1
 731 569 l 1
 960 569 l 1
 960 609 l 1
 731 609 l 1
676 609 m 5
 676 569 l 5
 576 569 566 523.599609375 566 382 c 5
 526 382 l 5
 526 497.07421875 529.52734375 609.001953125 670 609 c 4
 676 609 l 5
EndSplineSet
EndChar

StartChar: tml_La
Encoding: 30 2994 76
Width: 916
VWidth: 0
Flags: HW
LayerCount: 3
Back
SplineSet
273 0 m 1
 273 125.399414062 l 0
 315.399414062 125.399414062 320.999023438 153.606445312 320.276367188 185 c 0
 319.641601562 212.5703125 315.607421875 242.403320312 273 242.399414062 c 1
 273 368 l 0
 371.30859375 368.303710938 445.83984375 282.500976562 446 228.901367188 c 0
 446 155.903320312 l 0
 446.900390625 90.91015625 384.43359375 -0.1279296875 273 0 c 1
217 368 m 1
 217 242.399414062 l 0
 187.399414062 242.399414062 168.600585938 214.377929688 168.600585938 185 c 0
 168.600585938 152.600585938 183.399414062 125.399414062 217 125.399414062 c 1
 217 0 l 0
 112.690429688 0 41.568359375 93.0029296875 42 154.599609375 c 0
 42.3041350452 198.000781259 42.61328125 143.993164062 42 225.599609375 c 0
 41.2001953125 332 166 368 217 368 c 1
306.400390625 608 m 1
 306 484 l 0
 302.200195312 484 l 0
 239 484 176 435 176 335 c 0
 176 276.819335938 47.7587890625 261.567382812 42 231 c 1
 42 331 l 1
 42 434 123 607.923828125 305 608 c 0
 306.400390625 608 l 1
610.00390625 361.400390625 m 0
 609.00390625 462.600585938 529.00390625 608 368.00390625 608 c 2
 361.404296875 608 l 1
 361.404296875 483 l 1
 364.00390625 483 l 2
 434.00390625 483 482.603515625 426.600585938 484.00390625 363 c 8
 485.00390625 169 l 16
 485.00390625 111.92578125 509.53125 -1 629.00390625 -1 c 0
 652.00390625 -1 637 -1 652 -1 c 1
 652 125 l 1
 626.106155649 125 610.00390625 141.14171136 610.00390625 168.599609375 c 2
 610.00390625 361.400390625 l 0
876.00390625 434.678710938 m 1
 876.00390625 531 839.00390625 607.852539062 729.001953125 608.357421875 c 0
 706.001953125 608.462890625 713.00390625 607.990234375 698.00390625 607.852539062 c 1
 699.16015625 481.857421875 l 1
 738.00390625 481.857421875 751.00390625 469 751.00390625 431.932617188 c 1
 751.00390625 170 l 17
 751.00390625 142 735 125 707 125 c 1
 707 -1 l 1
 722 -1 710.00390625 -1.599609375 733.00390625 -1.599609375 c 0
 842.4765625 -1.599609375 876.00390625 110 876.00390625 170 c 1
 876.00390625 434.678710938 l 1
EndSplineSet
Fore
SplineSet
271 1 m 1
 271 40 l 0
 314.399414062 40 409.652426719 73.5995532248 409.484375 186 c 0
 409.307094221 304.573251929 317.607421875 328.00390625 271 328 c 1
 271 369 l 0
 372.30859375 369.303710938 449.84375 290.500976562 450.00390625 201.901367188 c 0
 450.00390625 173.903320312 l 0
 449.904296875 79.91015625 369.43359375 0.8720703125 271 1 c 1
311.608398438 609 m 1
 311.208007812 569 l 0
 307.408203125 569 l 0
 194.208007812 569 83.2080078125 465 83.2080078125 302 c 0
 83.2080078125 243.819335938 45.7587890625 238.567382812 40 208 c 1
 40 265 l 1
 40 456 134.208007812 609 310.208007812 609 c 0
 311.608398438 609 l 1
215.208007812 369 m 1
 215.208007812 328 l 0
 165.607421875 328 79.80859375 308.377929688 79.80859375 186 c 0
 79.80859375 75.6005859375 172.607421875 40 215.208007812 40 c 1
 215.208007812 1 l 0
 110.8984375 1 39.568359375 92.0029296875 40 175.599609375 c 0
 40 201.599609375 l 0
 39.2001953125 335 156.208007812 369 215.208007812 369 c 1
566 386.80078125 m 4
 565 546.000976562 441.00390625 608 368.00390625 608 c 6
 361.404296875 608 l 5
 361.404296875 570 l 5
 364.00390625 570 l 6
 419.00390625 570 523.599609375 524.000976562 525 388.400390625 c 4
 526 170.400390625 l 4
 526 24.326171875 600.53125 -1 645.00390625 -1 c 4
 652 -1 l 5
 652 39 l 5
 618.106445312 39 566 52.5419921875 566 170 c 6
 566 386.80078125 l 4
876.00390625 434.678710938 m 1
 876.00390625 531 839.00390625 607.852539062 729.001953125 608.357421875 c 0
 706.001953125 608.462890625 713.00390625 607.990234375 698.00390625 607.852539062 c 1
 699.16015625 567.857421875 l 1
 755.00390625 567.857421875 836.00390625 572 836.00390625 437.932617188 c 1
 836.00390625 170 l 17
 836.00390625 115 809 39 707 39 c 1
 707 -1 l 1
 721.00390625 -1.599609375 l 0
 843.4765625 -1.599609375 876.00390625 110 876.00390625 170 c 1
 876.00390625 434.678710938 l 1
EndSplineSet
EndChar

StartChar: tml_Nya
Encoding: 19 2974 77
Width: 889
VWidth: 0
Flags: HW
LayerCount: 3
Back
SplineSet
724.208007812 610 m 1
 724.208007812 485 l 1
 367.208007812 485 l 1
 367.208007812 610 l 1
 724.208007812 610 l 1
495.208007812 604 m 1
 620.80859375 604 l 1
 620.80859375 19 l 1
 495.208007812 19 l 1
 495.208007812 604 l 1
270 3 m 1
 270 128.399414062 l 0
 308.399414062 128.399414062 318.20703125 156.606445312 318.484375 188 c 0
 318.727539062 215.576171875 307.607421875 245.403320312 270 245.399414062 c 1
 270 371 l 0
 369.30859375 371.303710938 443.84375 282.500976562 444.00390625 227.901367188 c 0
 444.00390625 155.903320312 l 0
 444.904296875 98.91015625 381.43359375 2.8720703125 270 3 c 1
311.608398438 610 m 1
 311.208007812 485 l 0
 307.408203125 485 l 0
 221.208007812 485 181.208007812 415 174.208007812 339 c 0
 168.872070312 281.064453125 45.7626953125 265.567382812 40.00390625 235 c 1
 40.00390625 290 l 1
 40.00390625 407 103.208007812 610 310.208007812 610 c 0
 311.608398438 610 l 1
215 371 m 1
 215 245.399414062 l 0
 185.399414062 245.399414062 166.80859375 217.377929688 166.80859375 188 c 0
 166.80859375 155.600585938 181.399414062 128.399414062 215 128.399414062 c 1
 215 3 l 0
 105.690429688 3 40.572265625 102.002929688 40.00390625 155.599609375 c 0
 40.00390625 228.599609375 l 0
 39.2041015625 335 164 371 215 371 c 1
658.200195312 -47.6669921875 m 2
 722.200195312 -47.6318359375 723.200195312 -27 723.200195312 23 c 0
 724.200195312 158 l 2
 724.670898438 205.025390625 719.200195312 206 676.200195312 206 c 0
 676.200195312 331 l 1
 763.200195312 331 849.200195312 303 849.200195312 158 c 0
 849.200195312 23 l 0
 849.200195312 -88 809.200195312 -173 631.200195312 -173 c 0
 47.2001953125 -173 l 1
 47.2001953125 -48 l 1
 658.200195312 -47.6669921875 l 2
EndSplineSet
Fore
SplineSet
724.208007812 610 m 1
 724.208007812 569 l 1
 367.208007812 569 l 1
 367.208007812 609 l 1
 724.208007812 610 l 1
271 1 m 1
 271 40 l 0
 314.399414062 40 409.652426719 73.5995532248 409.484375 186 c 0
 409.307094221 304.573251929 317.607421875 328.00390625 271 328 c 1
 271 369 l 0
 372.30859375 369.303710938 449.84375 290.500976562 450.00390625 201.901367188 c 0
 450.00390625 173.903320312 l 0
 449.904296875 79.91015625 369.43359375 0.8720703125 271 1 c 1
311.608398438 609 m 1
 311.208007812 569 l 0
 307.408203125 569 l 0
 194.208007812 569 83.2080078125 465 83.2080078125 302 c 0
 83.2080078125 243.819335938 45.7587890625 238.567382812 40 208 c 1
 40 265 l 1
 40 456 134.208007812 609 310.208007812 609 c 0
 311.608398438 609 l 1
215.208007812 369 m 1
 215.208007812 328 l 0
 165.607421875 328 79.80859375 308.377929688 79.80859375 186 c 0
 79.80859375 75.6005859375 172.607421875 40 215.208007812 40 c 1
 215.208007812 1 l 0
 110.8984375 1 39.568359375 92.0029296875 40 175.599609375 c 0
 40 201.599609375 l 0
 39.2001953125 335 156.208007812 369 215.208007812 369 c 1
581.208007812 604 m 1
 620.80859375 604 l 1
 620.80859375 19 l 1
 581.208007812 19 l 1
 581.208007812 604 l 1
627.200195312 -132.666992188 m 2
 723.200183851 -132.61187366 808.200195312 -108 808.200195312 11 c 0
 809.200195312 158 l 2
 810.016678567 278.023038379 738.200195312 291 676.200195312 291 c 0
 676.200195312 331 l 1
 763.200195312 331 849.200195312 301 849.200195312 158 c 0
 849.200195312 23 l 0
 849.200195312 -88 803.200195312 -173 625.200195312 -173 c 0
 47.2001953125 -173 l 1
 47.2001953125 -133 l 1
 627.200195312 -132.666992188 l 2
EndSplineSet
EndChar

StartChar: tml_Nnna
Encoding: 24 2985 78
Width: 1102
VWidth: 0
Flags: HW
LayerCount: 3
Back
SplineSet
766 484.666015625 m 1
 762 484.666015625 l 1
 682 484.67578125 558 485.999023438 558.204101562 297 c 0
 558.204101562 159 l 0
 558.204101562 147 556 112 582 112 c 1
 582 -13.3203125 l 0
 485 -13.3203125 433.204101562 71 433.204101562 158 c 1
 433.204101562 295 l 0
 433.204101562 603 705 610 762 610 c 2
 766 610 l 1
 766 484.666015625 l 1
398 609 m 1
 543 609 786.204101562 600 786.204101562 308 c 2
 786.204101562 158 l 0
 786.204101562 64 736 -13.3203125 637 -13.3203125 c 1
 637 112 l 0
 666 112 661.204101562 147 661.204101562 158 c 0
 661.204101562 297 l 2
 661.204101562 487 533.833007812 483 398 484 c 1
 398 609 l 1
343 609 m 1
 336 609 l 1
 271 609 41 606.841796875 41 297 c 2
 41 157 l 1
 41 70 93 -14 190 -14 c 0
 190 111 l 1
 164 111 166 146 166 158 c 0
 166 297 l 0
 165.795898438 484 259.204101562 484 336 484 c 1
 343 484 l 1
 343 609 l 1
302.325195312 447 m 1
 371.166992188 447 394 387.416992188 394 297 c 2
 394 157.185546875 l 0
 394 63.185546875 344 -14 245 -14 c 1
 245 111.185546875 l 0
 274 111.185546875 269 146.185546875 269 157.185546875 c 0
 269 297 l 2
 269 350.109375 237 350 215 350.088867188 c 1
 212 385 244 442 302.325195312 447 c 1
820 609 m 1
 1062 609 l 1
 1062 482.833007812 l 1
 963.19921875 483.064453125 1021.23144531 483.610351562 820 483.662109375 c 1
 820 609 l 1
838.204101562 0 m 1
 838.204101562 587 l 1
 963.204101562 587 l 1
 963.204101562 0 l 1
 838.204101562 0 l 1
EndSplineSet
Fore
SplineSet
766 484.666015625 m 1
 762 484.666015625 l 1
 682 484.67578125 558 485.999023438 558.204101562 297 c 0
 558.204101562 159 l 0
 558.204101562 147 556 112 582 112 c 1
 582 -13.3203125 l 0
 485 -13.3203125 433.204101562 71 433.204101562 158 c 1
 433.204101562 295 l 0
 433.204101562 603 705 610 762 610 c 2
 766 610 l 1
 766 484.666015625 l 1
398 609 m 1
 543 609 786.204101562 600 786.204101562 308 c 2
 786.204101562 158 l 0
 786.204101562 64 736 -13.3203125 637 -13.3203125 c 1
 637 112 l 0
 666 112 661.204101562 147 661.204101562 158 c 0
 661.204101562 297 l 2
 661.204101562 487 533.833007812 483 398 484 c 1
 398 609 l 1
343 609 m 1
 336 609 l 1
 271 609 41 606.841796875 41 297 c 2
 41 157 l 1
 41 70 93 -14 190 -14 c 0
 190 111 l 1
 164 111 166 146 166 158 c 0
 166 297 l 0
 165.795898438 484 259.204101562 484 336 484 c 1
 343 484 l 1
 343 609 l 1
302.325195312 447 m 1
 371.166992188 447 394 387.416992188 394 297 c 2
 394 157.185546875 l 0
 394 63.185546875 344 -14 245 -14 c 1
 245 111.185546875 l 0
 274 111.185546875 269 146.185546875 269 157.185546875 c 0
 269 297 l 2
 269 350.109375 237 350 215 350.088867188 c 1
 212 385 244 442 302.325195312 447 c 1
820 609 m 1
 1062 609 l 1
 1062 482.833007812 l 1
 963.19921875 483.064453125 1021.23144531 483.610351562 820 483.662109375 c 1
 820 609 l 1
838.204101562 0 m 1
 838.204101562 587 l 1
 963.204101562 587 l 1
 963.204101562 0 l 1
 838.204101562 0 l 1
EndSplineSet
EndChar

StartChar: tml_Nna
Encoding: 21 2979 79
Width: 1496
VWidth: 0
Flags: HW
LayerCount: 3
Back
SplineSet
1214 607 m 1
 1456 607 l 1
 1456 480.833007812 l 1
 1357.19921875 481.064453125 1415.23144531 481.610351562 1214 481.662109375 c 1
 1214 607 l 1
1174 484.666015625 m 1
 1170 484.666015625 l 1
 1075 484.67578125 951 485.999023438 951.204101562 297 c 0
 951.204101562 159 l 0
 951.204101562 147 949.204101562 112 982.204101562 112 c 1
 981.204101562 -13.3203125 l 0
 877.204101562 -13.3203125 826.204101562 71 826.204101562 158 c 1
 826.204101562 295 l 0
 826.204101562 603 1099 610 1170 610 c 2
 1174 610 l 1
 1174 484.666015625 l 1
820 609 m 1
 959 609 1179.20410156 600 1179.20410156 308 c 2
 1179.20410156 158 l 0
 1179.20410156 64 1129.20410156 -13.3203125 1022.20410156 -13.3203125 c 1
 1022.20410156 112 l 0
 1059.20410156 112 1054.20410156 147 1054.20410156 158 c 0
 1054.20410156 297 l 2
 1054.20410156 487 949.833007812 483 820 484 c 1
 820 609 l 1
1232.20410156 1 m 1
 1232.20410156 588 l 1
 1357.20410156 588 l 1
 1357.20410156 1 l 1
 1232.20410156 1 l 1
780 483.666015625 m 1
 776 483.666015625 l 1
 681 483.67578125 557 484.999023438 557.204101562 296 c 0
 557.204101562 158 l 0
 557.204101562 146 555.204101562 111 588.204101562 111 c 1
 587.204101562 -14.3203125 l 0
 483.204101562 -14.3203125 432.204101562 70 432.204101562 157 c 1
 432.204101562 294 l 0
 432.204101562 602 705 609 776 609 c 2
 780 609 l 1
 780 483.666015625 l 1
397 608 m 1
 542 608 785.204101562 599 785.204101562 307 c 2
 785.204101562 157 l 0
 785.204101562 63 735.204101562 -14.3203125 628.204101562 -14.3203125 c 1
 628.204101562 111 l 0
 665.204101562 111 660.204101562 146 660.204101562 157 c 0
 660.204101562 296 l 2
 660.204101562 486 532.833007812 482 397 483 c 1
 397 608 l 1
357 608 m 1
 335 608 l 1
 270 608 40 605.841796875 40 296 c 2
 40 156 l 1
 40 69 91 -15 195 -15 c 0
 196 110 l 1
 163 110 165 145 165 157 c 0
 165 296 l 0
 164.795898438 483 258.204101562 483 335 483 c 1
 357 483 l 1
 357 608 l 1
301.325195312 446 m 1
 370.166992188 446 393 386.416992188 393 296 c 2
 393 156.185546875 l 0
 393 62.185546875 343 -15 236 -15 c 1
 236 110.185546875 l 0
 273 110.185546875 268 145.185546875 268 156.185546875 c 0
 268 296 l 2
 268 349.109375 236 349 214 349.088867188 c 1
 211 384 243 441 301.325195312 446 c 1
EndSplineSet
Fore
SplineSet
1214 607 m 1
 1456 607 l 1
 1456 480.833007812 l 1
 1357.19921875 481.064453125 1415.23144531 481.610351562 1214 481.662109375 c 1
 1214 607 l 1
1174 484.666015625 m 1
 1170 484.666015625 l 1
 1075 484.67578125 951 485.999023438 951.204101562 297 c 0
 951.204101562 159 l 0
 951.204101562 147 949.204101562 112 982.204101562 112 c 1
 981.204101562 -13.3203125 l 0
 877.204101562 -13.3203125 826.204101562 71 826.204101562 158 c 1
 826.204101562 295 l 0
 826.204101562 603 1099 610 1170 610 c 2
 1174 610 l 1
 1174 484.666015625 l 1
820 609 m 1
 959 609 1179.20410156 600 1179.20410156 308 c 2
 1179.20410156 158 l 0
 1179.20410156 64 1129.20410156 -13.3203125 1022.20410156 -13.3203125 c 1
 1022.20410156 112 l 0
 1059.20410156 112 1054.20410156 147 1054.20410156 158 c 0
 1054.20410156 297 l 2
 1054.20410156 487 949.833007812 483 820 484 c 1
 820 609 l 1
1232.20410156 1 m 1
 1232.20410156 588 l 1
 1357.20410156 588 l 1
 1357.20410156 1 l 1
 1232.20410156 1 l 1
780 483.666015625 m 1
 776 483.666015625 l 1
 681 483.67578125 557 484.999023438 557.204101562 296 c 0
 557.204101562 158 l 0
 557.204101562 146 555.204101562 111 588.204101562 111 c 1
 587.204101562 -14.3203125 l 0
 483.204101562 -14.3203125 432.204101562 70 432.204101562 157 c 1
 432.204101562 294 l 0
 432.204101562 602 705 609 776 609 c 2
 780 609 l 1
 780 483.666015625 l 1
397 608 m 1
 542 608 785.204101562 599 785.204101562 307 c 2
 785.204101562 157 l 0
 785.204101562 63 735.204101562 -14.3203125 628.204101562 -14.3203125 c 1
 628.204101562 111 l 0
 665.204101562 111 660.204101562 146 660.204101562 157 c 0
 660.204101562 296 l 2
 660.204101562 486 532.833007812 482 397 483 c 1
 397 608 l 1
357 608 m 1
 335 608 l 1
 270 608 40 605.841796875 40 296 c 2
 40 156 l 1
 40 69 91 -15 195 -15 c 0
 196 110 l 1
 163 110 165 145 165 157 c 0
 165 296 l 0
 164.795898438 483 258.204101562 483 335 483 c 1
 357 483 l 1
 357 608 l 1
301.325195312 446 m 1
 370.166992188 446 393 386.416992188 393 296 c 2
 393 156.185546875 l 0
 393 62.185546875 343 -15 236 -15 c 1
 236 110.185546875 l 0
 273 110.185546875 268 145.185546875 268 156.185546875 c 0
 268 296 l 2
 268 349.109375 236 349 214 349.088867188 c 1
 211 384 243 441 301.325195312 446 c 1
EndSplineSet
EndChar

StartChar: tml_Ma
Encoding: 26 2990 80
Width: 681
VWidth: 0
Flags: HW
LayerCount: 3
Back
SplineSet
464 126 m 1
 507 126 514.78125 160.014648438 515 182.940429688 c 2
 514 439 l 0
 514 463 509 495 464 495 c 1
 464 620 l 1
 562 620 641 552 641 456 c 0
 641 202 l 0
 641 52 547 1 464 1 c 0
 464 126 l 1
409 620 m 1
 409 495 l 17
 369 495 374 422.396484375 374 372 c 2
 374 125.0234375 l 1
 249 125 l 0
 249 372 l 0
 249 579 334 620 409 620 c 1
40 109.065429688 m 1
 40 612.065429688 l 1
 165 612.065429688 l 1
 165 109.065429688 l 1
 40 109.065429688 l 1
409 1.0107421875 m 1
 40 1.0654296875 l 1
 40 126.065429688 l 1
 409 126 l 1
 409 1.0107421875 l 1
EndSplineSet
Fore
SplineSet
464 42 m 5
 507 42 602.417571958 76.0171334919 602 182.940429688 c 6
 601 439 l 4
 601 555 509 580 464 580 c 5
 464 620 l 5
 562 620 641 548 641 456 c 4
 641 202 l 4
 641 52 547 1 464 1 c 4
 464 42 l 5
409 620 m 5
 409 580 l 21
 339 580 289 546.396484375 289 420 c 6
 289 42 l 5
 249 42 l 4
 249 418 l 4
 249 554 302 620 409 620 c 5
40 21.0654296875 m 5
 40 612.065429688 l 5
 80 612.065429688 l 5
 80 21.0654296875 l 5
 40 21.0654296875 l 5
409 1.0107421875 m 5
 40 1.0654296875 l 5
 40 42 l 5
 409 42 l 5
 409 1.0107421875 l 5
EndSplineSet
EndChar

StartChar: tml_Llla
Encoding: 32 2996 81
Width: 681
VWidth: 0
Flags: HW
LayerCount: 3
Back
SplineSet
464 126 m 1
 507 126 514.78125 160.014648438 515 182.940429688 c 2
 514 439 l 0
 514 463 509 495 464 495 c 1
 464 620 l 1
 562 620 641 552 641 456 c 0
 641 202 l 0
 641 52 547 1 464 1 c 0
 464 126 l 1
409 620 m 1
 409 495 l 17
 369 495 374 422.396484375 374 372 c 2
 374 125.0234375 l 1
 249 125 l 0
 249 372 l 0
 249 579 334 620 409 620 c 1
40 109.065429688 m 1
 40 612.065429688 l 1
 165 612.065429688 l 1
 165 109.065429688 l 1
 40 109.065429688 l 1
409 1.0107421875 m 1
 40 1.0654296875 l 1
 40 126.065429688 l 1
 409 126 l 1
 409 1.0107421875 l 1
179 -69 m 1
 54 -69 l 1
 54 -196 188 -266 335 -169 c 1
 288 -164 241 -122 237 -89 c 1
 219 -105 180 -94 179 -69 c 1
249 1.3330078125 m 1
 374 1.3330078125 l 1
 374 -29 410 -22.6669921875 572 -22.6669921875 c 1
 572 -149 l 0
 439 -148.349609375 l 1
 270.846679688 -148.879882812 249.149414062 -61.4599609375 249 1.3330078125 c 1
EndSplineSet
Fore
SplineSet
464 42 m 1
 507 42 602.417571958 76.0171334919 602 182.940429688 c 2
 601 439 l 0
 601 555 509 580 464 580 c 1
 464 620 l 1
 562 620 641 548 641 456 c 0
 641 202 l 0
 641 52 547 1 464 1 c 0
 464 42 l 1
409 620 m 1
 409 580 l 17
 339 580 289 546.396484375 289 420 c 2
 289 42 l 1
 249 42 l 0
 249 418 l 0
 249 554 302 620 409 620 c 1
40 21.0654296875 m 1
 40 612.065429688 l 1
 80 612.065429688 l 1
 80 21.0654296875 l 1
 40 21.0654296875 l 1
409 1.0107421875 m 1
 40 1.0654296875 l 1
 40 42 l 1
 409 42 l 1
 409 1.0107421875 l 1
94 -69 m 1
 54 -69 l 1
 54 -196 188 -266 335 -169 c 1
 318 -167 302 -161 291 -154 c 1
 226 -200 94 -180 94 -69 c 1
249 1.3330078125 m 1
 289 1.3330078125 l 1
 289 -63.3919551427 324 -108 427 -108 c 0
 572 -108 l 1
 572 -149 l 0
 436 -148.349609375 l 1
 265.846679688 -148.879882812 249.149414062 -52.4599609375 249 1.3330078125 c 1
EndSplineSet
EndChar

StartChar: tml_Aa
Encoding: 4 2950 82
Width: 1251
VWidth: 0
Flags: HW
LayerCount: 3
Back
SplineSet
822 393 m 13
 822 387 l 5
 697 387 l 5
 697 393 l 4
 697 501.397460938 653.118164062 575 528 575 c 4
 393 575 355 477 355 331 c 5
 230 312 l 5
 230 320.543945312 230.025390625 386.865234375 230 395 c 4
 229.391601562 591 365.547851562 700.134765625 528 700 c 5
 712.377929688 700 822 577.788085938 822 393 c 13
454.5 113 m 5
 454.5 241 l 5
 476.615234375 249.5703125 497.892578125 276.977539062 497.892578125 310.106445312 c 4
 497.892578125 350.25390625 466.1484375 382 426 382 c 4
 385.852539062 382 354.106445312 350.25390625 354.106445312 310.106445312 c 4
 354.106445312 276.735351562 376.040039062 249.169921875 399.5 240.815429688 c 5
 399.5 113 l 5
 313.5 113 230 210 230 281 c 4
 230 328 l 6
 230 409.506835938 329.282385601 506.96321849 423 507 c 4
 532.482421875 507.04296875 623 418.078125 623 334 c 6
 623 281 l 6
 623 222 538.5 113 454.5 113 c 5
510 332 m 5
 594.333007812 332 737.666992188 332 822 332 c 5
 823 69 l 5
 823 -35.3046875 751 -130 622 -130 c 4
 456 -130 l 4
 456 -5 l 21
 610 -5 l 4
 678 -4.4453125 697 33.9345703125 697 69 c 5
 697 210 l 5
 655 210 552 210 510 210 c 5
 510 332 l 5
399 -5 m 5
 399 -130 l 5
 248 -130 l 4
 133 -130 40 -14.3388671875 40 108 c 4
 40 226.737304688 126 334 259 334 c 6
 349 334 l 5
 349 209 l 5
 241 209 l 4
 216 209 165 166 165 107.537109375 c 4
 165 49.5625 212 -5 259 -5 c 4
 399 -5 l 5
780 332 m 5
 876 332 l 5
 876 210 l 5
 780 210 l 5
 780 332 l 5
873 592 m 5
 998 592 l 5
 998 -110 l 5
 873 -110 l 5
 873 592 l 5
822 393 m 9
 822 387 l 1
 697 387 l 1
 697 393 l 0
 697 501.397460938 653.118164062 575 528 575 c 0
 393 575 355 477 355 331 c 1
 230 312 l 1
 230 320.543945312 230.025390625 386.865234375 230 395 c 0
 229.391601562 591 365.547851562 700.134765625 528 700 c 1
 712.377929688 700 822 577.788085938 822 393 c 9
454.5 113 m 1
 454.5 241 l 1
 476.615234375 249.5703125 497.892578125 276.977539062 497.892578125 310.106445312 c 0
 497.892578125 350.25390625 466.1484375 382 426 382 c 0
 385.852539062 382 354.106445312 350.25390625 354.106445312 310.106445312 c 0
 354.106445312 276.735351562 376.040039062 249.169921875 399.5 240.815429688 c 1
 399.5 113 l 1
 313.5 113 230 210 230 281 c 0
 230 328 l 2
 230 409.506835938 329.282385601 506.96321849 423 507 c 0
 532.482421875 507.04296875 623 418.078125 623 334 c 2
 623 281 l 2
 623 222 538.5 113 454.5 113 c 1
510 332 m 1
 594.333007812 332 737.666992188 332 822 332 c 1
 823 69 l 1
 823 -35.3046875 751 -130 622 -130 c 0
 456 -130 l 0
 456 -5 l 17
 610 -5 l 0
 678 -4.4453125 697 33.9345703125 697 69 c 1
 697 210 l 1
 655 210 552 210 510 210 c 1
 510 332 l 1
399 -5 m 1
 399 -130 l 1
 248 -130 l 0
 133 -130 40 -14.3388671875 40 108 c 0
 40 226.737304688 126 334 259 334 c 2
 349 334 l 1
 349 209 l 1
 241 209 l 0
 216 209 165 166 165 107.537109375 c 0
 165 49.5625 212 -5 259 -5 c 0
 399 -5 l 1
780 332 m 1
 876 332 l 1
 876 210 l 1
 780 210 l 1
 780 332 l 1
873 592 m 1
 998 592 l 1
 998 -110 l 1
 873 -110 l 1
 873 592 l 1
1031 -174.666992188 m 2
 1095 -174.631835938 1099 -154 1099 -104 c 0
 1099 22 l 2
 1099.47070312 69.025390625 1096 70 1053 70 c 0
 1053 195 l 1
 1146 195 1224 173 1224 22 c 0
 1224 -104 l 0
 1224 -215 1182 -300 1004 -300 c 0
 592 -300 l 1
 592 -175 l 1
 1031 -174.666992188 l 2
EndSplineSet
Fore
SplineSet
822 393 m 13
 822 387 l 5
 697 387 l 5
 697 393 l 4
 697 501.397460938 653.118164062 575 528 575 c 4
 393 575 355 477 355 331 c 5
 230 312 l 5
 230 320.543945312 230.025390625 386.865234375 230 395 c 4
 229.391601562 591 365.547851562 700.134765625 528 700 c 5
 712.377929688 700 822 577.788085938 822 393 c 13
454.5 113 m 5
 454.5 241 l 5
 476.615234375 249.5703125 497.892578125 276.977539062 497.892578125 310.106445312 c 4
 497.892578125 350.25390625 466.1484375 382 426 382 c 4
 385.852539062 382 354.106445312 350.25390625 354.106445312 310.106445312 c 4
 354.106445312 276.735351562 376.040039062 249.169921875 399.5 240.815429688 c 5
 399.5 113 l 5
 313.5 113 230 210 230 281 c 4
 230 328 l 6
 230 409.506835938 329.282385601 506.96321849 423 507 c 4
 532.482421875 507.04296875 623 418.078125 623 334 c 6
 623 281 l 6
 623 222 538.5 113 454.5 113 c 5
510 332 m 5
 594.333007812 332 737.666992188 332 822 332 c 5
 823 69 l 5
 823 -35.3046875 751 -130 622 -130 c 4
 456 -130 l 4
 456 -5 l 21
 610 -5 l 4
 678 -4.4453125 697 33.9345703125 697 69 c 5
 697 210 l 5
 655 210 552 210 510 210 c 5
 510 332 l 5
399 -5 m 5
 399 -130 l 5
 248 -130 l 4
 133 -130 40 -14.3388671875 40 108 c 4
 40 226.737304688 126 334 259 334 c 6
 349 334 l 5
 349 209 l 5
 241 209 l 4
 216 209 165 166 165 107.537109375 c 4
 165 49.5625 212 -5 259 -5 c 4
 399 -5 l 5
780 332 m 5
 876 332 l 5
 876 210 l 5
 780 210 l 5
 780 332 l 5
873 592 m 5
 998 592 l 5
 998 -110 l 5
 873 -110 l 5
 873 592 l 5
822 393 m 9
 822 387 l 1
 697 387 l 1
 697 393 l 0
 697 501.397460938 653.118164062 575 528 575 c 0
 393 575 355 477 355 331 c 1
 230 312 l 1
 230 320.543945312 230.025390625 386.865234375 230 395 c 0
 229.391601562 591 365.547851562 700.134765625 528 700 c 1
 712.377929688 700 822 577.788085938 822 393 c 9
454.5 113 m 1
 454.5 241 l 1
 476.615234375 249.5703125 497.892578125 276.977539062 497.892578125 310.106445312 c 0
 497.892578125 350.25390625 466.1484375 382 426 382 c 0
 385.852539062 382 354.106445312 350.25390625 354.106445312 310.106445312 c 0
 354.106445312 276.735351562 376.040039062 249.169921875 399.5 240.815429688 c 1
 399.5 113 l 1
 313.5 113 230 210 230 281 c 0
 230 328 l 2
 230 409.506835938 329.282385601 506.96321849 423 507 c 0
 532.482421875 507.04296875 623 418.078125 623 334 c 2
 623 281 l 2
 623 222 538.5 113 454.5 113 c 1
510 332 m 1
 594.333007812 332 737.666992188 332 822 332 c 1
 823 69 l 1
 823 -35.3046875 751 -130 622 -130 c 0
 456 -130 l 0
 456 -5 l 17
 610 -5 l 0
 678 -4.4453125 697 33.9345703125 697 69 c 1
 697 210 l 1
 655 210 552 210 510 210 c 1
 510 332 l 1
399 -5 m 1
 399 -130 l 1
 248 -130 l 0
 133 -130 40 -14.3388671875 40 108 c 0
 40 226.737304688 126 334 259 334 c 2
 349 334 l 1
 349 209 l 1
 241 209 l 0
 216 209 165 166 165 107.537109375 c 0
 165 49.5625 212 -5 259 -5 c 0
 399 -5 l 1
780 332 m 1
 876 332 l 1
 876 210 l 1
 780 210 l 1
 780 332 l 1
873 592 m 1
 998 592 l 1
 998 -110 l 1
 873 -110 l 1
 873 592 l 1
1031 -174.666992188 m 2
 1095 -174.631835938 1099 -154 1099 -104 c 0
 1099 22 l 2
 1099.47070312 69.025390625 1096 70 1053 70 c 0
 1053 195 l 1
 1146 195 1224 173 1224 22 c 0
 1224 -104 l 0
 1224 -215 1182 -300 1004 -300 c 0
 592 -300 l 1
 592 -175 l 1
 1031 -174.666992188 l 2
EndSplineSet
EndChar

StartChar: tml_I
Encoding: 5 2951 83
Width: 1171
VWidth: 0
Flags: HW
LayerCount: 3
Back
SplineSet
803 316 m 1
 803 362 742.235351562 434 633 434 c 0
 537 434 475 369 475 269 c 1
 350 256 l 1
 350 474 493.063476562 553.977539062 633 558 c 1
 779.377929688 558 928 461.788085938 928 316 c 9
 928 316 l 1
 803 316 l 1
 803 316 l 1
631 723.037109375 m 0
 825.073242188 723.453125 1092 603.749023438 1092 316 c 1
 967 316 l 1
 967 548.740234375 721.314453125 597.950195312 635 597.500976562 c 0
 478.86328125 596.6875 310 503 310 257.192382812 c 0
 179 236 l 1
 179 561 396.525390625 722.534179688 631 723.037109375 c 0
506 -22 m 1
 392 -84 l 0
 296 -94 186 37 186 144 c 1
 313 145 l 1
 325 72 407 -2 506 -22 c 1
675 264 m 1
 759.333007812 264 843.666992188 264 928 264 c 1
 928 52 l 1
 928 -52.3046875 856 -144 727 -144 c 0
 562 -144 l 0
 561 -22 l 17
 715 -22 l 0
 783 -21.4453125 803 16.9345703125 803 52 c 1
 803 139 l 1
 761 139 717 139 675 139 c 1
 675 264 l 1
561 160 m 1
 588 160.333007812 607 195 607 224 c 0
 607 250 586 286 553 286 c 0
 548.01953125 286 518.705078125 285 513 285 c 0
 483 285 459 255 459 224 c 0
 459 190 484 160.333007812 506 160 c 1
 506 36 l 17
 403 36 351 133 351 172 c 0
 350 256 l 2
 350 337.506835938 455.282226562 411 553 411 c 0
 646 411 730 319 730 243 c 0
 730 174 l 2
 730 124 655 36 561 36 c 9
 561 160 l 1
506 -22 m 1
 506 -144 l 1
 306 -144 l 0
 120 -144 40 -47.3388671875 40 60 c 0
 40 182 144 261 284 261 c 2
 441 261 l 1
 441 133 l 1
 254 134 l 0
 212 134 164 104 164 59.537109375 c 0
 164 22.5625 195 -22 264 -22 c 0
 506 -22 l 1
928 264 m 1
 1070 264 1131 181 1131 75 c 2
 1131 40 l 1
 1131 -38.3203125 1050 -154.400390625 894 -135 c 1
 952 -12 l 1
 999 0 1005 36 1005 67.9833984375 c 0
 1005 115 968 138.983398438 928 138.983398438 c 1
 928 264 l 1
EndSplineSet
Fore
SplineSet
803 316 m 1
 803 362 742.235351562 434 633 434 c 0
 537 434 475 369 475 269 c 1
 350 256 l 1
 350 474 493.063476562 553.977539062 633 558 c 1
 779.377929688 558 928 461.788085938 928 316 c 9
 928 316 l 1
 803 316 l 1
 803 316 l 1
631 723.037109375 m 0
 825.073242188 723.453125 1092 603.749023438 1092 316 c 1
 967 316 l 1
 967 548.740234375 721.314453125 597.950195312 635 597.500976562 c 0
 478.86328125 596.6875 310 503 310 257.192382812 c 0
 179 236 l 1
 179 561 396.525390625 722.534179688 631 723.037109375 c 0
506 -22 m 1
 392 -84 l 0
 296 -94 186 37 186 144 c 1
 313 145 l 1
 325 72 407 -2 506 -22 c 1
675 264 m 1
 759.333007812 264 843.666992188 264 928 264 c 1
 928 52 l 1
 928 -52.3046875 856 -144 727 -144 c 0
 562 -144 l 0
 561 -22 l 17
 715 -22 l 0
 783 -21.4453125 803 16.9345703125 803 52 c 1
 803 139 l 1
 761 139 717 139 675 139 c 1
 675 264 l 1
561 160 m 1
 588 160.333007812 607 195 607 224 c 0
 607 250 586 286 553 286 c 0
 548.01953125 286 518.705078125 285 513 285 c 0
 483 285 459 255 459 224 c 0
 459 190 484 160.333007812 506 160 c 1
 506 36 l 17
 403 36 351 133 351 172 c 0
 350 256 l 2
 350 337.506835938 455.282226562 411 553 411 c 0
 646 411 730 319 730 243 c 0
 730 174 l 2
 730 124 655 36 561 36 c 9
 561 160 l 1
506 -22 m 1
 506 -144 l 1
 306 -144 l 0
 120 -144 40 -47.3388671875 40 60 c 0
 40 182 144 261 284 261 c 2
 441 261 l 1
 441 133 l 1
 254 134 l 0
 212 134 164 104 164 59.537109375 c 0
 164 22.5625 195 -22 264 -22 c 0
 506 -22 l 1
928 264 m 1
 1070 264 1131 181 1131 75 c 2
 1131 40 l 1
 1131 -38.3203125 1050 -154.400390625 894 -135 c 1
 952 -12 l 1
 999 0 1005 36 1005 67.9833984375 c 0
 1005 115 968 138.983398438 928 138.983398438 c 1
 928 264 l 1
EndSplineSet
EndChar

StartChar: tml_Ka
Encoding: 15 2965 84
Width: 829
VWidth: 0
Flags: HW
LayerCount: 3
Back
SplineSet
330 -1 m 9
 330 125 l 1
 398 125 429 145.0234375 429 191.940429688 c 0
 429 602 l 1
 554 602 l 1
 554 196 l 2
 554 98.0185546875 501 -1 330 -1 c 9
168 356 m 17
 168 600 l 1
 294 600 l 1
 293 356 l 1
 168 356 l 17
389 606 m 1
 689 606 l 1
 689 481 l 1
 389 481 l 1
 389 606 l 1
168 606 m 1
 334 606 l 1
 334 481 l 1
 168 481 l 1
 168 606 l 1
244 255 m 2
 178.0078125 254.795898438 164 245 164 192.940429688 c 0
 164 130.165039062 184 124.977539062 275 125 c 1
 275 -1 l 1
 114 -1 40 69.7568359375 40 161 c 0
 40 222.814453125 l 0
 40 333 153 380 241 380 c 0
 346.666992188 380 445.333007812 380 551 380 c 0
 626 380 796 369 796 224.165039062 c 2
 796 163.165039062 l 0
 796 70 703 1.6796875 566 1.8447265625 c 1
 568 127.165039062 l 0
 620 127.165039062 671 132 671 189 c 0
 671 251.0078125 621 255 567 255 c 2
 244 255 l 2
EndSplineSet
Fore
SplineSet
330 -1 m 9
 330 39 l 1
 424 39 514 82.0234375 514 191.940429688 c 0
 514 605 l 1
 554 605 l 1
 554 196 l 2
 554 102.018554688 497 -1 330 -1 c 9
168 318 m 17
 168 603 l 1
 209 603 l 1
 208 318 l 1
 168 318 l 17
389 609 m 1
 689 609 l 1
 689 569 l 1
 389 569 l 1
 389 609 l 1
168 609 m 1
 334 609 l 1
 334 569 l 1
 168 569 l 1
 168 609 l 1
206 296 m 2
 87.0078125 296 80 236 80 192.940429688 c 0
 80 75.1650390625 171 38.9775390625 275 39 c 1
 275 -1 l 1
 110 -1 40 84.7568359375 40 185 c 0
 40 204.814453125 l 0
 40 310 123 336 214 336 c 0
 319.666992188 336 556.333007812 336 662 336 c 0
 737 336 796 295 796 198.165039062 c 2
 796 183.165039062 l 0
 796 90 721 1.6796875 566 1.8447265625 c 1
 568 42.1650390625 l 0
 621 42.1650390625 755 58 755 189 c 0
 755 300.0078125 679 296 646 296 c 2
 206 296 l 2
EndSplineSet
EndChar

StartChar: tml_Ca
Encoding: 17 2970 85
Width: 744
VWidth: 0
Flags: HW
LayerCount: 3
Back
SplineSet
658 380 m 9
 658 255 l 1
 244 255 l 2
 178.0078125 254.795898438 164 245 164 192.940429688 c 0
 164 130.165039062 184 124.977539062 275 125 c 1
 275 -1 l 1
 114 0 40 69.7568359375 40 161 c 0
 40 222.814453125 l 0
 40 333 153 380 241 380 c 0
 658 380 l 9
330 -1 m 9
 330 125 l 1
 398 125 429 145.0234375 429 191.940429688 c 0
 429 602 l 1
 554 602 l 1
 554 196 l 2
 554 98.0185546875 501 -1 330 -1 c 9
168 356 m 17
 168 600 l 1
 294 600 l 1
 293 356 l 1
 168 356 l 17
390 606 m 1
 704 606 l 1
 704 481 l 1
 390 481 l 1
 390 606 l 1
168 606 m 1
 335 606 l 1
 335 481 l 1
 168 481 l 1
 168 606 l 1
EndSplineSet
Fore
SplineSet
658 336 m 9
 658 296 l 1
 184 296 l 2
 102.3671875 296 80.2734375 267.998046875 80 220 c 0
 80 166.940429688 l 0
 80 99.1650390625 131 38.9775390625 275 39 c 1
 275 -1 l 1
 119 0 40 63.7568359375 40 167 c 0
 40 222.814453125 l 0
 40 333 137 336 225 336 c 0
 658 336 l 9
330 -1 m 9
 330 39 l 1
 467 39 511 119.0234375 511 189.940429688 c 0
 511 605 l 1
 554 605 l 1
 554 196 l 2
 554 98.0185546875 501 -1 330 -1 c 9
168 311 m 17
 168 603 l 1
 216 603 l 1
 215 311 l 1
 168 311 l 17
390 609 m 1
 704 609 l 1
 704 569 l 1
 390 569 l 1
 390 609 l 1
168 609 m 1
 335 609 l 1
 335 569 l 1
 168 569 l 1
 168 609 l 1
EndSplineSet
EndChar

StartChar: tml_Ta
Encoding: 22 2980 86
Width: 809
VWidth: 0
Flags: HW
LayerCount: 3
Back
SplineSet
751 155 m 1
 751 25 l 0
 751 -43 730 -162 573 -162 c 0
 324 -162 l 2
 302.037109375 -162 264 -161 264 -226 c 0
 264 -262 l 1
 133 -262 l 1
 133 -232 l 1
 133 -99.1923828125 223 -37 344 -37 c 0
 572 -37 l 0
 622 -37 625 -6 625 25 c 0
 626 155 l 1
 751 155 l 1
40 169 m 9
 166 169 l 17
 173.004882812 131.557617188 200.586914062 127.981445312 275 128 c 1
 275 2 l 1
 111.241210938 2 40 74.08984375 40 169 c 9
164 210 m 17
 164 250.741210938 185.8671875 257.8203125 244 258 c 2
 581 258 l 1
 581 383 l 1
 241 383 l 2
 153.499023438 383 40 336 40 225.814453125 c 0
 40 210 l 9
 164 210 l 17
626 210 m 9
 751 210 l 1
 751 210 l 0
 751 361 671 383 578 383 c 1
 578 258 l 0
 621 258 626 257 626 210 c 2
 626 210 l 9
330 2 m 17
 501 2 554 101.018554688 554 199 c 2
 554 605 l 1
 429 605 l 1
 429 194.940429688 l 0
 429 148.0234375 398 128 330 128 c 1
 330 2 l 17
168 359 m 9
 293 359 l 1
 294 603 l 1
 168 603 l 1
 168 359 l 9
389 609 m 1
 389 484 l 1
 689 484 l 1
 689 609 l 1
 389 609 l 1
168 609 m 1
 168 484 l 1
 334 484 l 1
 334 609 l 1
 168 609 l 1
EndSplineSet
Fore
SplineSet
751 155 m 1
 751 28 l 0
 751 -47 732 -162 570 -162 c 0
 238 -162 l 2
 216.037109375 -162 178 -161 178 -226 c 0
 178 -262 l 1
 133 -262 l 1
 133 -232 l 1
 133 -117.192382812 205 -122 292 -122 c 0
 577 -122 l 0
 682 -122 710 -41 710 28 c 0
 711 155 l 1
 751 155 l 1
40 169 m 9
 82 169 l 17
 82.0048828125 90.5576171875 143.586914062 41.9814453125 275 42 c 1
 275 2 l 1
 93.241210938 2 40 93.08984375 40 169 c 9
80 210 m 17
 80 261.741210938 91.8671875 296 160 296 c 2
 658 296 l 1
 658 337 l 1
 165 337 l 2
 124.499023438 337 40 323 40 225.814453125 c 0
 40 210 l 9
 80 210 l 17
711 210 m 9
 751 210 l 1
 751 210 l 0
 751 321 707 337 655 337 c 1
 655 296 l 0
 708 296 711 257 711 210 c 2
 711 210 l 9
330 2 m 17
 501 2 554 90.0185546875 554 206 c 2
 554 605 l 1
 513 605 l 1
 513 196.940429688 l 0
 513 60.0234375 403 42 330 42 c 1
 330 2 l 17
168 323 m 9
 216 323 l 1
 216 603 l 1
 168 603 l 1
 168 323 l 9
389 609 m 1
 389 569 l 1
 689 569 l 1
 689 609 l 1
 389 609 l 1
168 609 m 1
 168 569 l 1
 334 569 l 1
 334 609 l 1
 168 609 l 1
EndSplineSet
EndChar

StartChar: uni0D86
Encoding: 575 3462 87
Width: 1024
VWidth: 0
LayerCount: 3
Fore
SplineSet
526 463 m 1
 449.005859375 442.508789062 455.724609375 417.513671875 454.791992188 377 c 0
 454 139.5078125 l 1
 526 139.5078125 l 1
 526 0 l 1
 454 -0.1201171875 l 1
 454 -205 l 1
 324 -205 l 1
 324 409 l 0
 324.252929688 494.813476562 371.529296875 575.489257812 526 605 c 1
 526 463 l 1
185 220.278320312 m 1
 184.859375 168.165039062 226.416992188 136.204101562 269 136 c 0
 269 0 l 0
 149.319335938 0 42.9111328125 82.041015625 42.447265625 222 c 0
 42.03125 347.57421875 137.70703125 439.055664062 269 438.552734375 c 2
 324.553710938 438.33984375 l 1
 324.524414062 461.627929688 277.994140625 491 218 491 c 0
 172.872070312 491 123.5078125 473.150390625 91 440 c 1
 91.9990234375 568.38671875 l 1
 117.666992188 591.94140625 164.05078125 613.017578125 242.857421875 613.017578125 c 0
 339.625 613.017578125 455 556.27734375 455 414 c 1
 454 304 l 1
 265.690429688 303.884765625 l 2
 232.274414062 303.864257812 185.2109375 277.826171875 185 220.278320312 c 1
580.825195312 603.874023438 m 5
 814.87890625 603.874023438 l 5
 815 472 l 5
 758.293945312 399.892578125 701 327.677734375 701 218 c 4
 701 107.9453125 793.663085938 122.098632812 819 130 c 5
 819 8 l 5
 737 -12.3818359375 654.318359375 13.6396484375 611 67 c 4
 524.297851562 171.298828125 595.9453125 381.045898438 657.279296875 465.561523438 c 5
 580.823242188 465.561523438 l 5
 580.825195312 603.874023438 l 5
EndSplineSet
EndChar

StartChar: uni0D87
Encoding: 576 3463 88
Width: 1024
VWidth: 0
LayerCount: 3
Fore
SplineSet
504 463 m 1
 427.005859375 442.508789062 433.724609375 417.513671875 432.791992188 377 c 0
 432 139.5078125 l 1
 504 139.5078125 l 1
 504 0 l 1
 432 -0.1201171875 l 1
 432 -205 l 1
 302 -205 l 1
 302 409 l 0
 302.252929688 494.813476562 349.529296875 575.489257812 504 605 c 1
 504 463 l 1
163 220.278320312 m 1
 162.859375 168.165039062 204.416992188 136.204101562 247 136 c 0
 247 0 l 0
 127.319335938 0 20.9111328125 82.041015625 20.447265625 222 c 0
 20.03125 347.57421875 115.70703125 439.055664062 247 438.552734375 c 2
 302.553710938 438.33984375 l 1
 302.524414062 461.627929688 255.994140625 491 196 491 c 0
 150.872070312 491 101.5078125 473.150390625 69 440 c 1
 69.9990234375 568.38671875 l 1
 95.6669921875 591.94140625 142.05078125 613.017578125 220.857421875 613.017578125 c 0
 317.625 613.017578125 433 556.27734375 433 414 c 1
 432 304 l 1
 243.690429688 303.884765625 l 2
 210.274414062 303.864257812 163.2109375 277.826171875 163 220.278320312 c 1
EndSplineSet
EndChar

StartChar: uni0D88
Encoding: 577 3464 89
Width: 1024
VWidth: 0
LayerCount: 3
Fore
SplineSet
504 463 m 1
 427.005859375 442.508789062 433.724609375 417.513671875 432.791992188 377 c 0
 432 139.5078125 l 1
 504 139.5078125 l 1
 504 0 l 1
 432 -0.1201171875 l 1
 432 -205 l 1
 302 -205 l 1
 302 409 l 0
 302.252929688 494.813476562 349.529296875 575.489257812 504 605 c 1
 504 463 l 1
163 220.278320312 m 1
 162.859375 168.165039062 204.416992188 136.204101562 247 136 c 0
 247 0 l 0
 127.319335938 0 20.9111328125 82.041015625 20.447265625 222 c 0
 20.03125 347.57421875 115.70703125 439.055664062 247 438.552734375 c 2
 302.553710938 438.33984375 l 1
 302.524414062 461.627929688 255.994140625 491 196 491 c 0
 150.872070312 491 101.5078125 473.150390625 69 440 c 1
 69.9990234375 568.38671875 l 1
 95.6669921875 591.94140625 142.05078125 613.017578125 220.857421875 613.017578125 c 0
 317.625 613.017578125 433 556.27734375 433 414 c 1
 432 304 l 1
 243.690429688 303.884765625 l 2
 210.274414062 303.864257812 163.2109375 277.826171875 163 220.278320312 c 1
EndSplineSet
EndChar

StartChar: uni0D89
Encoding: 578 3465 90
Width: 1024
VWidth: 0
LayerCount: 3
Fore
SplineSet
297 532 m 5xdc
 358.321289062 579 433 595 495 595 c 4
 644.546633184 595 784 511.257446435 784 364 c 10
 784 229 l 2
 784 85.3681640625 733.16796875 0 668 0 c 10
 600 0 l 1
 600 110 l 17
 657 110 660 155.364257812 660 233 c 2
 660 356 l 2
 660 437.995117188 575.421875 473.56640625 503 478 c 2
 484 478 l 2xbc
 447.962890625 478 383.135454998 465.318769937 322 393 c 2
 158 199 l 1
 160 167 149.057617188 108 215.407226562 108 c 0
 251.19140625 108 261 128.740234375 261 160 c 2
 261 200 l 1
 363 200 l 1
 363 162 l 2
 363 137.081054688 381.939453125 113.577148438 413.385742188 113.577148438 c 0
 432.908203125 113.577148438 462 122.30078125 462 184 c 2
 462 229 l 2
 462 301 328 293 328 293 c 1
 386 392 l 1
 462 392 566.196652379 361.917610401 566 254 c 2
 565.823242188 157 l 2
 565.727539062 89.9873046875 510.25 0 420 0 c 0
 341 0 317 32 317 32 c 0
 317 32 310 0 228.455078125 0 c 0
 99.455078125 0 84 113 84 113 c 1
 59.7685546875 85 l 1
 -21 157 l 1
 211 431 l 1
 203.03125 456.325195312 181.005859375 464.12890625 156.884765625 464.12890625 c 0
 118.145507812 464.12890625 74 444 74 444 c 1
 74 564 l 1
 119.283203125 580.981445312 158.681640625 588 190 588 c 0
 269.33984375 588 297 532 297 532 c 5xdc
EndSplineSet
EndChar

StartChar: uni0D8A
Encoding: 579 3466 91
Width: 1024
VWidth: 0
LayerCount: 3
Fore
SplineSet
541.5 -6.9091796875 m 0xe4
 697.439453125 6.16796875 761.983398438 128.96484375 762.732421875 285 c 0
 763.569335938 459.409179688 679.5 589 541.5 589 c 1
 541.5 447 l 1
 617.5 427 624.25 343.991210938 624.25 285 c 0
 624.25 241 615.1015625 158.474609375 541.5 135 c 1
 541.5 -6.9091796875 l 0xe4
494 447 m 17
 449 447 422.264648438 373 422.264648438 340.065429688 c 1
 461 308 l 1
 488.286132812 281.361328125 504 230 504 182 c 0
 504 65 456 -8 298 -8 c 1
 298 135 l 0
 337.30078125 136.145507812 362.270507812 139.142578125 361.96484375 175.815429688 c 0
 361.69140625 208.6171875 343.666992188 231.827148438 342 234 c 1
 298 262.694335938 l 1
 288.046875 277.155273438 279.426757812 317.3515625 279.379882812 348.321289062 c 0
 279.202148438 464.87109375 357 590 494 590 c 1
 494 447 l 17
250 -6.9091796875 m 0
 94.060546875 6.16796875 29.5163242447 128.964628643 28.767578125 285 c 0
 27.9306640625 459.409179688 112 589 250 589 c 1
 250 447 l 1
 174 427 170.25 343.990952868 170.25 285 c 0
 170.25 241 176.3984375 158.474609375 250 135 c 1
 250 -6.9091796875 l 0
EndSplineSet
EndChar

StartChar: uni0D8B
Encoding: 580 3467 92
Width: 1024
VWidth: 0
LayerCount: 3
Fore
SplineSet
254.498046875 754.517578125 m 1
 254.498046875 615.587890625 l 1
 216.625 611.391601562 175.286132812 603.088867188 148.998046875 547.115234375 c 1
 48 632.145507812 l 1
 85.380859375 702.681640625 152.130859375 754.323242188 254.498046875 754.517578125 c 1
309.498046875 615.708007812 m 1
 309.498046875 754.662109375 l 1
 524.84765625 754.489257812 558.5 547.458007812 558.5 366.627929688 c 0
 558.5 157.569335938 505.967773438 -4.8525390625 310.498046875 -5.0576171875 c 1
 310.498046875 139.919921875 l 1
 397.827148438 140.971679688 414.498046875 238.548828125 414.498046875 362 c 0
 414.498046875 518.208984375 393.698242188 606.91015625 309.498046875 615.708007812 c 1
254.498046875 140.5 m 1
 254.498046875 -5.5 l 1
 110.209960938 -5.5 31.7216796875 124.220703125 31.7216796875 250.768554688 c 0
 31.7216796875 375.692382812 102.369140625 497.64453125 254.498046875 498.54296875 c 1
 254.498046875 351.5 l 1
 213.984375 346.5 170.498046875 319.497070312 170.498046875 248 c 0
 170.498046875 192.58984375 203.786132812 141.1328125 254.498046875 140.5 c 1
EndSplineSet
EndChar

StartChar: uni0D8C
Encoding: 581 3468 93
Width: 1024
VWidth: 0
LayerCount: 3
Fore
SplineSet
478.565429688 -5.6044921875 m 0x8740
 428.975253131 -5.6044921875 384.781858984 7.3173828125 354.318359375 40.494140625 c 1
 326.431557807 6.8642578125 281.488491746 -5.9248046875 242.193359375 -5.9248046875 c 0
 114.457050589 -5.9248046875 55.2550061687 85.7116363973 54.2939453125 202 c 1
 195 202 l 1
 195 182.5 l 2
 195 136.684521233 227.00542088 124.681640625 245.223632812 124.681640625 c 0
 261.420894968 124.681640625 293.600500913 135.023173584 293.645507812 179.033203125 c 2
 293.720703125 251.075195312 l 1
 410.711914062 251.075195312 l 1
 410.522460938 186.025390625 l 2
 410.383562969 138.333985033 436.94531894 125.366115984 466.50390625 125.336914062 c 0
 486.028318176 125.317625239 512 143.012151331 512 185.5 c 2
 512 202 l 1
 652 202 l 1
 652 42.6521372434 576.946743083 -5.6044921875 478.565429688 -5.6044921875 c 0x8740
56.9462890625 295.5 m 1xa640
 16.5 295.5 l 1
 15.5 395.5 l 1
 205.973632812 395.5 l 1
 192.668468183 422.860620436 170.102125771 433.426442249 141.817990148 433.426442249 c 0
 119.923628789 433.426442249 94.603111015 427.095300697 67.5 417.322265625 c 1
 67.5 536.265625 l 1
 95.025891721 546.202515328 124.210954881 550.042688329 151.822991893 550.042688329 c 0
 197.460366134 550.042688329 239.276266765 540.490403792 261.25 528.759765625 c 0
 312.148718463 501.587575854 343 464.019033886 343 401 c 2
 343 296 l 1
 218 295.5 l 2xae40
 194.079327529 295.40431731 194 289.274863507 194 251 c 1
 54 251 l 1xc640
 54 267.051955755 54.6529832254 282.532440084 56.9462890625 295.5 c 1xa640
511.987304688 251 m 1xd6c0
 512 462 l 2
 512.000000256 462.008493434 l 0
 512.000000256 498.568842552 497.796868557 535.96979761 471.99609375 566 c 0
 458.731770557 581.438695661 436.672394297 596.633248645 400 603 c 1
 400.396872592 542.600514672 430.306499717 498 468.999023438 498 c 1
 469 409 l 1
 365.809134232 409.938563872 309.988202283 519.762813679 309 619 c 1
 284.082565544 622.480638222 259.964645096 623.685588777 233.874023438 623.706054688 c 1
 233.475585938 757.456054688 l 1
 421.349244255 756.559751102 544.004848102 739.482413526 606.001953125 624 c 0
 649.303255211 543.342381037 654 485.110852064 654 380 c 2
 654 251 l 1
 511.987304688 251 l 1xd6c0
EndSplineSet
EndChar

StartChar: uni0D8D
Encoding: 582 3469 94
Width: 1024
VWidth: 0
LayerCount: 3
Fore
SplineSet
121.125 25.431640625 m 1
 22 102 l 1
 22 102 80.3671875 197.000976562 176.6015625 197.000976562 c 0
 255.916992188 197.000976562 294.985351562 134.997070312 370.547851562 134.997070312 c 0
 438.922851562 134.997070312 483 185.918945312 483 292 c 0
 483 308.90625 482.717773438 346.5390625 468.056640625 373.318359375 c 1
 553 471 l 1
 589.09329144 423.979083394 607.5 381.617136401 607.5 296 c 0
 607.5 127.852539062 518.315429688 -0.5 372 -0.5 c 0
 263.567382812 -0.5 225.163084394 66.1790993454 180.37890625 66.0009765625 c 0
 148.459960938 65.8740234375 121.125 25.431640625 121.125 25.431640625 c 1
790.112304688 522.221679688 m 1
 811.05859375 543.473632812 845.801757812 562.508789062 898.69140625 562.508789062 c 0
 899.36328125 562.508789062 900.038087068 562.505988727 900.715820312 562.5 c 0
 998.6328125 561.634765625 1064.15200766 512.181639534 1064.5 405 c 2
 1065 251 l 1
 925 251 l 1
 924.965820312 353.958984375 l 0
 924.72265625 398.55859375 918.578125 420.5 888.010742188 420.5 c 1
 859.423828125 420.416015625 852.611328125 397.26953125 852.575195312 351.994140625 c 0
 852 251 l 1
 716.889648438 251 l 1
 717.5 350.00390625 l 1
 717.5 403.5625 699.393556851 420.362613286 678.516601562 420.508789062 c 0
 650.482421875 420.705078125 650 410 645.82421875 406.888671875 c 1
 585.700195312 507.639648438 l 1
 590.253798588 516.168682082 615.391450049 562.508789062 696.270507812 562.508789062 c 0
 741.393554688 562.508789062 771.481445312 543.091796875 790.112304688 522.221679688 c 1
924.483398438 202 m 1
 1064 202 l 1
 1063.48339844 180.500976562 l 4
 1062.82617188 55.5576171875 960.697265625 -6.5 844.194335938 -6.5 c 0
 698.779296875 -6.5 626.5 68.6357421875 626.5 164 c 0
 626.483398438 202 l 1
 766.483398438 202 l 1
 766.5 187 l 0
 766.5 140.99609375 810.192382812 125.5 843 125.5 c 0
 878.420898438 125.5 924.5 135.9296875 924.5 185 c 0
 924.483398438 202 l 1
337.703125 472.751953125 m 0
 302.038085938 472.396484375 263.847694291 454.283202631 263.196289062 404.125 c 0
 263.194335938 403.974609375 263.193359375 403.823242188 263.193359375 403.670898438 c 0
 263.193359375 324.659179688 339.297851562 315.978515625 392.416992188 361 c 1
 392 232 l 1
 275.282226562 169.892578125 128 257.203125 128 391 c 0
 128 528.413085938 229.399191426 602.5 339 602.5 c 0
 362.102367912 602.5 397.464602126 601.001065341 423 592 c 1
 566.100585938 760.552734375 l 1
 665.025390625 674.79296875 l 1
 440 412 l 1
 417.125 448.265625 380.319335938 472.755859375 338.560546875 472.755859375 c 0
 338.275390625 472.755859375 337.989258599 472.754804981 337.703125 472.751953125 c 0
EndSplineSet
EndChar

StartChar: uni0D8E
Encoding: 583 3470 95
Width: 1024
VWidth: 0
LayerCount: 3
Fore
SplineSet
289 530 m 1xb8
 350.822773186 602 430 595 456 595 c 2
 475 595 l 2
 603 595 708 496 708 340 c 10
 708 218 l 2
 708 74.3681640625 661.16796875 -1.18992511919e-14 564 0 c 10
 508 0 l 1
 508 110 l 17x78
 602 114 584 151 584 233 c 2
 584 340 l 2
 584 409.995117188 534.168945312 470.538085938 473 472 c 2
 449.712890625 473 l 2
 430.379882812 473.830078125 393.985680801 474.884651874 335.850585938 407 c 2
 168 211 l 1
 184 177 218.03125 119.008789062 260 117.6484375 c 2
 283 117 l 18
 326 117 355 150.34375 355 197 c 10
 355 230 l 2
 355 271 296 273 296 273 c 1
 368 361 l 1
 421 360 475.064453125 291.9921875 475 247 c 2
 474.823242188 183 l 18
 474.362030053 16.0055335745 331 0 331 0 c 2
 246 0 l 2
 155 0 91 122 91 122 c 1
 67 93 l 1
 0.001953125 192 l 1
 205 431 l 1
 184.233398438 497 49 444 49 444 c 1
 49 561 l 17
 209 621 289 530 289 530 c 1xb8
EndSplineSet
EndChar

StartChar: uni0D8F
Encoding: 584 3471 96
Width: 1024
VWidth: 0
LayerCount: 3
Fore
SplineSet
419.3515625 460 m 1
 303.3515625 460 l 1
 302.864962687 485.36735026 283.174272751 499 266 499 c 0
 245.864769912 499 226.576985677 483.64078776 226 460 c 1
 99.3515625 460 l 1
 99.3515625 547.271484375 154.017578125 608.017578125 261.857421875 608.017578125 c 0
 357.809570312 608.017578125 419.3515625 547.587890625 419.3515625 460 c 1
187.41796875 -48 m 1
 187.41796875 -145.443240893 247.4141338 -216.752929688 357.103515625 -216.752929688 c 0
 430.13388788 -216.752929688 469.624466359 -175.620442514 485 -155 c 1
 413.103515625 -60 l 1
 404.413208356 -83.2994633122 385.464788437 -94.9841233744 364.497038407 -94.9197330538 c 0
 336.915988746 -94.8350338072 315.590820312 -71.3166571918 315.590820312 -48.1328125 c 1
 187.41796875 -48 l 1
160.999975457 218.243212719 m 0
 160.999975457 271.247795331 197.553868335 293.884765625 248.690429688 293.884765625 c 2
 419.309570312 293.884765625 l 1
 419.309570312 420.33984375 l 1
 224.553710938 420.33984375 l 2
 95.8367898047 420.33984375 18.6344542211 344.162208003 18.6344542211 222.985794185 c 0
 18.6344542211 100.795362143 102.525699669 0 212 0 c 0
 285 -0.1279296875 l 0
 342.146051358 0.571958725849 389.613362229 26.106035777 423 57 c 1
 352 170 l 1
 323.583333333 143.538461538 302.945023403 140 267 140 c 0
 191.155172414 140 160.999975457 177.595542657 160.999975457 218.243212719 c 0
EndSplineSet
EndChar

StartChar: uni0D90
Encoding: 585 3472 97
Width: 1024
VWidth: 0
LayerCount: 3
Fore
SplineSet
322.6484375 527.002929688 m 1
 385.219462814 593.699684669 470.08203125 603.04296875 503.612304688 603.04296875 c 0
 643.395507812 603.04296875 772.5 512.537856191 772.5 292 c 0
 772.5 73.0664648725 693.165796482 -7.5 556.5 -7.5 c 1
 556.5 124.450195312 l 1
 629.940809195 124.941340436 640.857421875 196.666015625 640.857421875 291.325195312 c 0
 640.857421875 404.294921875 591.385742188 468.618164062 509.727539062 468.618164062 c 0
 458.953125 468.618164062 431.966796875 453.319335938 391.705078125 406.131835938 c 0
 313 315 l 1
 267.39453125 258.862304688 214.611328125 204.614257812 185.116210938 203.903320312 c 1
 192.998046875 173.556640625 222.764648438 113.5 307 113.5 c 0
 365.180664062 113.5 405.504882812 160.462890625 405.504882812 214 c 4
 405.504882812 271.072265625 384.010742188 287.51171875 361.272460938 306.569335938 c 1
 438.375976562 396.611328125 l 1
 519.574868392 349.892385643 536.760742188 268.739257812 536.760742188 212.631835938 c 0
 536.760742188 19.8857421875 381.181640625 -11.5 311 -11.5 c 0
 28.4892578125 -11.5 27.5322265625 361.28515625 27.462890625 366 c 1
 145 366 l 1
 145.69921875 349.986328125 150.004882812 322.672851562 151.998046875 317.452148438 c 1
 179.032226562 317.90625 237.384801479 390.184617553 237.384801479 426.286351318 c 0
 237.384765625 426.34375 l 1
 228.870117188 453.583007812 200.879882812 463.997070312 174.498046875 463.997070312 c 0
 124.940149138 463.997070312 97.0850323104 437.030751444 86.5 429.861328125 c 1
 86.5 566.197265625 l 1
 125.310221005 580.754019199 163.635012097 588.372070312 193.924804688 588.372070312 c 0
 267.513671875 588.372070312 309.315429688 544.0703125 322.6484375 527.002929688 c 1
EndSplineSet
EndChar

StartChar: uni0D91
Encoding: 586 3473 98
Width: 1024
VWidth: 0
LayerCount: 3
Fore
SplineSet
589.765625 460.07421875 m 5x9e
 453.924804688 460.07421875 l 5
 453.7890625 483.635742188 436.721679688 498.4296875 416.05078125 498.4296875 c 4
 391.760742188 498.4296875 377.421875 479.086914062 377.036132812 460.07421875 c 5
 255.577148438 460.07421875 l 5
 255.41796875 479.34375 241.758789062 498.5 215.704101562 498.5 c 4
 192.71484375 498.5 178.689453125 478.234375 178.689453125 460.07421875 c 5
 42.748046875 460.07421875 l 5
 42.748046875 552.983398438 107.4765625 611.5 205.747070312 611.5 c 4
 251.221679688 611.5 288.85546875 600.646484375 316.194335938 580.581054688 c 5
 347.087890625 605.818359375 392.78125 612.5 427.094726562 612.5 c 4
 532.0625 612.5 589.765625 549.266601562 589.765625 460.07421875 c 5x9e
473.061523438 202 m 5
 613 202 l 5
 612.838299281 63.8536854144 497.652616273 -6.5 308.538085938 -6.5 c 4
 98.8042183465 -6.5 19.2318086078 96.4525875185 19.1494140625 202 c 5
 159 202 l 5
 159 138 242.925914283 122.5 314 122.5 c 4
 379.394043632 122.5 473 134 473.061523438 202 c 5
423 294.666992188 m 6
 214 294.666992188 l 6
 182.602539062 294.666992188 159 294.666992188 159 251 c 5
 19.8828125 251 l 5
 20 376 93.5791015625 414 159 414 c 6
 432 414 l 6
 539.998538966 414 613 377.132431075 613 251 c 5
 474 251 l 5
 474 294.666992188 452.228515625 294.666992188 423 294.666992188 c 6
EndSplineSet
EndChar

StartChar: uni0D92
Encoding: 587 3474 99
Width: 1024
VWidth: 0
LayerCount: 3
Fore
SplineSet
221.498046875 754.517578125 m 1
 221.498046875 615.587890625 l 1
 183.625 611.391601562 142.286132812 603.088867188 115.998046875 547.115234375 c 1
 15 632.145507812 l 1
 52.380859375 702.681640625 119.130859375 754.323242188 221.498046875 754.517578125 c 1
277.998046875 757 m 0
 422.164476018 756.001953125 560.762412044 692.971679688 561.26171875 411 c 0
 560.999023438 252 l 1
 560.859375 88.5 516.260742188 -6.5166015625 372.120117188 -6.5166015625 c 0
 279.325195312 -6.5166015625 206.999023438 39.693359375 206.999023438 138 c 0
 206.999023438 208.708984375 236.999023438 221.935546875 236.999023438 267 c 0
 236.999023438 299.96875 213.732421875 314 188 314 c 0
 142.31640625 314 131.689453125 261.373046875 131.689453125 223 c 0
 131.689453125 183.794921875 137.827148438 138.087890625 178.999023438 138 c 1
 177.999023438 0 l 1
 26.177734375 0 -2.8056640625 127.296875 -2.8056640625 224.260742188 c 0
 -2.8056640625 337.533203125 58.8447265625 452 208.999023438 452 c 0
 273.360351562 452 371.999023438 423.219726562 371.999023438 290 c 0
 371.999023438 242.033203125 340.999023438 201.934570312 340.999023438 173 c 0
 340.999023438 143.7109375 354.650390625 127 378.999023438 127 c 0
 415.725585938 127 418.97265625 185 418.98046875 252 c 2
 418.999023438 418 l 2
 419.016166249 571.368610947 333.677690565 613.198242188 277.998046875 613 c 0
 277.998046875 757 l 0
EndSplineSet
EndChar

StartChar: uni0D93
Encoding: 588 3475 100
Width: 1024
VWidth: 0
LayerCount: 3
Fore
SplineSet
183 360 m 0
 165.578896857 360 159.431228727 321.064579371 159.431228727 289.136951824 c 0
 159.431228727 215.368783904 209.692811071 141.211766207 290.498046875 140.5 c 1
 290.498046875 -5.5 l 1
 157.790039062 -5.5 36.7216796875 120.220703125 36.7216796875 259.768554688 c 0
 36.7216796875 395.870117188 92.7933181135 498.543632457 183.984208423 498.543632457 c 0
 246.356234597 498.543632457 282.954220379 465.689965103 283 388 c 0
 283.009723721 371.827506443 286.201921413 361.138671851 302 361.138671875 c 0
 319.035446537 361.238076377 320.495448082 380.8777331 320.495448082 400.680172475 c 0
 320.495448082 422.510852898 315.777378275 454.363732952 302 498 c 1
 412 498 l 1
 421.447600425 453.637354528 424.637597084 418.004904182 424.637597084 390.324765581 c 0
 424.637597084 310.236264971 391.415204375 251 305 251 c 0
 246.088625668 251 193.02125593 274.284957521 193.02125593 343.43056469 c 0
 193.02125593 349.406959414 192.320615584 360 183 360 c 0
290.498046875 754.517578125 m 1
 290.498046875 615.587890625 l 1
 252.625 611.391601562 211.286132812 603.088867188 184.998046875 547.115234375 c 1
 84 632.145507812 l 1
 121.380859375 702.681640625 188.130859375 754.323242188 290.498046875 754.517578125 c 1
345.498046875 615.708007812 m 1
 345.498046875 754.662109375 l 1
 560.84765625 754.489257812 594.5 547.458007812 594.5 366.627929688 c 0
 594.5 157.569335938 541.967773438 -4.8525390625 346.498046875 -5.0576171875 c 1
 346.498046875 139.919921875 l 1
 441.384765625 140.971679688 459.498046875 238.548828125 459.498046875 362 c 0
 459.498046875 518.208984375 436.915039062 606.91015625 345.498046875 615.708007812 c 1
EndSplineSet
EndChar

StartChar: uni0D94
Encoding: 589 3476 101
Width: 1024
VWidth: 0
LayerCount: 3
Fore
SplineSet
278.344726562 386.174804688 m 2xbe
 278.344726562 419.226924939 282.479700252 448.419262798 290.312972086 473.84506915 c 0
 328.60212898 598.126813638 453.847146555 628.683664136 602.123312727 582.776317132 c 0
 605.664535929 581.679929448 l 1
 604.962189181 452.005436591 l 1
 598.373544093 454.271930502 l 0
 564.123406409 466.053977865 534.546584737 472.477362605 509.824997592 474.197439515 c 0
 447.159439858 478.557579433 417.087237216 453.597144695 414.1938218 410.091692781 c 1xbe
 509.648882736 409.999998106 l 0
 618.368328688 409.905379836 628.0812053 326.396794372 628.994695807 256.039521891 c 0
 629.060456592 250.974609375 l 1
 505.464788798 250.974609375 l 1xde
 505.290380551 255.79377502 l 0
 504.383598474 280.849545767 503.029940778 296.78978428 462.318894374 297.000066731 c 0
 278.344726562 297.95057049 l 1
 278.344726562 386.174804688 l 2xbe
629.3515625 206 m 2
 629.3515625 36.7907883087 549.172083161 -11.1044921875 455.916992188 -11.1044921875 c 0
 409.23589939 -11.1044921875 368.477245433 2.15345344066 340.562760325 36.5362610917 c 1
 315.101998743 1.84464360781 272.125445428 -11.4248046875 234.544921875 -11.4248046875 c 0
 109.04888615 -11.4248046875 42.3515625 78.4008467047 42.3515625 206 c 0
 42.3515625 211 l 1
 170.995117188 211 l 1
 170.995117188 206 l 0
 170.995117188 141.06219986 193.768757279 117.181640625 223.575195312 117.181640625 c 0
 257.187344839 117.181640625 279.098387148 133.03969993 279.497088727 184.021905454 c 1
 279.570137025 261.575195312 l 1
 394.557044077 261.575195312 l 1
 394.374079209 186.016977709 l 1
 394.828357244 136.707246764 418.784685661 117.859556334 452.85388087 117.836912976 c 0
 488.661381356 117.813316313 505.3515625 144.443893019 505.3515625 206 c 0
 505.3515625 211 l 1
 629.3515625 211 l 1
 629.3515625 206 l 2
266.844726562 481.071554367 m 1
 246.673627452 480.780792801 l 0
 225.625760181 480.477398579 182.624311584 457.329322156 171.282743144 389.179131378 c 0
 169.625082295 379.219140597 170.316522502 353.831095545 170.463828227 316.600793178 c 0
 170.722902605 250.974609375 l 1
 42.952723733 250.974609375 l 1xde
 43.6202952033 330.042191546 l 0
 44.2888217257 409.264544935 54.4911603773 473.652536158 74.3047528453 500.937896286 c 0
 138.741431703 589.674877531 213.230930705 603.897422682 250.464920671 602.637767332 c 0
 266.844726562 602.083740412 l 1
 266.844726562 481.071554367 l 1
EndSplineSet
EndChar

StartChar: uni0D95
Encoding: 590 3477 102
Width: 1024
VWidth: 0
LayerCount: 3
Fore
SplineSet
287 -5 m 1
 287 126 l 1
 294.5 126 l 0
 352.028320312 126 361.5 167.228515625 361.5 242 c 0
 361.5 366 l 0
 361.5 468.513671875 286.751953125 477.0546875 228.94921875 477.5 c 0
 212.030273438 477.586914062 l 5
 288.532226562 602.587890625 l 1
 306.017578125 602.5 l 0
 408.908203125 602.252929688 492.5 500.470703125 492.5 366 c 0
 492.5 250 l 0
 492.5 68.591796875 400.598632812 -5 294.5 -5 c 0
 287 -5 l 1
224.5 -5 m 2
 127.850585938 -5 26.5 67.091796875 26.5 246 c 0
 26.5 417 l 0
 26.5 454.560546875 32.7698254341 515.338758514 36.884765625 526.478515625 c 0
 65.40625 603.690429688 146.902052883 705.966967443 184.038085938 769.293945312 c 0
 195.396484375 788.663085938 202.698242188 804.388671875 203.909179688 812.594726562 c 0
 204.854492188 819 l 1
 348 819 l 1
 347.827148438 811.331054688 l 0
 347.424804688 793.502929688 335.805664062 769.563476562 319.461914062 740.84375 c 1
 276.306640625 664.643554688 162.497070312 524.565429688 162.497070312 474.030273438 c 1
 162.770507812 439.701171875 l 1
 162.456054688 233.061523438 l 0
 162.456054688 164.822265625 183.735351562 126 224.5 126 c 0
 232 126 l 1
 232 -5 l 1
 224.5 -5 l 2
EndSplineSet
EndChar

StartChar: uni0D96
Encoding: 591 3478 103
Width: 1024
VWidth: 0
LayerCount: 3
Fore
SplineSet
538.40234375 0 m 1
 641.784179688 -87 l 1
 568.477539062 -201.938476562 438.771484375 -210.322265625 382 -210.513671875 c 1
 382 -64.525390625 l 1
 395.432617188 -63.955078125 485.173828125 -66.380859375 538.40234375 0 c 1
326.856445312 -63.1767578125 m 1
 327.0078125 -209.5 l 1
 179.901367188 -209.5 21.361328125 -49.94921875 21.361328125 200.4765625 c 0
 21.361328125 407.565429688 94.083984375 608.50390625 327 608.50390625 c 1
 327 465.096679688 l 1
 206.73046875 453.293945312 160 356.7734375 160 201 c 0
 160 -6.5458984375 286.2890625 -57.705078125 326.856445312 -63.1767578125 c 1
400.5390625 251.756835938 m 1
 400.40234375 213 l 0
 400.40234375 183.749023438 422.659179688 160.4296875 452.53515625 160.4296875 c 0
 505.94140625 160.4296875 514.834960938 212.342773438 514.834960938 276.75390625 c 0
 514.834960938 391.551757812 476.602539062 456.743164062 382 464.576171875 c 1
 382.060546875 609.305664062 l 1
 515.234375 609.305664062 651 520.189453125 651 279 c 0
 651 139.505859375 593.4375 23.5 452.5 23.5 c 0
 333.051757812 23.5 269.032226562 106.478515625 268.232421875 204 c 0
 268.107421875 219.232421875 268.053710938 235.819335938 268.053710938 251.5 c 1
 210.053710938 251.5 l 5
 210 366 l 1
 482 366 l 1
 482.053710938 251.5 l 1
 400.5390625 251.756835938 l 1
EndSplineSet
EndChar

StartChar: uni0D9A
Encoding: 592 3482 104
Width: 1024
VWidth: 0
LayerCount: 3
Fore
SplineSet
225.5 759.517578125 m 1
 225.5 628.587890625 l 1
 218.088867188 628.500976562 l 0
 179.643554688 628.012695312 136.627929688 611.459960938 114.125976562 537.66015625 c 0
 111.254882812 528.918945312 l 1
 1.9296875 591.552734375 l 1
 3.890625 597.389648438 l 0
 34.2919921875 691.232421875 117.170898438 759.25 217.982421875 759.5 c 0
 225.5 759.517578125 l 1
225.5 127.5 m 1
 225.5 -4.5 l 1
 218 -4.5 l 0
 78.7841796875 -4.5 18.5 82.841796875 18.5 183.049804688 c 0
 18.5 231.837890625 21.376953125 282.686523438 77.119140625 325.688476562 c 0
 109.2421875 350.46875 141.887695312 361.17578125 193.137695312 368.611328125 c 1
 173.4375 381.834960938 114.346679688 389.954101562 65.0556640625 365.29296875 c 0
 54.2001953125 359.861328125 l 1
 54.2001953125 487.671875 l 1
 59.6572265625 489.216796875 l 0
 128.940429688 508.827148438 224.416992188 508.595703125 274.360351562 472.901367188 c 0
 301.115234375 453.779296875 331.083007812 416.19140625 331.21875 349.166015625 c 0
 331.415039062 251.87109375 l 1
 323.971679688 251.799804688 l 0
 222.940429688 250.841796875 145.770507812 252.026367188 145.5 185.768554688 c 0
 145.37109375 153.452148438 172.896484375 127.5 218 127.5 c 0
 225.5 127.5 l 1
532.5 409.75 m 2
 532.5 310.349609375 l 0
 532.5 129.057617188 454.280273438 -4.443359375 288.002929688 -4.5 c 0
 280.5 -4.5029296875 l 1
 280.5 127.370117188 l 1
 287.869140625 127.499023438 l 0
 334.017578125 128.3359375 398.326171875 180.860351562 398.5 313.227539062 c 0
 398.849609375 408.06640625 l 0
 399.00390625 480.7734375 382.830078125 620.916015625 287.5859375 626.51171875 c 0
 280.5 626.903320312 l 1
 280.5 758.5 l 1
 288 758.5 l 0
 463.833984375 758.5 532.5 613.130859375 532.5 409.75 c 2
EndSplineSet
EndChar

StartChar: uni0D9B
Encoding: 593 3483 105
Width: 1024
VWidth: 0
LayerCount: 3
Fore
SplineSet
617.763671875 451.82421875 m 2
 617.763671875 442.07421875 l 1
 496.922851562 442.07421875 l 1
 496.901367188 451.801757812 l 0
 496.83984375 480.123046875 489.51171875 487.4296875 455.048828125 487.4296875 c 0
 418.982421875 487.4296875 415.62109375 471.184570312 415.220703125 450.633789062 c 0
 415.034179688 441.07421875 l 1
 287.575195312 441.07421875 l 1
 287.553710938 450.801757812 l 0
 287.498046875 476.438476562 273.893554688 486.354492188 245.702148438 486.354492188 c 0
 210.1953125 486.354492188 206.158203125 466.243164062 205.874023438 451.633789062 c 0
 205.6875 442.07421875 l 1
 78.74609375 442.07421875 l 1
 78.74609375 451.82421875 l 0
 78.74609375 546.989257812 151.100585938 610.138671875 245.745117188 610.138671875 c 0
 288.52734375 610.138671875 323.799804688 597.678710938 349.193359375 577.595703125 c 1
 378.7578125 599.115234375 414.412109375 610.138671875 455.092773438 610.138671875 c 0
 557.547851562 610.138671875 617.763671875 541.142578125 617.763671875 451.82421875 c 2
651.498046875 220 m 0
 651.498046875 81.6953125 506.463867188 -6.33203125 359.006835938 -6.5 c 0
 149.283203125 -6.73828125 49.498046875 79.9921875 49.498046875 225 c 0
 49.498046875 348.905273438 158.155273438 413.5 227.998046875 413.5 c 0
 349.270507812 413.5 l 1
 250 296 l 1
 232.374023438 295.986328125 l 0
 216.727539062 296.305664062 180.14453125 290.734375 179.498046875 225.924804688 c 0
 178.616210938 137.484375 274.059570312 124.5 362.998046875 124.5 c 0
 427.965820312 124.5 528.228515625 148.630859375 531.6796875 218.91015625 c 0
 533.890625 263.932617188 525.694335938 297.875 454.078125 301 c 1
 403 242.556640625 l 1
 375.670898438 205.463867188 376.690429688 189.102539062 376.498046875 163.92578125 c 0
 377.424804688 156.569335938 l 1
 267.498046875 155.428710938 l 1
 267.498046875 163 l 0
 267.498046875 208.432617188 280.543945312 251.2265625 311 288 c 0
 419.837890625 413.716796875 l 1
 423.547851562 413.485351562 l 2
 620.327148438 401.208984375 651.498046875 310.793945312 651.498046875 220 c 0
EndSplineSet
EndChar

StartChar: uni0D9C
Encoding: 594 3484 106
Width: 1024
VWidth: 0
LayerCount: 3
Fore
SplineSet
649.765625 460.07421875 m 1x9e
 513.924804688 460.07421875 l 1
 513.7890625 483.635742188 496.721679688 498.4296875 476.05078125 498.4296875 c 0
 451.760742188 498.4296875 437.421875 479.086914062 437.036132812 460.07421875 c 1
 315.577148438 460.07421875 l 1
 315.41796875 479.34375 301.758789062 498.5 275.704101562 498.5 c 0
 252.71484375 498.5 238.689453125 478.234375 238.689453125 460.07421875 c 1
 102.748046875 460.07421875 l 1
 102.748046875 552.983398438 167.4765625 611.5 265.747070312 611.5 c 0
 311.221679688 611.5 348.85546875 600.646484375 376.194335938 580.581054688 c 1
 407.087890625 605.818359375 451.78125 612.5 486.094726562 612.5 c 0
 591.0625 612.5 649.765625 549.266601562 649.765625 460.07421875 c 1x9e
66 294.666992188 m 1xbe
 26 294.666992188 l 1
 26 414 l 1xbe
 559 414 l 2
 617.71484375 414 692.5 409.500976562 692.5 251 c 1
 553.5 251 l 1xde
 553.5 286.955078125 545.411132812 294.752929688 517 294.666992188 c 2
 242 294.666992188 l 2xbe
 209.077148438 294.666992188 201.5 288.9375 201.5 251 c 1
 63.5 251 l 1xde
 63.5 266.8671875 64.1025390625 281.74609375 66 294.666992188 c 1xbe
502.892578125 -5.609375 m 0
 451.500976562 -5.609375 407.649414062 8.8251953125 379.182617188 39.3291015625 c 1
 349.069335938 6.0595703125 299.875976562 -6.5 257.193359375 -6.5 c 0
 126.278320312 -6.5 63 79.2783203125 63 202 c 1
 202 202 l 1
 202 194.5 l 0
 202 140.5234375 234.313476562 126 260 126 c 0
 282.788085938 126 315.091796875 140.328125 315.5 191.041015625 c 1
 316.022460938 251 l 1
 439 251 l 1xde
 438.5 193.021484375 l 1
 438.986328125 144.234375 467.142578125 126.359375 498.50390625 126.336914062 c 0
 498.541992188 126.336914062 l 0
 525.264648438 126.336914062 554 146.625976562 554 194.5 c 0
 554 202 l 1
 693 202 l 1
 693 51.212890625 605.069335938 -5.609375 502.892578125 -5.609375 c 0
EndSplineSet
EndChar

StartChar: uni0D9D
Encoding: 595 3485 107
Width: 1024
VWidth: 0
LayerCount: 3
Fore
SplineSet
700 254 m 1
 806 166 l 1
 777.682080925 91.7328244275 691.915824313 24.9332276161 593 25 c 0
 392.772080374 25.1357421875 339.191958716 143.45490579 338.000976562 228 c 1
 451 318 l 1
 451 199.427901842 515.439655688 170 578 170 c 0
 645.443319238 170 678.641622121 186.816149964 700 254 c 1
843 412 m 1
 843 288 l 1
 457 288 l 2
 367.899648437 288 362 128 362 128 c 1
 362.013441938 18.2099609375 455.905381143 -57.2734375 578.04296875 -57.2734375 c 0
 667.446333063 -57.2734375 755.73289436 -31.2298994227 805 78 c 1
 912 -10 l 1
 829.201171875 -187.111328125 657.366210938 -207.009765625 598.6875 -207.009765625 c 0
 361.53125 -207.009765625 216 -97.6845703125 216 126 c 0
 216 322.407226562 336.540039829 410.544655287 495 411 c 2
 843 412 l 1
844.765625 460.07421875 m 1
 708.924804688 460.07421875 l 1
 708.7890625 483.635742188 691.721679688 498.4296875 671.05078125 498.4296875 c 0
 646.760742188 498.4296875 632.421875 479.086914062 632.036132812 460.07421875 c 1
 510.577148438 460.07421875 l 1
 510.41796875 479.34375 496.758789062 498.5 470.704101562 498.5 c 0
 447.71484375 498.5 433.689453125 478.234375 433.689453125 460.07421875 c 1
 434 460.07421875 l 1
 298 409.07421875 l 1
 297.748046875 460.07421875 l 1
 297.748046875 552.983398438 362.4765625 611.5 460.747070312 611.5 c 0
 506.221679688 611.5 543.85546875 600.646484375 571.194335938 580.581054688 c 1
 602.087890625 605.818359375 646.78125 612.5 681.094726562 612.5 c 0
 786.0625 612.5 844.765625 549.266601562 844.765625 460.07421875 c 1
EndSplineSet
EndChar

StartChar: uni0D9E
Encoding: 596 3486 108
Width: 1024
VWidth: 0
LayerCount: 3
Fore
SplineSet
34.8251953125 602.874023438 m 1
 268.87890625 602.874023438 l 1
 269 471 l 1
 212.293945312 398.892578125 155 326.677734375 155 217 c 0
 155 106.9453125 247.663085938 121.098632812 273 129 c 1
 273 7 l 1
 191 -13.3818359375 108.318359375 12.6396484375 65 66 c 0
 -21.7021484375 170.298828125 49.9453125 380.045898438 111.279296875 464.561523438 c 1
 34.8232421875 464.561523438 l 1
 34.8251953125 602.874023438 l 1
EndSplineSet
EndChar

StartChar: uni0D9F
Encoding: 597 3487 109
Width: 1024
VWidth: 0
LayerCount: 3
Fore
SplineSet
105 540 m 0
 -7 540 l 4
 -5.552734375 559.34375 -6 595.937349531 -6 618 c 0
 -6 670 -65.3369140625 676 -140 676 c 0
 -217.341796875 676 -277 643.231445312 -277 608 c 0
 -277 549.78125 -278 540 -278 540 c 1
 -390 540 l 1
 -390 560 -391 591.814064947 -391 618 c 0
 -391 741.171512963 -270 780 -140 780 c 0
 -15.7978515625 780 106 753 106 628 c 0
 106 590.223632812 105.575195312 553.360351562 105 540 c 0
EndSplineSet
EndChar

StartChar: uni0DA0
Encoding: 598 3488 110
Width: 1024
VWidth: 0
LayerCount: 3
Fore
SplineSet
121.125 25.431640625 m 1
 22 102 l 1
 22 102 80.3671875 197.000976562 176.6015625 197.000976562 c 0
 255.916992188 197.000976562 294.985351562 134.997070312 370.547851562 134.997070312 c 0
 438.922851562 134.997070312 483 185.918945312 483 292 c 0
 483 308.90625 482.717773438 346.5390625 468.056640625 373.318359375 c 1
 553 471 l 1
 589.09375 423.979492188 607.5 381.6171875 607.5 296 c 0
 607.5 127.852539062 518.315429688 -0.5 372 -0.5 c 0
 263.567382812 -0.5 225.163085938 66.1787109375 180.37890625 66.0009765625 c 0
 148.459960938 65.8740234375 121.125 25.431640625 121.125 25.431640625 c 1
790.112304688 522.221679688 m 1
 811.05859375 543.473632812 845.801757812 562.508789062 898.69140625 562.508789062 c 0
 899.36328125 562.508789062 900.038085938 562.505859375 900.715820312 562.5 c 0
 998.6328125 561.634765625 1064.15234375 512.181640625 1064.5 405 c 2
 1065 251 l 1
 925 251 l 1
 924.965820312 353.958984375 l 0
 924.72265625 398.55859375 918.578125 420.5 888.010742188 420.5 c 1
 859.423828125 420.416015625 852.611328125 397.26953125 852.575195312 351.994140625 c 0
 852 251 l 1
 716.889648438 251 l 1
 717.5 350.00390625 l 1
 717.5 403.5625 699.393554688 420.362304688 678.516601562 420.508789062 c 0
 650.482421875 420.705078125 650 410 645.82421875 406.888671875 c 1
 585.700195312 507.639648438 l 1
 590.25390625 516.168945312 615.391601562 562.508789062 696.270507812 562.508789062 c 0
 741.393554688 562.508789062 771.481445312 543.091796875 790.112304688 522.221679688 c 1
924.483398438 202 m 1
 1064 202 l 1
 1063.48339844 180.500976562 l 0
 1062.82617188 55.5576171875 960.697265625 -6.5 844.194335938 -6.5 c 0
 698.779296875 -6.5 626.5 68.6357421875 626.5 164 c 0
 626.483398438 202 l 1
 766.483398438 202 l 1
 766.5 187 l 0
 766.5 140.99609375 810.192382812 125.5 843 125.5 c 0
 878.420898438 125.5 924.5 135.9296875 924.5 185 c 0
 924.483398438 202 l 1
337.703125 472.751953125 m 0
 302.038085938 472.396484375 263.84765625 454.283203125 263.196289062 404.125 c 0
 263.194335938 403.974609375 263.193359375 403.823242188 263.193359375 403.670898438 c 0
 263.193359375 324.659179688 339.297851562 315.978515625 392.416992188 361 c 1
 392 232 l 1
 275.282226562 169.892578125 128 257.203125 128 391 c 0
 128 528.413085938 229.399414062 602.5 339 602.5 c 0
 362.102539062 602.5 397.46484375 601.000976562 423 592 c 1
 566.100585938 760.552734375 l 1
 665.025390625 674.79296875 l 1
 440 412 l 1
 417.125 448.265625 380.319335938 472.755859375 338.560546875 472.755859375 c 0
 338.275390625 472.755859375 337.989257812 472.754882812 337.703125 472.751953125 c 0
1055 467 m 0
 951 467 l 0
 963.447265625 486.34375 967 522.9375 967 545 c 0
 967 597 987.663085938 673 913 673 c 0
 835.658203125 673 776 640.231445312 776 605 c 0
 776 546.78125 785 537 785 537 c 1
 683 537 l 1
 667 557 662 588.814453125 662 615 c 0
 662 738.171875 783 777 913 777 c 0
 1037.20214844 777 1079 680 1079 555 c 0
 1079 517.223632812 1065.57519531 476.360351562 1055 467 c 0
EndSplineSet
EndChar

StartChar: NameMe.35
Encoding: 605 -1 117
Width: 1190
VWidth: 0
Flags: HW
LayerCount: 3
Back
SplineSet
559 564 m 1
 559 626 l 0
 559.024414062 691.487304688 514.055664062 710.673828125 449 711 c 0
 245 711 l 1
 169 711 166 653 166 616 c 0
 166 5 l 0
 165.975585938 -60.4873046875 189.944335938 -79.673828125 255 -80 c 0
 339 -80 l 9
 339 -205 l 1
 239 -205 l 0
 127.887695312 -205 40 -136 40 6 c 0
 40 621 l 0
 40 788 157 836 244 836 c 1
 465 836 l 0
 602.112304688 836 685 767 685 625 c 0
 685 564 l 2
 559 564 l 1
689 142 m 2
 689 0 l 0
 689 -108 608 -205 480 -205 c 0
 394 -205 l 1
 394 -80 l 0
 477 -80 l 0
 523 -80 562 -52 562 1 c 0
 562 142 l 0
 561.799804688 171.958007812 551 186 521 186 c 0
 478 186 l 0
 478 311 l 1
 520 311 l 2
 629.075195312 311 689 232.140625 689 142 c 2
298 0 m 17
 298 606 l 1
 423 607 l 1
 423 0 l 1
 298 0 l 17
EndSplineSet
Fore
SplineSet
559 564 m 1
 559 626 l 0
 559.024414062 691.487304688 514.055664062 710.673828125 449 711 c 0
 245 711 l 1
 169 711 166 653 166 616 c 0
 166 5 l 0
 165.975585938 -60.4873046875 189.944335938 -79.673828125 255 -80 c 0
 339 -80 l 9
 339 -205 l 1
 239 -205 l 0
 127.887695312 -205 40 -136 40 6 c 0
 40 621 l 0
 40 788 157 836 244 836 c 1
 465 836 l 0
 602.112304688 836 685 767 685 625 c 0
 685 564 l 2
 559 564 l 1
689 142 m 2
 689 0 l 0
 689 -108 608 -205 480 -205 c 0
 394 -205 l 1
 394 -80 l 0
 477 -80 l 0
 523 -80 562 -52 562 1 c 0
 562 142 l 0
 561.799804688 171.958007812 551 186 521 186 c 0
 478 186 l 0
 478 311 l 1
 520 311 l 2
 629.075195312 311 689 232.140625 689 142 c 2
298 0 m 17
 298 606 l 1
 423 607 l 1
 423 0 l 1
 298 0 l 17
EndSplineSet
EndChar

StartChar: NameMe.37
Encoding: 607 -1 119
Width: 1376
VWidth: 0
Flags: HMW
LayerCount: 3
Back
SplineSet
734 143 m 1
 822.668945312 143 925 100 925 -16 c 0
 925 -154 792 -181.700195312 633 -181.700195312 c 0
 633 -56 l 0
 698 -56 800 -61 800 -14 c 0
 800 7.5810546875 774.466796875 15.4462890625 734 16 c 1
 734 143 l 1
679 143 m 17
 611 143 l 1
 512 143 421.02306066 92.4214182861 419 -0.8349609375 c 0
 418 -46.931640625 397.952148438 -55.19140625 364 -56 c 0
 354 -56 l 9
 354 -182 l 1
 376 -182 l 2
 485 -182 540 -98 541 -60 c 0
 542.946694475 13.9743900321 568 17 593 16 c 1
 679 16 l 1
 679 143 l 17
734 162 m 1
 753 162 l 0
 834.749023438 161.504882812 928.830078125 222.603515625 931 396 c 0
 931 459 l 1
 931 611.495117188 838.70703125 692.204101562 734 700 c 1
 734 574.836914062 l 1
 782.453125 567.356445312 804 524.2734375 804 459 c 1
 804 419 l 2
 804 357.739599412 810.953401767 288 734 288 c 2
 267 287 l 0
 126.8828125 286.591796875 55 167.817382812 55 85 c 0
 55 11 l 0
 55 -80 158 -184 268 -184 c 0
 292 -184 l 1
 292 -59 l 17
 267 -59 l 0
 207 -58.888671875 180 -3.5341796875 180 47 c 0
 180 95 200 161 260 161 c 0
 734 162 l 1
679 574.098632812 m 1
 638.224609375 565.74609375 595.784179688 529.6875 596 462 c 0
 596 380 l 1
 471 380 l 1
 471 479 l 0
 471 615.166992188 583.443359375 690.477539062 679 700 c 1
 679 574.098632812 l 1
265 314 m 1
 265 442 l 1
 287.115234375 450.5703125 308.392578125 477.977539062 308.392578125 511.106445312 c 0
 308.392578125 551.25390625 276.6484375 583 236.5 583 c 0
 196.352539062 583 164.606445312 551.25390625 164.606445312 511.106445312 c 0
 164.606445312 477.735351562 186.540039062 450.169921875 210 441.815429688 c 1
 210 314 l 1
 121 314 40 411 40 482 c 0
 41 508 l 2
 41 595.506835938 137.5 690 233 702 c 0
 348.578125 716.522460938 433.5 602.078125 433.5 511 c 2
 433.5 482 l 2
 433.5 420 349 314 265 314 c 1
471 328 m 17
 471 418 l 0
 471 556 359.235351562 596 310 596 c 0
 268 596 161.5 602 161.5 495 c 1
 40 483 l 1
 40 494 l 0
 40 550 73 713 307 713 c 1
 455.377929688 713 596 626.788085938 596 418 c 0
 596 328 l 1
 471 328 l 17
EndSplineSet
Fore
SplineSet
734 143 m 1
 822.668945312 143 925 100 925 -16 c 0
 925 -154 792 -181.700195312 633 -181.700195312 c 0
 633 -56 l 0
 698 -56 800 -61 800 -14 c 0
 800 7.5810546875 774.466796875 15.4462890625 734 16 c 1
 734 143 l 1
679 143 m 17
 611 143 l 1
 512 143 421.02306066 92.4214182861 419 -0.8349609375 c 0
 418 -46.931640625 397.952148438 -55.19140625 364 -56 c 0
 354 -56 l 9
 354 -182 l 1
 376 -182 l 2
 485 -182 540 -98 541 -60 c 0
 542.946694475 13.9743900321 568 17 593 16 c 1
 679 16 l 1
 679 143 l 17
734 162 m 1
 753 162 l 0
 834.749023438 161.504882812 928.830078125 222.603515625 931 396 c 0
 931 459 l 1
 931 611.495117188 838.70703125 692.204101562 734 700 c 1
 734 574.836914062 l 1
 782.453125 567.356445312 804 524.2734375 804 459 c 1
 804 419 l 2
 804 357.739599412 810.953401767 288 734 288 c 2
 267 287 l 0
 126.8828125 286.591796875 55 167.817382812 55 85 c 0
 55 11 l 0
 55 -80 158 -184 268 -184 c 0
 292 -184 l 1
 292 -59 l 17
 267 -59 l 0
 207 -58.888671875 180 -3.5341796875 180 47 c 0
 180 95 200 161 260 161 c 0
 734 162 l 1
679 574.098632812 m 1
 638.224609375 565.74609375 595.784179688 529.6875 596 462 c 0
 596 380 l 1
 471 380 l 1
 471 479 l 0
 471 615.166992188 583.443359375 690.477539062 679 700 c 1
 679 574.098632812 l 1
265 314 m 1
 265 442 l 1
 287.115234375 450.5703125 308.392578125 477.977539062 308.392578125 511.106445312 c 0
 308.392578125 551.25390625 276.6484375 583 236.5 583 c 0
 196.352539062 583 164.606445312 551.25390625 164.606445312 511.106445312 c 0
 164.606445312 477.735351562 186.540039062 450.169921875 210 441.815429688 c 1
 210 314 l 1
 121 314 40 411 40 482 c 0
 41 508 l 2
 41 595.506835938 137.5 690 233 702 c 0
 348.578125 716.522460938 433.5 602.078125 433.5 511 c 2
 433.5 482 l 2
 433.5 420 349 314 265 314 c 1
471 328 m 17
 471 418 l 0
 471 556 359.235351562 596 310 596 c 0
 268 596 161.5 602 161.5 495 c 1
 40 483 l 1
 40 494 l 0
 40 550 73 713 307 713 c 1
 455.377929688 713 596 626.788085938 596 418 c 0
 596 328 l 1
 471 328 l 17
EndSplineSet
EndChar

StartChar: NameMe.40
Encoding: 609 -1 121
Width: 1024
VWidth: 0
Flags: H
LayerCount: 3
Fore
SplineSet
217 -182.6328125 m 1
 115.65234375 -170.114257812 26 -73.8993293048 26 11 c 0
 26 85 l 0
 26 167.817382812 97.8828125 286.591796875 238 287 c 0
 686 287 l 0
 686 162 l 1
 231 161 l 0
 171 161 151 95 151 47 c 0
 151 3.38674961053 172.921875 -43.81640625 217 -56 c 1
 217 -182.6328125 l 1
726 288 m 17
 726 288 l 0
 799 288 804 361 804 419 c 1
 804 459 l 1
 804 524.2734375 782.453125 567.356445312 726 574.836914062 c 1
 726 700 l 1
 838.70703125 692.204101562 931 611.495117188 931 459 c 1
 931 396 l 0
 928.830078125 222.603515625 834.749023438 161.504882812 753 162 c 0
 726 162 l 1
 726 288 l 17
686 574.098632812 m 1
 638.224609375 565.74609375 595.784179688 529.6875 596 462 c 0
 596 380 l 1
 471 380 l 1
 471 479 l 0
 471 615.166992188 583.443359375 690.477539062 686 700 c 1
 686 574.098632812 l 1
257 314 m 1
 257 442 l 1
 287.115234375 450.5703125 308.392578125 477.977539062 308.392578125 511.106445312 c 0
 308.392578125 551.25390625 276.6484375 583 236.5 583 c 0
 196.352539062 583 164.606445312 551.25390625 164.606445312 511.106445312 c 0
 164.606445312 477.735351562 186.540039062 450.169921875 217 441.815429688 c 1
 217 314 l 1
 121 314 40 411 40 482 c 0
 41 508 l 2
 41 595.506835938 137.5 690 233 702 c 0
 348.578125 716.522460938 433.5 602.078125 433.5 511 c 2
 433.5 482 l 2
 433.5 420 349 314 257 314 c 1
471 328 m 17
 471 418 l 0
 471 556 359.235351562 596 310 596 c 0
 268 596 161.5 602 161.5 495 c 1
 40 483 l 1
 40 494 l 0
 40 550 73 713 307 713 c 1
 467.377929688 713 596 626.788085938 596 418 c 0
 596 328 l 1
 471 328 l 17
287 -56 m 17
 287 -56 367 -58 416 7 c 0
 436.96484375 34.810546875 512 126 666 126 c 0
 686 126 l 1
 686 8 l 1
 618.72265625 8.0224609375 539.182617188 -16.1328125 510 -69 c 0
 484.350585938 -115.466796875 406 -182 287 -182 c 9
 257 -182 l 1
 257 -56 l 1
 287 -56 l 17
731 126 m 1
 801 126 l 0
 878 126 923 60 923 12 c 0
 923 -76 l 0
 923 -131.176757812 873 -182 781 -182 c 0
 545 -182 l 1
 545 -57 l 1
 727 -56 l 0
 765 -56 798 -58.9404296875 798 -32.515625 c 0
 798 -16 l 1
 798 11.12109375 769.947265625 6.826171875 731 8 c 1
 731 126 l 1
EndSplineSet
EndChar

StartChar: NameMe.34
Encoding: 610 -1 122
Width: 825
VWidth: 0
Flags: HW
LayerCount: 3
Back
SplineSet
40 120 m 0
 40 188.25 95.5 243.75 163.75 243.75 c 0
 232 243.75 287.5 188.25 287.5 120 c 0
 287.5 51.75 232 -3.75 163.75 -3.75 c 0
 95.5 -3.75 40 51.75 40 120 c 0
537.5 124 m 0
 537.5 192.25 593 247.75 661.25 247.75 c 0
 729.5 247.75 785 192.25 785 124 c 0
 785 55.75 729.5 0.25 661.25 0.25 c 0
 593 0.25 537.5 55.75 537.5 124 c 0
287.5 501 m 0
 287.5 569.25 343 624.75 411.25 624.75 c 0
 479.5 624.75 535 569.25 535 501 c 0
 535 432.75 479.5 377.25 411.25 377.25 c 0
 343 377.25 287.5 432.75 287.5 501 c 0
EndSplineSet
Fore
SplineSet
40 120 m 0
 40 188.25 95.5 243.75 163.75 243.75 c 0
 232 243.75 287.5 188.25 287.5 120 c 0
 287.5 51.75 232 -3.75 163.75 -3.75 c 0
 95.5 -3.75 40 51.75 40 120 c 0
537.5 124 m 0
 537.5 192.25 593 247.75 661.25 247.75 c 0
 729.5 247.75 785 192.25 785 124 c 0
 785 55.75 729.5 0.25 661.25 0.25 c 0
 593 0.25 537.5 55.75 537.5 124 c 0
287.5 501 m 0
 287.5 569.25 343 624.75 411.25 624.75 c 0
 479.5 624.75 535 569.25 535 501 c 0
 535 432.75 479.5 377.25 411.25 377.25 c 0
 343 377.25 287.5 432.75 287.5 501 c 0
EndSplineSet
EndChar

StartChar: NameMe.41
Encoding: 611 -1 123
Width: 1124
VWidth: 0
Flags: HW
LayerCount: 3
Back
SplineSet
887 472.125 m 1
 926.879882812 450.2109375 959 403.916015625 959 310 c 2
 959 166 l 0
 959 155 964 120 927 120 c 0
 927 -5.3203125 l 1
 1034 -5.3203125 1085 72 1085 166 c 0
 1085 310 l 2
 1085 494.407226562 985.002929688 568.337890625 887 597.783203125 c 1
 887 472.125 l 1
831 483.666015625 m 1
 825 483.666015625 l 1
 737 483.67578125 613 484.999023438 613.204101562 296 c 0
 613.204101562 158 l 0
 613.204101562 146 611 111 637 111 c 1
 637 -14 l 0
 540 -14 488.204101562 70 488.204101562 157 c 1
 488.204101562 294 l 0
 488.204101562 602 761 609 825 609 c 2
 831 609 l 1
 831 483.666015625 l 1
461 608 m 1
 598 608 841.204101562 599 841.204101562 307 c 2
 841.204101562 157 l 0
 841.204101562 63 791.204101562 -14 692.204101562 -14 c 1
 692.204101562 111 l 0
 721.204101562 111 716.204101562 146 716.204101562 157 c 0
 716.204101562 296 l 2
 716.204101562 486 589.833007812 483 461 483 c 1
 461 608 l 1
406 608 m 1
 396 608 l 1
 308 608 96 567.841796875 96 258 c 2
 96 156 l 1
 96 69 147 -15 244 -15 c 0
 244 110 l 1
 218 110 221 145 221 157 c 0
 221 258 l 0
 220.795898438 445 314.204101562 483 391 483 c 1
 406 483 l 1
 406 608 l 1
357.325195312 446 m 1
 426.166992188 446 449 386.416992188 449 296 c 2
 449 156.185546875 l 0
 449 62.185546875 390 -15 300 -15 c 1
 300 110 l 0
 329 110 324 145.185546875 324 156.185546875 c 0
 324 296 l 2
 324 349.109375 292 349 270 349.088867188 c 1
 267 384 299 441 357.325195312 446 c 1
EndSplineSet
Fore
SplineSet
887 472.125 m 1
 926.879882812 450.2109375 959 403.916015625 959 310 c 2
 959 166 l 0
 959 155 964 120 927 120 c 0
 927 -5.3203125 l 1
 1034 -5.3203125 1085 72 1085 166 c 0
 1085 310 l 2
 1085 494.407226562 985.002929688 568.337890625 887 597.783203125 c 1
 887 472.125 l 1
831 483.666015625 m 1
 825 483.666015625 l 1
 737 483.67578125 613 484.999023438 613.204101562 296 c 0
 613.204101562 158 l 0
 613.204101562 146 611 111 637 111 c 1
 637 -14 l 0
 540 -14 488.204101562 70 488.204101562 157 c 1
 488.204101562 294 l 0
 488.204101562 602 761 609 825 609 c 2
 831 609 l 1
 831 483.666015625 l 1
461 608 m 1
 598 608 841.204101562 599 841.204101562 307 c 2
 841.204101562 157 l 0
 841.204101562 63 791.204101562 -14 692.204101562 -14 c 1
 692.204101562 111 l 0
 721.204101562 111 716.204101562 146 716.204101562 157 c 0
 716.204101562 296 l 2
 716.204101562 486 589.833007812 483 461 483 c 1
 461 608 l 1
406 608 m 1
 396 608 l 1
 308 608 96 567.841796875 96 258 c 2
 96 156 l 1
 96 69 147 -15 244 -15 c 0
 244 110 l 1
 218 110 221 145 221 157 c 0
 221 258 l 0
 220.795898438 445 314.204101562 483 391 483 c 1
 406 483 l 1
 406 608 l 1
357.325195312 446 m 1
 426.166992188 446 449 386.416992188 449 296 c 2
 449 156.185546875 l 0
 449 62.185546875 390 -15 300 -15 c 1
 300 110 l 0
 329 110 324 145.185546875 324 156.185546875 c 0
 324 296 l 2
 324 349.109375 292 349 270 349.088867188 c 1
 267 384 299 441 357.325195312 446 c 1
EndSplineSet
EndChar

StartChar: NameMe.42
Encoding: 612 -1 124
Width: 648
VWidth: 0
Flags: HW
LayerCount: 3
Back
SplineSet
272.00390625 -34 m 1
 272.00390625 91.3994140625 l 0
 314.403320312 91.3994140625 320.002929688 119.606445312 319.280273438 151 c 0
 318.645507812 178.5703125 314.611328125 208.403320312 272.00390625 208.399414062 c 1
 272.00390625 334 l 0
 370.3125 334.303710938 444.84375 248.500976562 445.00390625 194.901367188 c 0
 445.00390625 121.903320312 l 0
 445.904296875 56.91015625 383.4375 -34.1279296875 272.00390625 -34 c 1
216.00390625 334 m 1
 216.00390625 208.399414062 l 0
 186.403320312 208.399414062 167.604492188 180.377929688 167.604492188 151 c 0
 167.604492188 118.600585938 182.403320312 91.3994140625 216.00390625 91.3994140625 c 1
 216.00390625 -34 l 0
 111.694335938 -34 39.572265625 59.0029296875 40.00390625 120.599609375 c 0
 40.3076171875 164.000976562 40.6171875 109.993164062 40.00390625 191.599609375 c 0
 39.2041015625 298 165.00390625 334 216.00390625 334 c 1
358.00390625 711 m 1
 553.00390625 711 609.00390625 549 609.00390625 375 c 0
 609.00390625 -37 l 1
 484.00390625 -37 l 1
 484.00390625 372 l 2
 484.00390625 437 484.836914062 586 358.00390625 586 c 1
 358.00390625 711 l 1
303 711 m 1
 303 586 l 0
 303 586 l 0
 156.799804688 586 165.211914062 375 166.211914062 299 c 0
 166.977384003 240.824284478 45.7587890625 225.567382812 40 195 c 1
 40 250 l 1
 40 346 10 711 303 711 c 0
 303 711 l 1
EndSplineSet
Fore
SplineSet
272.00390625 -34 m 1
 272.00390625 91.3994140625 l 0
 314.403320312 91.3994140625 320.002929688 119.606445312 319.280273438 151 c 0
 318.645507812 178.5703125 314.611328125 208.403320312 272.00390625 208.399414062 c 1
 272.00390625 334 l 0
 370.3125 334.303710938 444.84375 248.500976562 445.00390625 194.901367188 c 0
 445.00390625 121.903320312 l 0
 445.904296875 56.91015625 383.4375 -34.1279296875 272.00390625 -34 c 1
216.00390625 334 m 1
 216.00390625 208.399414062 l 0
 186.403320312 208.399414062 167.604492188 180.377929688 167.604492188 151 c 0
 167.604492188 118.600585938 182.403320312 91.3994140625 216.00390625 91.3994140625 c 1
 216.00390625 -34 l 0
 111.694335938 -34 39.572265625 59.0029296875 40.00390625 120.599609375 c 0
 40.3076171875 164.000976562 40.6171875 109.993164062 40.00390625 191.599609375 c 0
 39.2041015625 298 165.00390625 334 216.00390625 334 c 1
358.00390625 711 m 1
 553.00390625 711 609.00390625 549 609.00390625 375 c 0
 609.00390625 -37 l 1
 484.00390625 -37 l 1
 484.00390625 372 l 2
 484.00390625 437 484.836914062 586 358.00390625 586 c 1
 358.00390625 711 l 1
303 711 m 1
 303 586 l 0
 303 586 l 0
 156.799804688 586 165.211914062 375 166.211914062 299 c 0
 166.977384003 240.824284478 45.7587890625 225.567382812 40 195 c 1
 40 250 l 1
 40 346 10 711 303 711 c 0
 303 711 l 1
EndSplineSet
EndChar

StartChar: NameMe.43
Encoding: 613 -1 125
Width: 634
VWidth: 0
Flags: HW
LayerCount: 3
Back
SplineSet
423.00390625 354 m 5
 423.00390625 479.399414062 l 4
 465.403320312 479.399414062 471.002929688 507.606445312 470.280273438 539 c 4
 469.645507812 566.5703125 465.611328125 596.403320312 423.00390625 596.399414062 c 5
 423.00390625 722 l 4
 521.3125 722.303710938 595.84375 636.500976562 596.00390625 582.901367188 c 4
 596.00390625 509.903320312 l 4
 596.904296875 444.91015625 534.4375 353.872070312 423.00390625 354 c 5
367.00390625 722 m 5
 367.00390625 596.399414062 l 4
 337.403320312 596.399414062 318.604492188 568.377929688 318.604492188 539 c 4
 318.604492188 506.600585938 333.403320312 479.399414062 367.00390625 479.399414062 c 5
 367.00390625 354 l 4
 262.694335938 354 190.572265625 447.002929688 191.00390625 508.599609375 c 4
 191.307617188 552.000976562 191.6171875 497.993164062 191.00390625 579.599609375 c 4
 190.204101562 686 316.00390625 722 367.00390625 722 c 5
423 -43.3994140625 m 1
 423 82 l 0
 465.399414062 82 470.999023438 110.20703125 470.276367188 141.600585938 c 0
 469.641601562 169.170898438 465.607421875 199.00390625 423 199 c 1
 423 324.600585938 l 0
 521.30859375 324.904296875 595.83984375 239.1015625 596 185.501953125 c 0
 596 112.50390625 l 0
 596.900390625 47.5107421875 534.43359375 -43.52734375 423 -43.3994140625 c 1
367 324.600585938 m 1
 367 199 l 0
 337.399414062 199 318.600585938 170.978515625 318.600585938 141.600585938 c 0
 318.600585938 109.201171875 333.399414062 82 367 82 c 1
 367 -43.3994140625 l 0
 262.690429688 -43.3994140625 190.568359375 49.603515625 191 111.200195312 c 0
 191.303710938 154.6015625 191.61328125 100.59375 191 182.200195312 c 0
 190.200195312 288.600585938 316 324.600585938 367 324.600585938 c 1
363 722 m 1
 362.599609375 598 l 1
 306 596 164 614 164 502 c 2
 164 172 l 2
 164 75 313.5 81 364.387695312 81 c 1
 364.387695312 -43 l 0
 359 -43 l 0
 261 -43 40 -46 40 159 c 1
 40 506 l 1
 40 721 288 722 363 722 c 0
 363 722 l 1
EndSplineSet
Fore
SplineSet
423.00390625 354 m 5
 423.00390625 479.399414062 l 4
 465.403320312 479.399414062 471.002929688 507.606445312 470.280273438 539 c 4
 469.645507812 566.5703125 465.611328125 596.403320312 423.00390625 596.399414062 c 5
 423.00390625 722 l 4
 521.3125 722.303710938 595.84375 636.500976562 596.00390625 582.901367188 c 4
 596.00390625 509.903320312 l 4
 596.904296875 444.91015625 534.4375 353.872070312 423.00390625 354 c 5
367.00390625 722 m 5
 367.00390625 596.399414062 l 4
 337.403320312 596.399414062 318.604492188 568.377929688 318.604492188 539 c 4
 318.604492188 506.600585938 333.403320312 479.399414062 367.00390625 479.399414062 c 5
 367.00390625 354 l 4
 262.694335938 354 190.572265625 447.002929688 191.00390625 508.599609375 c 4
 191.307617188 552.000976562 191.6171875 497.993164062 191.00390625 579.599609375 c 4
 190.204101562 686 316.00390625 722 367.00390625 722 c 5
423 -43.3994140625 m 1
 423 82 l 0
 465.399414062 82 470.999023438 110.20703125 470.276367188 141.600585938 c 0
 469.641601562 169.170898438 465.607421875 199.00390625 423 199 c 1
 423 324.600585938 l 0
 521.30859375 324.904296875 595.83984375 239.1015625 596 185.501953125 c 0
 596 112.50390625 l 0
 596.900390625 47.5107421875 534.43359375 -43.52734375 423 -43.3994140625 c 1
367 324.600585938 m 1
 367 199 l 0
 337.399414062 199 318.600585938 170.978515625 318.600585938 141.600585938 c 0
 318.600585938 109.201171875 333.399414062 82 367 82 c 1
 367 -43.3994140625 l 0
 262.690429688 -43.3994140625 190.568359375 49.603515625 191 111.200195312 c 0
 191.303710938 154.6015625 191.61328125 100.59375 191 182.200195312 c 0
 190.200195312 288.600585938 316 324.600585938 367 324.600585938 c 1
363 722 m 1
 362.599609375 598 l 1
 306 596 164 614 164 502 c 2
 164 172 l 2
 164 75 313.5 81 364.387695312 81 c 1
 364.387695312 -43 l 0
 359 -43 l 0
 261 -43 40 -46 40 159 c 1
 40 506 l 1
 40 721 288 722 363 722 c 0
 363 722 l 1
EndSplineSet
EndChar

StartChar: NameMe.44
Encoding: 614 -1 126
Width: 1024
VWidth: 0
Flags: H
LayerCount: 3
Fore
SplineSet
429 608 m 1
 429 740 l 0
 429 893 522 977 644 977 c 0
 764 977 872 903 872 785 c 0
 872 692 802 628 719 628 c 0
 629 628 577 692 577 777 c 0
 577 796 l 1
 702 796 l 1
 702 777 l 0
 702 743 745 745 745 784 c 0
 745 819 714 852 644 852 c 0
 586 852 554 808 554 759 c 0
 554 608 l 0
 429 608 l 1
EndSplineSet
EndChar

StartChar: NameMe.45
Encoding: 615 -1 127
Width: 1024
VWidth: 0
Flags: H
LayerCount: 3
Fore
SplineSet
667.750976562 821 m 1
 811.750976562 821 860.750976562 715 860.750976562 552 c 0
 860.750976562 73 l 1
 735.750976562 73 l 1
 735.750976562 533 l 2
 735.750976562 613 743.581054688 694 667.750976562 696 c 1
 667.750976562 821 l 1
627.747070312 821 m 1
 627.747070312 696 l 0
 627.747070312 696 l 0
 589.546875 696 554 685 554 608 c 0
 429 608 l 0
 429 704 471.747070312 821 627.747070312 821 c 0
 627.747070312 821 l 1
EndSplineSet
EndChar

StartChar: NameMe.50
Encoding: 617 -1 129
Width: 1024
VWidth: 0
Flags: H
LayerCount: 3
Fore
SplineSet
609 380 m 17
 802 380 l 5
 802 255 l 5
 609 255 l 1
 609 380 l 17
553 380 m 9
 553 255 l 0
 244 255 l 2
 178.0078125 254.795898438 164 245 164 192.940429688 c 0
 164 130.165039062 184 124.977539062 275 125 c 1
 275 -1 l 1
 114 -1 40 69.7568359375 40 161 c 0
 40 222.814453125 l 0
 40 333 153 380 241 380 c 0
 553 380 l 9
635 380 m 1
 760 380 l 1
 760 2 l 1
 635 2 l 1
 635 128 635 254 635 380 c 1
330 -1 m 9
 330 125 l 1
 398 125 429 145.0234375 429 191.940429688 c 0
 429 602 l 1
 554 602 l 1
 554 196 l 2
 554 98.0185546875 501 -1 330 -1 c 9
168 356 m 17
 168 600 l 1
 294 600 l 1
 293 356 l 1
 168 356 l 17
393 606 m 1
 714 606 l 1
 714 481 l 1
 393 481 l 1
 393 606 l 1
168 606 m 1
 337 606 l 1
 337 481 l 1
 168 481 l 1
 168 606 l 1
EndSplineSet
EndChar

StartChar: NameMe.59
Encoding: 621 -1 133
Width: 563
VWidth: 0
Flags: HW
LayerCount: 3
Back
SplineSet
40 109.065429688 m 1
 40 611.065429688 l 1
 165 611.065429688 l 1
 165 109.065429688 l 1
 40 109.065429688 l 1
398 1 m 1
 398 -264.5 l 1
 523 -264.5 l 1
 523 610.565429688 l 1
 398 610.565429688 l 1
 398 126 l 1
 309 126 l 1
 309 1 l 1
 398 1 l 1
40 126 m 1
 254 126 l 1
 254 1.0654296875 l 1
 40 1.0654296875 l 1
 40 126 l 1
EndSplineSet
Fore
SplineSet
40 109.065429688 m 1
 40 611.065429688 l 1
 165 611.065429688 l 1
 165 109.065429688 l 1
 40 109.065429688 l 1
398 1 m 1
 398 -264.5 l 1
 523 -264.5 l 1
 523 610.565429688 l 1
 398 610.565429688 l 1
 398 126 l 1
 309 126 l 1
 309 1 l 1
 398 1 l 1
40 126 m 1
 254 126 l 1
 254 1.0654296875 l 1
 40 1.0654296875 l 1
 40 126 l 1
EndSplineSet
EndChar

StartChar: NameMe.60
Encoding: 622 -1 134
Width: 937
VWidth: 0
Flags: HW
LayerCount: 3
Back
SplineSet
438 621 m 1
 438 496 l 1
 302 485 328 241 499 114.0234375 c 1
 342 101 l 1
 149 259 197.001953125 621 438 621 c 1
543 -204 m 1
 542 440 l 0
 542 464 537 496 493 496 c 1
 493 621 l 1
 590 621 669 553 669 457 c 0
 669 -204 l 1
 543 -204 l 1
28 125 m 1
 747 125 l 1
 747 0 l 1
 28 0 l 1
 28 125 l 1
28 610 m 1
 153 610 l 1
 153 180 l 1
 28 180 l 1
 28 610 l 1
EndSplineSet
Fore
SplineSet
438 621 m 1
 438 496 l 1
 302 485 328 241 499 114.0234375 c 1
 342 101 l 1
 149 259 197.001953125 621 438 621 c 1
543 -204 m 1
 542 440 l 0
 542 464 537 496 493 496 c 1
 493 621 l 1
 590 621 669 553 669 457 c 0
 669 -204 l 1
 543 -204 l 1
28 125 m 1
 747 125 l 1
 747 0 l 1
 28 0 l 1
 28 125 l 1
28 610 m 1
 153 610 l 1
 153 180 l 1
 28 180 l 1
 28 610 l 1
EndSplineSet
EndChar

StartChar: NameMe.61
Encoding: 623 -1 135
Width: 770
VWidth: 0
Flags: HW
LayerCount: 3
Back
SplineSet
730 -264.5 m 9
 605 -264.5 l 1
 605 172 l 1
 730 172 l 1
 730 -264.5 l 9
605 148 m 257xe8
 605 610 l 257
 730 610 l 257
 730 1 l 1
 564 1 l 257
 564 122 l 257xf0
 570 122 l 258
 600 122 605 146 605 148 c 257xe8
165 148 m 257
 165 145 171 122 201 122 c 258
 207 122 l 257
 207 1 l 257
 201 1 l 258
 95 1 40 98 40 143 c 258
 40 610 l 257
 165 610 l 257
 165 148 l 257
467 610 m 257
 467 148 l 258
 467 145 473 122 503 122 c 258
 509 122 l 257
 509 1 l 257
 342 1 l 1
 337 34 l 257
 316 11 311 1 269 1 c 258
 263 1 l 257
 263 122 l 257
 269 122 l 258
 300 122 342 132 342 206 c 257
 342 610 l 257
 467 610 l 257
EndSplineSet
Fore
SplineSet
730 -264.5 m 9
 605 -264.5 l 1
 605 172 l 1
 730 172 l 1
 730 -264.5 l 9
605 148 m 257xe8
 605 610 l 257
 730 610 l 257
 730 1 l 1
 564 1 l 257
 564 122 l 257xf0
 570 122 l 258
 600 122 605 146 605 148 c 257xe8
165 148 m 257
 165 145 171 122 201 122 c 258
 207 122 l 257
 207 1 l 257
 201 1 l 258
 95 1 40 98 40 143 c 258
 40 610 l 257
 165 610 l 257
 165 148 l 257
467 610 m 257
 467 148 l 258
 467 145 473 122 503 122 c 258
 509 122 l 257
 509 1 l 257
 342 1 l 1
 337 34 l 257
 316 11 311 1 269 1 c 258
 263 1 l 257
 263 122 l 257
 269 122 l 258
 300 122 342 132 342 206 c 257
 342 610 l 257
 467 610 l 257
EndSplineSet
EndChar

StartChar: NameMe.67
Encoding: 629 -1 141
Width: 906
VWidth: 0
Flags: HW
LayerCount: 3
Back
SplineSet
272.00390625 0 m 1
 272.00390625 125.399414062 l 0
 314.403320312 125.399414062 320.002929688 153.606445312 319.280273438 185 c 0
 318.645507812 212.5703125 314.611328125 242.403320312 272.00390625 242.399414062 c 1
 272.00390625 368 l 0
 370.3125 368.303710938 444.84375 282.500976562 445.00390625 228.901367188 c 0
 445.00390625 155.903320312 l 0
 445.904296875 90.91015625 383.4375 -0.1279296875 272.00390625 0 c 1
216.00390625 368 m 1
 216.00390625 242.399414062 l 0
 186.403320312 242.399414062 167.604492188 214.377929688 167.604492188 185 c 0
 167.604492188 152.600585938 182.403320312 125.399414062 216.00390625 125.399414062 c 1
 216.00390625 0 l 0
 111.694335938 0 39.572265625 93.0029296875 40.00390625 154.599609375 c 0
 40.3076171875 198.000976562 40.6171875 143.993164062 40.00390625 225.599609375 c 0
 39.2041015625 332 165.00390625 368 216.00390625 368 c 1
304.608398438 610 m 1
 304.208007812 485 l 0
 300.408203125 485 l 0
 237.208007812 485 186.208007812 441 179.208007812 365 c 0
 173.872070312 307.064453125 45.7626953125 261.567382812 40.00390625 231 c 1
 40.00390625 289 l 1
 40.00390625 381 87.2080078125 609.923828125 303.208007812 610 c 0
 304.608398438 610 l 1
361.00390625 485 m 1
 364.00390625 485 l 2
 433.00390625 485 498.603515625 426.600585938 500.00390625 363 c 1
 500.00390625 149 l 0
 500.00390625 130 472.50390625 127.889648438 465.0078125 126.399414062 c 1
 465.0078125 0.3994140625 l 1
 685.408203125 0.3994140625 l 1
 686.208007812 126 l 1
 625.208007812 126 l 1
 625.208007812 363.400390625 l 1
 624.208007812 464.600585938 535.00390625 610 371.00390625 610 c 2
 361.00390625 610 l 1
 361.00390625 485 l 1
741.208007812 610 m 1
 866.80859375 610 l 1
 866.80859375 -260.80078125 l 1
 741.208007812 -260.80078125 l 1
 741.208007812 610 l 1
EndSplineSet
Fore
SplineSet
272.00390625 0 m 1
 272.00390625 125.399414062 l 0
 314.403320312 125.399414062 320.002929688 153.606445312 319.280273438 185 c 0
 318.645507812 212.5703125 314.611328125 242.403320312 272.00390625 242.399414062 c 1
 272.00390625 368 l 0
 370.3125 368.303710938 444.84375 282.500976562 445.00390625 228.901367188 c 0
 445.00390625 155.903320312 l 0
 445.904296875 90.91015625 383.4375 -0.1279296875 272.00390625 0 c 1
216.00390625 368 m 1
 216.00390625 242.399414062 l 0
 186.403320312 242.399414062 167.604492188 214.377929688 167.604492188 185 c 0
 167.604492188 152.600585938 182.403320312 125.399414062 216.00390625 125.399414062 c 1
 216.00390625 0 l 0
 111.694335938 0 39.572265625 93.0029296875 40.00390625 154.599609375 c 0
 40.3076171875 198.000976562 40.6171875 143.993164062 40.00390625 225.599609375 c 0
 39.2041015625 332 165.00390625 368 216.00390625 368 c 1
304.608398438 610 m 1
 304.208007812 485 l 0
 300.408203125 485 l 0
 237.208007812 485 186.208007812 441 179.208007812 365 c 0
 173.872070312 307.064453125 45.7626953125 261.567382812 40.00390625 231 c 1
 40.00390625 289 l 1
 40.00390625 381 87.2080078125 609.923828125 303.208007812 610 c 0
 304.608398438 610 l 1
361.00390625 485 m 1
 364.00390625 485 l 2
 433.00390625 485 498.603515625 426.600585938 500.00390625 363 c 1
 500.00390625 149 l 0
 500.00390625 130 472.50390625 127.889648438 465.0078125 126.399414062 c 1
 465.0078125 0.3994140625 l 1
 685.408203125 0.3994140625 l 1
 686.208007812 126 l 1
 625.208007812 126 l 1
 625.208007812 363.400390625 l 1
 624.208007812 464.600585938 535.00390625 610 371.00390625 610 c 2
 361.00390625 610 l 1
 361.00390625 485 l 1
741.208007812 610 m 1
 866.80859375 610 l 1
 866.80859375 -260.80078125 l 1
 741.208007812 -260.80078125 l 1
 741.208007812 610 l 1
EndSplineSet
EndChar

StartChar: NameMe.52
Encoding: 631 -1 143
Width: 1024
VWidth: 0
Flags: H
LayerCount: 3
Fore
SplineSet
538.00390625 353 m 0
 538.022288602 432.999994879 545.833984375 514 478.00390625 516 c 1
 478.00390625 641 l 1
 614.00390625 641 663.00390625 535 663.00390625 372 c 0
 662.980903581 160.007398405 663.00252605 -52.0012878051 663.00390625 -264 c 1
 538.00390625 -264 l 1
 538.005269807 -58.3346217351 537.99583956 147.34095541 538.00390625 353 c 0
337 375 m 0
 337 238.459960938 453 143 514 105 c 1
 339 106 l 1
 294 149 212 227.52734375 212 375 c 0
 212 491 279 641 423 641 c 1
 423 516 l 0
 390 516 337 467 337 375 c 0
28 125 m 1
 770 125 l 1
 770 0 l 1
 28 0 l 1
 28 125 l 1
28 610 m 1
 153 610 l 1
 153 180 l 1
 28 180 l 1
 28 610 l 1
EndSplineSet
EndChar

StartChar: tml_KU
Encoding: 78 -1 168
Width: 979
VWidth: 0
Flags: W
LayerCount: 3
Back
SplineSet
716 380 m 9
 716 255 l 1
 406 255 l 2
 340.0078125 254.795898438 326 245 326 192.940429688 c 0
 326 130.165039062 346 124.977539062 437 125 c 1
 437 -1 l 1
 276 -1 202 69.7568359375 202 161 c 0
 202 222.814453125 l 0
 202 333 315 380 403 380 c 0
 508.666992188 380 610.333007812 380 716 380 c 9
771 254.288085938 m 1
 793.201171875 253.657226562 814 239.790792236 814 189 c 0
 814 64 l 0
 814 20.3818359375 818.068359375 -31.0908203125 747 -31 c 0
 492 -31 l 9
 492 -156 l 1
 748 -157 l 0
 877 -157 939 -58.9345703125 939 10.1650390625 c 0
 939 224.165039062 l 2
 939 344.749153308 834.333007812 372.564453125 771 378.498046875 c 1
 771 254.288085938 l 1
437 -31 m 17
 255 -31 l 0
 189.944335938 -30.673828125 165.975585938 -10.4873046875 166 55 c 0
 166 291 l 0
 166 328 169 386 245 386 c 0
 244 511 l 0
 157 511 40 463 40 296 c 0
 40 56 l 0
 40 -86 127.887695312 -155 239 -155 c 0
 437 -156 l 1
 437 -31 l 17
492 -1 m 9
 492 125 l 1
 560 125 591 145.0234375 591 191.940429688 c 0
 591 602 l 1
 716 602 l 1
 716 196 l 2
 716 98.0185546875 663 -1 492 -1 c 9
330 356 m 17
 330 600 l 1
 456 600 l 1
 455 356 l 1
 330 356 l 17
552 606 m 1
 851 606 l 1
 851 481 l 1
 552 481 l 1
 552 606 l 1
330 606 m 1
 496 606 l 1
 496 481 l 1
 330 481 l 1
 330 606 l 1
EndSplineSet
Fore
SplineSet
716 380 m 9
 716 255 l 1
 406 255 l 2
 340.0078125 254.795898438 326 245 326 192.940429688 c 0
 326 130.165039062 346 124.977539062 437 125 c 1
 437 -1 l 1
 276 -1 202 69.7568359375 202 161 c 0
 202 222.814453125 l 0
 202 333 315 380 403 380 c 0
 508.666992188 380 610.333007812 380 716 380 c 9
771 254.288085938 m 1
 793.201171875 253.657226562 814 239.790792236 814 189 c 0
 814 64 l 0
 814 20.3818359375 818.068359375 -31.0908203125 747 -31 c 0
 492 -31 l 9
 492 -156 l 1
 748 -157 l 0
 877 -157 939 -58.9345703125 939 10.1650390625 c 0
 939 224.165039062 l 2
 939 344.749153308 834.333007812 372.564453125 771 378.498046875 c 1
 771 254.288085938 l 1
437 -31 m 17
 255 -31 l 0
 189.944335938 -30.673828125 165.975585938 -10.4873046875 166 55 c 0
 166 291 l 0
 166 328 169 386 245 386 c 0
 244 511 l 0
 157 511 40 463 40 296 c 0
 40 56 l 0
 40 -86 127.887695312 -155 239 -155 c 0
 437 -156 l 1
 437 -31 l 17
492 -1 m 9
 492 125 l 1
 560 125 591 145.0234375 591 191.940429688 c 0
 591 602 l 1
 716 602 l 1
 716 196 l 2
 716 98.0185546875 663 -1 492 -1 c 9
330 356 m 17
 330 600 l 1
 456 600 l 1
 455 356 l 1
 330 356 l 17
552 606 m 1
 851 606 l 1
 851 481 l 1
 552 481 l 1
 552 606 l 1
330 606 m 1
 496 606 l 1
 496 481 l 1
 330 481 l 1
 330 606 l 1
EndSplineSet
EndChar

StartChar: tml_CU
Encoding: 79 -1 169
Width: 813
VWidth: 0
Flags: HW
LayerCount: 3
Back
SplineSet
620 318 m 1
 745 318 l 1
 745 0 l 1
 620 0 l 1
 620 318 l 1
609 380 m 1
 773 380 l 1
 773 255 l 1
 609 255 l 1
 609 380 l 1
550 380 m 9
 550 255 l 1
 244 255 l 2
 178.0078125 254.795898438 164 245 164 192.940429688 c 0
 164 130.165039062 184 124.977539062 275 125 c 1
 275 -1 l 1
 113 -1 40 69.7568359375 40 161 c 0
 40 222.814453125 l 0
 40 333 153 380 241 380 c 0
 550 380 l 9
330 -1 m 9
 330 125 l 1
 398 125 429 145.0234375 429 191.940429688 c 0
 429 602 l 1
 554 602 l 1
 554 196 l 2
 554 98.0185546875 501 -1 330 -1 c 9
168 356 m 17
 168 600 l 1
 294 600 l 1
 293 356 l 1
 168 356 l 17
390 606 m 1
 710 606 l 1
 710 481 l 1
 390 481 l 1
 390 606 l 1
168 606 m 1
 335 606 l 1
 335 481 l 1
 168 481 l 1
 168 606 l 1
EndSplineSet
Fore
SplineSet
620 318 m 1
 745 318 l 1
 745 0 l 1
 620 0 l 1
 620 318 l 1
609 380 m 1
 773 380 l 1
 773 255 l 1
 609 255 l 1
 609 380 l 1
550 380 m 9
 550 255 l 1
 244 255 l 2
 178.0078125 254.795898438 164 245 164 192.940429688 c 0
 164 130.165039062 184 124.977539062 275 125 c 1
 275 -1 l 1
 113 -1 40 69.7568359375 40 161 c 0
 40 222.814453125 l 0
 40 333 153 380 241 380 c 0
 550 380 l 9
330 -1 m 9
 330 125 l 1
 398 125 429 145.0234375 429 191.940429688 c 0
 429 602 l 1
 554 602 l 1
 554 196 l 2
 554 98.0185546875 501 -1 330 -1 c 9
168 356 m 17
 168 600 l 1
 294 600 l 1
 293 356 l 1
 168 356 l 17
390 606 m 1
 710 606 l 1
 710 481 l 1
 390 481 l 1
 390 606 l 1
168 606 m 1
 335 606 l 1
 335 481 l 1
 168 481 l 1
 168 606 l 1
EndSplineSet
EndChar

StartChar: tml_NyU
Encoding: 80 -1 170
Width: 1057
VWidth: 0
Flags: HW
LayerCount: 3
Back
SplineSet
727.208007812 610 m 1
 727.208007812 485 l 1
 370.208007812 485 l 1
 370.208007812 610 l 1
 727.208007812 610 l 1
498.208007812 604 m 1
 623.80859375 604 l 1
 623.80859375 19 l 1
 498.208007812 19 l 1
 498.208007812 604 l 1
273 3 m 1
 273 128.399414062 l 0
 311.399414062 128.399414062 321.20703125 156.606445312 321.484375 188 c 0
 321.727997675 215.57654269 310.607421875 245.403320312 273 245.399414062 c 1
 273 371 l 0
 372.30859375 371.303710938 446.84375 282.500976562 447.00390625 227.901367188 c 0
 447.00390625 155.903320312 l 0
 447.904296875 98.91015625 384.43359375 2.8720703125 273 3 c 1
314.608398438 610 m 1
 314.208007812 485 l 0
 310.408203125 485 l 0
 224.208007812 485 184.208007812 415 177.208007812 339 c 0
 171.872070312 281.064453125 48.7626953125 265.567382812 43.00390625 235 c 1
 43.00390625 290 l 1
 43.00390625 407 106.208007812 610 313.208007812 610 c 0
 314.608398438 610 l 1
218 371 m 1
 218 245.399414062 l 0
 188.399414062 245.399414062 169.80859375 217.377929688 169.80859375 188 c 0
 169.80859375 155.600585938 184.399414062 128.399414062 218 128.399414062 c 1
 218 3 l 0
 108.690429688 3 43.572265625 102.002929688 43.00390625 155.599609375 c 0
 43.00390625 228.599609375 l 0
 42.2041015625 335 167 371 218 371 c 1
837 161 m 1
 837 306 751.204101562 331 679.204101562 331 c 1
 679.204101562 206 l 0
 707.204101562 206 713.352539062 205.002929688 713.00390625 158 c 1
 712 -82 l 0
 712 -113 708 -167 658 -167 c 0
 459 -167 l 9
 459 -263 l 1
 659 -263 l 0
 816 -263 837 -149.995117188 837 -82 c 2
 837 161 l 1
195 -123 m 2
 1017 -123 l 1
 1017 596.999023438 l 0
 892 596.999023438 l 0
 892 -28 l 1
 195 -28 l 2
 105 -28 40 -58 40 -128 c 0
 40 -162 l 0
 41 -259.200195312 160.00390625 -262.854492188 194 -263 c 2
 404 -263 l 1
 404 -167 l 17
 194 -167 l 2
 155 -167 154 -123 195 -123 c 2
727.208007812 610 m 1
 727.208007812 485 l 1
 370.208007812 485 l 1
 370.208007812 610 l 1
 727.208007812 610 l 1
498.208007812 604 m 1
 623.80859375 604 l 1
 623.80859375 19 l 1
 498.208007812 19 l 1
 498.208007812 604 l 1
273 3 m 1
 273 128.399414062 l 0
 311.399414062 128.399414062 321.20703125 156.606445312 321.484375 188 c 0
 321.727997675 215.57654269 310.607421875 245.403320312 273 245.399414062 c 1
 273 371 l 0
 372.30859375 371.303710938 446.84375 282.500976562 447.00390625 227.901367188 c 0
 447.00390625 155.903320312 l 0
 447.904296875 98.91015625 384.43359375 2.8720703125 273 3 c 1
314.608398438 610 m 1
 314.208007812 485 l 0
 310.408203125 485 l 0
 224.208007812 485 184.208007812 415 177.208007812 339 c 0
 171.872070312 281.064453125 48.7626953125 265.567382812 43.00390625 235 c 1
 43.00390625 290 l 1
 43.00390625 407 106.208007812 610 313.208007812 610 c 0
 314.608398438 610 l 1
218 371 m 1
 218 245.399414062 l 0
 188.399414062 245.399414062 169.80859375 217.377929688 169.80859375 188 c 0
 169.80859375 155.600585938 184.399414062 128.399414062 218 128.399414062 c 1
 218 3 l 0
 108.690429688 3 43.572265625 102.002929688 43.00390625 155.599609375 c 0
 43.00390625 228.599609375 l 0
 42.2041015625 335 167 371 218 371 c 1
EndSplineSet
Fore
SplineSet
727.208007812 610 m 1
 727.208007812 485 l 1
 370.208007812 485 l 1
 370.208007812 610 l 1
 727.208007812 610 l 1
498.208007812 604 m 1
 623.80859375 604 l 1
 623.80859375 19 l 1
 498.208007812 19 l 1
 498.208007812 604 l 1
273 3 m 1
 273 128.399414062 l 0
 311.399414062 128.399414062 321.20703125 156.606445312 321.484375 188 c 0
 321.727997675 215.57654269 310.607421875 245.403320312 273 245.399414062 c 1
 273 371 l 0
 372.30859375 371.303710938 446.84375 282.500976562 447.00390625 227.901367188 c 0
 447.00390625 155.903320312 l 0
 447.904296875 98.91015625 384.43359375 2.8720703125 273 3 c 1
314.608398438 610 m 1
 314.208007812 485 l 0
 310.408203125 485 l 0
 224.208007812 485 184.208007812 415 177.208007812 339 c 0
 171.872070312 281.064453125 48.7626953125 265.567382812 43.00390625 235 c 1
 43.00390625 290 l 1
 43.00390625 407 106.208007812 610 313.208007812 610 c 0
 314.608398438 610 l 1
218 371 m 1
 218 245.399414062 l 0
 188.399414062 245.399414062 169.80859375 217.377929688 169.80859375 188 c 0
 169.80859375 155.600585938 184.399414062 128.399414062 218 128.399414062 c 1
 218 3 l 0
 108.690429688 3 43.572265625 102.002929688 43.00390625 155.599609375 c 0
 43.00390625 228.599609375 l 0
 42.2041015625 335 167 371 218 371 c 1
837 161 m 1
 837 306 751.204101562 331 679.204101562 331 c 1
 679.204101562 206 l 0
 707.204101562 206 713.352539062 205.002929688 713.00390625 158 c 1
 712 -82 l 0
 712 -113 708 -167 658 -167 c 0
 459 -167 l 9
 459 -263 l 1
 659 -263 l 0
 816 -263 837 -149.995117188 837 -82 c 2
 837 161 l 1
195 -123 m 2
 1017 -123 l 1
 1017 596.999023438 l 0
 892 596.999023438 l 0
 892 -28 l 1
 195 -28 l 2
 105 -28 40 -58 40 -128 c 0
 40 -162 l 0
 41 -259.200195312 160.00390625 -262.854492188 194 -263 c 2
 404 -263 l 1
 404 -167 l 17
 194 -167 l 2
 155 -167 154 -123 195 -123 c 2
727.208007812 610 m 1
 727.208007812 485 l 1
 370.208007812 485 l 1
 370.208007812 610 l 1
 727.208007812 610 l 1
498.208007812 604 m 1
 623.80859375 604 l 1
 623.80859375 19 l 1
 498.208007812 19 l 1
 498.208007812 604 l 1
273 3 m 1
 273 128.399414062 l 0
 311.399414062 128.399414062 321.20703125 156.606445312 321.484375 188 c 0
 321.727997675 215.57654269 310.607421875 245.403320312 273 245.399414062 c 1
 273 371 l 0
 372.30859375 371.303710938 446.84375 282.500976562 447.00390625 227.901367188 c 0
 447.00390625 155.903320312 l 0
 447.904296875 98.91015625 384.43359375 2.8720703125 273 3 c 1
314.608398438 610 m 1
 314.208007812 485 l 0
 310.408203125 485 l 0
 224.208007812 485 184.208007812 415 177.208007812 339 c 0
 171.872070312 281.064453125 48.7626953125 265.567382812 43.00390625 235 c 1
 43.00390625 290 l 1
 43.00390625 407 106.208007812 610 313.208007812 610 c 0
 314.608398438 610 l 1
218 371 m 1
 218 245.399414062 l 0
 188.399414062 245.399414062 169.80859375 217.377929688 169.80859375 188 c 0
 169.80859375 155.600585938 184.399414062 128.399414062 218 128.399414062 c 1
 218 3 l 0
 108.690429688 3 43.572265625 102.002929688 43.00390625 155.599609375 c 0
 43.00390625 228.599609375 l 0
 42.2041015625 335 167 371 218 371 c 1
EndSplineSet
EndChar

StartChar: tml_TtU
Encoding: 81 -1 171
Width: 845
VWidth: 0
Flags: HW
LayerCount: 3
Back
SplineSet
680 609 m 1
 805 609 l 1
 805 -263 l 1
 680 -263 l 1
 680 609 l 1
326 125 m 1
 682 125.065429688 l 1
 682 0.0654296875 l 1
 326 0 l 1
 326 125 l 1
282 125 m 1
 315.639648438 125 375.05859375 125 444 125 c 0
 503 125 500 128.418945312 500 148 c 0
 500 216 l 2
 500 237.028320312 504 236 468 237 c 0
 468 362 l 1
 540 362 626 330 626 235 c 0
 626 114 l 0
 626 44.044921875 563.067382812 0 467 0 c 0
 388 0 365.600585938 0 282 0 c 1
 282 125 l 1
288 181 m 1
 413 181 l 1
 413 603 l 1
 288 603 l 1
 288 181 l 1
40 0 m 9
 165 0 l 1
 165 605 l 1
 40 605 l 1
 40 0 l 9
524 484 m 1
 524 609 l 1
 40 609 l 1
 41 484 l 1
 524 484 l 1
EndSplineSet
Fore
SplineSet
680 609 m 1
 805 609 l 1
 805 -263 l 1
 680 -263 l 1
 680 609 l 1
326 125 m 1
 682 125.065429688 l 1
 682 0.0654296875 l 1
 326 0 l 1
 326 125 l 1
282 125 m 1
 315.639648438 125 375.05859375 125 444 125 c 0
 503 125 500 128.418945312 500 148 c 0
 500 216 l 2
 500 237.028320312 504 236 468 237 c 0
 468 362 l 1
 540 362 626 330 626 235 c 0
 626 114 l 0
 626 44.044921875 563.067382812 0 467 0 c 0
 388 0 365.600585938 0 282 0 c 1
 282 125 l 1
288 181 m 1
 413 181 l 1
 413 603 l 1
 288 603 l 1
 288 181 l 1
40 0 m 9
 165 0 l 1
 165 605 l 1
 40 605 l 1
 40 0 l 9
524 484 m 1
 524 609 l 1
 40 609 l 1
 41 484 l 1
 524 484 l 1
EndSplineSet
EndChar

StartChar: tml_NnU
Encoding: 82 -1 172
Width: 869
VWidth: 0
Flags: HW
LayerCount: 3
Back
SplineSet
365 -168 m 17
 470 -168 l 0
 520 -168 523 -114 523 -83 c 0
 524 155 l 1
 649 155 l 1
 649 -83 l 0
 649 -151 628 -264 471 -264 c 0
 365 -264 l 1
 365 -168 l 17
195 -124 m 2
 154 -124 155 -168 194 -168 c 2
 310 -168 l 9
 310 -264 l 1
 194 -263.200195312 l 2
 160.00390625 -263.0546875 41 -260.200195312 40 -163 c 0
 40 -129 l 0
 40 -59 105 -29 195 -29 c 2
 704 -29 l 1
 704 595.999023438 l 0
 829 595.999023438 l 0
 829 -124 l 1
 195 -124 l 2
524 210 m 9
 649 210 l 1
 649 210 l 0
 649 361 569 383 476 383 c 1
 476 258 l 0
 519 258 524 257 524 210 c 2
 524 210 l 9
308 1 m 1
 436 1 l 1
 435 603 l 1
 310 603 l 1
 308 1 l 1
62 1 m 9
 187 1 l 1
 187 605 l 1
 62 605 l 1
 62 1 l 9
583 485 m 1
 583 610 l 1
 62 610 l 1
 63 485 l 1
 583 485 l 1
EndSplineSet
Fore
SplineSet
365 -168 m 17
 470 -168 l 0
 520 -168 523 -114 523 -83 c 0
 524 155 l 1
 649 155 l 1
 649 -83 l 0
 649 -151 628 -264 471 -264 c 0
 365 -264 l 1
 365 -168 l 17
195 -124 m 2
 154 -124 155 -168 194 -168 c 2
 310 -168 l 9
 310 -264 l 1
 194 -263.200195312 l 2
 160.00390625 -263.0546875 41 -260.200195312 40 -163 c 0
 40 -129 l 0
 40 -59 105 -29 195 -29 c 2
 704 -29 l 1
 704 595.999023438 l 0
 829 595.999023438 l 0
 829 -124 l 1
 195 -124 l 2
524 210 m 9
 649 210 l 1
 649 210 l 0
 649 361 569 383 476 383 c 1
 476 258 l 0
 519 258 524 257 524 210 c 2
 524 210 l 9
308 1 m 1
 436 1 l 1
 435 603 l 1
 310 603 l 1
 308 1 l 1
62 1 m 9
 187 1 l 1
 187 605 l 1
 62 605 l 1
 62 1 l 9
583 485 m 1
 583 610 l 1
 62 610 l 1
 63 485 l 1
 583 485 l 1
EndSplineSet
EndChar

StartChar: tml_TU
Encoding: 83 -1 173
Width: 967
VWidth: 0
Flags: HW
LayerCount: 3
Back
SplineSet
420 -168 m 17
 582 -168 l 0
 632 -168 635 -114 635 -83 c 0
 636 160 l 1
 761 160 l 1
 761 -83 l 0
 761 -151 740 -264 583 -264 c 0
 420 -264 l 1
 420 -168 l 17
195 -124 m 2
 154 -124 155 -168 194 -168 c 2
 365 -168 l 9
 365 -264 l 1
 194 -263.200195312 l 2
 160.004042677 -263.054793569 41 -260.200195312 40 -163 c 0
 40 -129 l 0
 40 -59 105 -29 195 -29 c 2
 802 -29 l 1
 802 595.999023438 l 0
 927 595.999023438 l 0
 927 -124 l 1
 195 -124 l 2
50 159 m 9
 176 159 l 17
 183.004882812 121.557617188 200.586914062 127.981445312 282 128 c 1
 282 2 l 1
 111.241210938 2 50 64.08984375 50 159 c 9
588 383 m 1
 251 383 l 2
 164 383 50 336 50 225.814453125 c 0
 50 215 l 9
 174 215 l 17
 174 255.741210938 196 258 254 258 c 2
 588 258 l 1
 631 258 636 262 636 215 c 2
 636 215 l 9
 761 215 l 1
 761 215 l 0
 761 354 675 383 588 383 c 1
337 2 m 17
 511 2 564 106.018554688 564 199 c 2
 564 605 l 1
 439 605 l 1
 439 194.940429688 l 0
 439 148.0234375 413 128 337 128 c 1
 337 2 l 17
178 359 m 9
 303 359 l 1
 304 603 l 1
 178 603 l 1
 178 359 l 9
398 609 m 1
 398 484 l 1
 699 484 l 1
 699 609 l 1
 398 609 l 1
178 609 m 1
 178 484 l 1
 343 484 l 1
 343 609 l 1
 178 609 l 1
EndSplineSet
Fore
SplineSet
420 -168 m 17
 582 -168 l 0
 632 -168 635 -114 635 -83 c 0
 636 160 l 1
 761 160 l 1
 761 -83 l 0
 761 -151 740 -264 583 -264 c 0
 420 -264 l 1
 420 -168 l 17
195 -124 m 2
 154 -124 155 -168 194 -168 c 2
 365 -168 l 9
 365 -264 l 1
 194 -263.200195312 l 2
 160.004042677 -263.054793569 41 -260.200195312 40 -163 c 0
 40 -129 l 0
 40 -59 105 -29 195 -29 c 2
 802 -29 l 1
 802 595.999023438 l 0
 927 595.999023438 l 0
 927 -124 l 1
 195 -124 l 2
50 159 m 9
 176 159 l 17
 183.004882812 121.557617188 200.586914062 127.981445312 282 128 c 1
 282 2 l 1
 111.241210938 2 50 64.08984375 50 159 c 9
588 383 m 1
 251 383 l 2
 164 383 50 336 50 225.814453125 c 0
 50 215 l 9
 174 215 l 17
 174 255.741210938 196 258 254 258 c 2
 588 258 l 1
 631 258 636 262 636 215 c 2
 636 215 l 9
 761 215 l 1
 761 215 l 0
 761 354 675 383 588 383 c 1
337 2 m 17
 511 2 564 106.018554688 564 199 c 2
 564 605 l 1
 439 605 l 1
 439 194.940429688 l 0
 439 148.0234375 413 128 337 128 c 1
 337 2 l 17
178 359 m 9
 303 359 l 1
 304 603 l 1
 178 603 l 1
 178 359 l 9
398 609 m 1
 398 484 l 1
 699 484 l 1
 699 609 l 1
 398 609 l 1
178 609 m 1
 178 484 l 1
 343 484 l 1
 343 609 l 1
 178 609 l 1
EndSplineSet
EndChar

